<svg width="520" height="437" viewBox="0 0 520 437" fill="none" xmlns="http://www.w3.org/2000/svg">
<path d="M97.4272 242.62C103.532 207.74 74.5698 206.526 53.2687 162.847C34.8554 125.079 15.4656 128.383 10.5568 129.972L10.5411 129.942C10.5411 129.942 10.4523 129.982 10.3009 130.057C9.69512 130.268 9.37134 130.428 9.37134 130.428L9.43401 130.553C5.08918 133.27 -9.63205 145.818 9.80478 183.105C32.2861 226.233 15.3089 248.797 47.5975 265.836C79.886 282.875 35.9521 311.63 63.8644 328.785C91.7768 345.94 94.1216 355.846 94.1216 355.846L116.133 340.4L142.113 333.482C142.113 333.482 135.471 325.577 138.771 293.914C142.066 262.257 91.3225 277.506 97.4272 242.62Z" fill="#FCFCFC"/>
<path d="M116.133 340.897C115.94 340.897 115.757 340.792 115.663 340.617L12.3845 138.645C12.2592 138.394 12.3636 138.093 12.6247 137.973C12.8859 137.853 13.1992 137.953 13.3245 138.204L116.603 340.175C116.728 340.426 116.624 340.722 116.363 340.847C116.29 340.882 116.211 340.897 116.133 340.897Z" fill="#008880"/>
<path d="M30.3644 173.169C30.3383 173.169 30.3174 173.169 30.2913 173.164C30.0041 173.124 29.8057 172.874 29.8422 172.598L33.9051 144.073C33.9416 143.798 34.2079 143.607 34.4952 143.642C34.7824 143.677 34.9808 143.933 34.9443 144.209L30.8814 172.733C30.8449 172.989 30.6255 173.169 30.3644 173.169Z" fill="#008880"/>
<path d="M39.4092 190.861C39.3152 190.861 39.2212 190.836 39.1376 190.785L7.74728 172.237C7.50184 172.092 7.42351 171.781 7.57495 171.545C7.72639 171.31 8.04495 171.234 8.29561 171.38L39.6859 189.928C39.9314 190.074 40.0097 190.384 39.8583 190.62C39.759 190.775 39.5867 190.861 39.4092 190.861Z" fill="#008880"/>
<path d="M58.1097 227.431C58.0836 227.431 58.0523 227.431 58.021 227.426C57.739 227.381 57.5457 227.12 57.5927 226.85L63.875 190.976C63.922 190.705 64.1935 190.515 64.4755 190.565C64.7575 190.61 64.9507 190.871 64.9037 191.141L58.6215 227.015C58.5849 227.261 58.3604 227.431 58.1097 227.431Z" fill="#008880"/>
<path d="M65.1595 242.36C65.0655 242.36 64.9715 242.335 64.8879 242.285L26.3015 219.776C26.0561 219.631 25.9777 219.325 26.1239 219.09C26.2754 218.854 26.5939 218.779 26.8394 218.924L65.4258 241.433C65.6713 241.578 65.7496 241.884 65.5982 242.12C65.5094 242.27 65.337 242.36 65.1595 242.36Z" fill="#008880"/>
<path d="M79.2124 268.699C79.1758 268.699 79.1393 268.694 79.1079 268.689C78.826 268.634 78.6432 268.368 78.7006 268.097L89.2285 219.476C89.2859 219.205 89.5627 219.035 89.8447 219.085C90.1267 219.14 90.3095 219.406 90.252 219.676L79.7242 268.298C79.6719 268.534 79.4578 268.699 79.2124 268.699Z" fill="#008880"/>
<path d="M95.3384 300.236C95.281 300.236 95.2183 300.226 95.1608 300.206L63.2744 289.147C63.0029 289.052 62.8619 288.766 62.9611 288.506C63.0603 288.245 63.358 288.11 63.6295 288.205L95.516 299.264C95.7875 299.359 95.9285 299.645 95.8293 299.905C95.7562 300.111 95.5525 300.236 95.3384 300.236Z" fill="#008880"/>
<path d="M104.696 318.529C104.639 318.529 104.576 318.519 104.519 318.499C104.247 318.403 104.112 318.118 104.211 317.857L119.543 277.742C119.642 277.482 119.945 277.351 120.211 277.447C120.483 277.542 120.619 277.828 120.52 278.088L105.187 318.203C105.109 318.403 104.905 318.529 104.696 318.529Z" fill="#008880"/>
<path d="M111.6 332.039C111.569 332.039 111.532 332.034 111.501 332.029L65.5252 323.512C65.2432 323.457 65.0552 323.196 65.1126 322.925C65.1701 322.655 65.4416 322.474 65.7236 322.529L111.699 331.046C111.981 331.097 112.169 331.362 112.112 331.633C112.065 331.874 111.846 332.039 111.6 332.039Z" fill="#008880"/>
<path d="M103.906 224.926C119.907 203.094 100.606 193.203 100.94 156.809C101.232 125.336 86.9132 121.522 83.0331 121.06V121.035C83.0331 121.035 82.96 121.035 82.8295 121.04C82.349 120.995 82.0723 121 82.0723 121V121.105C78.1922 121.597 63.9096 125.532 64.4788 156.994C65.1316 193.389 45.9141 203.43 62.108 225.132C78.3019 246.838 38.6292 252.658 51.8047 273.072C64.9802 293.485 63.2099 300.959 63.2099 300.959L83.4405 297.335L103.473 300.759C103.473 300.759 101.634 293.299 114.632 272.781C127.63 252.262 87.9054 246.763 103.906 224.926Z" fill="#FCFCFC"/>
<path d="M83.4353 297.716C83.2211 297.716 83.0436 297.55 83.0436 297.34L81.3359 127.537C81.3359 127.327 81.5083 127.156 81.7276 127.156C81.9365 127.146 82.1245 127.322 82.1245 127.532L83.8321 297.335C83.8321 297.54 83.6546 297.711 83.4353 297.716Z" fill="#008880"/>
<path d="M82.0148 156.703C81.9417 156.703 81.8633 156.683 81.8007 156.643C81.6179 156.528 81.5709 156.292 81.6858 156.122L94.1354 137.974C94.2555 137.799 94.5009 137.749 94.6837 137.869C94.8665 137.984 94.9135 138.22 94.7986 138.39L82.349 156.538C82.2707 156.643 82.1453 156.703 82.0148 156.703Z" fill="#008880"/>
<path d="M82.1663 171.577C82.0357 171.577 81.9104 171.517 81.8373 171.402L66.7714 148.953C66.6513 148.778 66.7087 148.542 66.8915 148.432C67.0743 148.321 67.3197 148.372 67.4346 148.547L82.5005 170.995C82.6206 171.171 82.5631 171.407 82.3804 171.517C82.3125 171.557 82.2394 171.577 82.1663 171.577Z" fill="#008880"/>
<path d="M82.4743 202.322C82.396 202.322 82.3176 202.302 82.2497 202.252C82.0722 202.132 82.0304 201.896 82.1557 201.726L98.6159 179.272C98.7413 179.102 98.9867 179.062 99.1643 179.182C99.3418 179.302 99.3836 179.538 99.2583 179.708L82.7981 202.162C82.7197 202.267 82.5996 202.322 82.4743 202.322Z" fill="#008880"/>
<path d="M82.2028 214.69C82.0722 214.69 81.9469 214.63 81.8738 214.519L63.2568 187.123C63.1367 186.948 63.1889 186.712 63.3717 186.602C63.5545 186.486 63.7999 186.536 63.9148 186.712L82.5318 214.108C82.6519 214.284 82.5997 214.519 82.4169 214.63C82.3542 214.67 82.2759 214.69 82.2028 214.69Z" fill="#008880"/>
<path d="M82.8243 237.013C82.7407 237.013 82.6572 236.988 82.5841 236.938C82.4117 236.812 82.3752 236.572 82.511 236.406L106.188 206.609C106.319 206.443 106.569 206.413 106.742 206.538C106.914 206.664 106.945 206.904 106.815 207.07L83.1376 236.867C83.0593 236.963 82.9392 237.013 82.8243 237.013Z" fill="#008880"/>
<path d="M83.0906 263.527C82.9862 263.527 82.887 263.487 82.8086 263.412L64.8601 245.906C64.7087 245.756 64.7087 245.52 64.8654 245.37C65.022 245.224 65.2674 245.224 65.4241 245.375L83.3726 262.88C83.5241 263.031 83.5241 263.266 83.3674 263.417C83.2891 263.492 83.1899 263.527 83.0906 263.527Z" fill="#008880"/>
<path d="M83.242 278.907C83.1376 278.907 83.0383 278.867 82.96 278.792C82.8086 278.642 82.8138 278.401 82.9652 278.256L107.024 255.747C107.18 255.602 107.431 255.602 107.582 255.752C107.734 255.902 107.729 256.143 107.577 256.288L83.5188 278.797C83.4405 278.872 83.3412 278.907 83.242 278.907Z" fill="#008880"/>
<path d="M83.3568 290.267C83.2732 290.267 83.1949 290.242 83.1218 290.192L54.7185 270.004C54.5462 269.879 54.5044 269.643 54.635 269.473C54.7655 269.302 55.011 269.267 55.1885 269.392L83.5918 289.58C83.7641 289.705 83.8059 289.941 83.6753 290.111C83.597 290.212 83.4769 290.267 83.3568 290.267Z" fill="#008880"/>
<path d="M217.389 210.24C249.567 193.799 282.356 178.081 317.066 167.054C351.78 156.027 388.648 149.778 425.17 152.73C441.221 154.028 458.2 157.635 469.272 168.602C482.397 181.601 483.799 201.626 480.464 219.245C478.756 228.269 475.955 237.24 470.815 245.041C464.98 253.899 456.351 260.894 446.98 266.488C413.873 286.257 371.476 289.028 333.342 280.29C295.208 271.552 260.735 252.299 229.096 230.528C222.027 225.664 214.239 218.65 216.353 210.673" fill="#8BD0CA"/>
<path d="M73.7858 284.5C73.7858 284.5 134.34 181.041 331.727 174.551L73.7858 353.379L73.7858 284.5Z" fill="#8BD0CA"/>
<path d="M401.631 214.42C424.855 213.795 443.635 211.58 443.578 209.475C443.522 207.369 424.649 206.169 401.426 206.794C378.202 207.42 359.422 209.634 359.479 211.74C359.535 213.846 378.408 215.046 401.631 214.42Z" fill="#FCFCFC"/>
<path d="M424.109 92.0758C424.109 92.0758 419.63 90.0672 413.853 77.2653C408.075 64.4634 407.782 50.2018 416.757 45.8481C425.732 41.4912 433.328 43.3506 438.22 54.0505C443.108 64.7471 437.763 98.6621 424.109 92.0758Z" fill="#8BD0CA"/>
<path d="M412.445 211.596C412.433 211.597 412.421 211.597 412.409 211.597C412.225 211.586 412.09 211.456 412.106 211.306L423.857 99.434C428.097 77.7868 423.253 47.4378 423.205 47.1331C423.181 46.9839 423.309 46.847 423.492 46.8258C423.675 46.8046 423.841 46.9076 423.865 47.0567C423.913 47.3614 428.766 77.7883 424.516 99.4944L412.769 211.343C412.753 211.484 412.612 211.592 412.445 211.596Z" fill="#008880"/>
<path d="M438.654 89.874C438.654 89.874 432.567 75.3517 444.686 62.8132C456.804 50.2715 467.627 45.8421 473.804 44.1976C476.519 43.4766 483.024 39.9024 483.85 44.08C485.746 53.6591 484.681 64.871 475.842 72.2C475.066 72.8427 474.245 73.4443 473.384 74.008C457.609 84.2781 441.55 93.7712 438.654 89.874Z" fill="#FCFCFC"/>
<path d="M404.016 211.504C403.992 211.505 403.964 211.502 403.94 211.499C403.76 211.472 403.645 211.328 403.684 211.181C404.888 206.457 433.271 95.4231 438.955 85.936C444.642 76.4455 480.272 44.4267 480.63 44.1045C480.755 43.9937 480.966 43.9848 481.1 44.0853C481.234 44.1859 481.243 44.3582 481.118 44.469C480.76 44.7912 445.193 76.753 439.551 86.1706C433.902 95.5949 404.629 210.13 404.333 211.287C404.3 211.412 404.167 211.5 404.016 211.504Z" fill="#008880"/>
<path d="M410.429 113.547C410.429 113.547 393.098 109.551 391.352 83.2171C389.607 56.8835 403.867 50.1509 409.418 54.8295C414.973 59.508 430.077 66.0552 427.948 87.2092C425.823 108.363 416.94 116.856 410.429 113.547Z" fill="#FCFCFC"/>
<path d="M418.917 115.813C418.917 115.813 408.256 102.99 433.318 86.3423C458.38 69.6949 480.103 70.1157 475.096 81.7724C470.088 93.429 432.863 123.463 418.917 115.813Z" fill="#8BD0CA"/>
<path d="M396.445 211.018C396.429 211.018 396.409 211.019 396.389 211.016C396.206 210.995 396.082 210.858 396.106 210.711C396.241 209.939 409.681 133.411 418.611 115.71C421.195 110.584 428.351 101.868 447.755 89.4593C459.338 82.0531 469.962 76.763 470.068 76.708C470.226 76.6289 470.43 76.669 470.525 76.7967C470.62 76.9243 470.569 77.0918 470.412 77.1709C470.305 77.2226 459.713 82.4988 448.161 89.8878C428.878 102.219 421.784 110.845 419.23 115.908C410.334 133.546 396.904 210.006 396.77 210.778C396.741 210.915 396.605 211.013 396.445 211.018Z" fill="#008880"/>
<path d="M390.447 211.18C390.427 211.18 390.403 211.181 390.383 211.175C390.203 211.15 390.079 211.011 390.111 210.863C390.278 210.09 406.779 133.258 412.598 114.166C418.392 95.1568 404.172 57.478 404.03 57.1009C403.974 56.9591 404.074 56.8034 404.248 56.7597C404.426 56.7125 404.611 56.7922 404.663 56.9341C404.809 57.3143 419.081 95.1383 413.244 114.296C407.432 133.368 390.93 210.18 390.768 210.956C390.735 211.081 390.602 211.175 390.447 211.18Z" fill="#008880"/>
<path d="M95.2271 338.391C93.7649 330.876 96.1841 322.715 101.501 317.207C106.818 311.704 114.895 309.006 122.454 310.207C120.987 307.362 121.86 303.525 124.408 301.593C126.956 299.661 130.89 299.861 133.23 302.045C132.645 293.755 141.524 286.267 149.597 288.239C145.711 278.77 148.378 267.002 155.964 260.135C163.549 253.263 175.521 251.774 184.56 256.568C186.057 245.721 198.189 239.611 209.093 238.681C225.828 237.25 242.594 243.661 255.952 253.839C269.311 264.016 279.582 277.734 288.199 292.147C249.519 320.716 200.267 330.078 152.663 336.862C133.619 339.574 114.355 342.006 95.2005 340.287" fill="#00A99D"/>
<path d="M371.822 313.929C380.882 304.326 372.596 286.107 368.123 274.647C363.652 263.182 352.818 255.397 342.066 260.563C340.68 261.227 339.23 262.108 337.877 261.857C336.454 261.593 335.534 260.155 334.523 259.013C330.681 254.666 324.148 254.247 318.898 258.016C323.321 245.816 317.063 231.679 307.085 231.34C297.108 230.997 286.557 244.558 287.178 256.932C285.366 251.948 280.9 249.035 276.189 249.768C271.478 250.501 266.759 254.839 264.583 260.443C258.696 245.363 245.656 235.176 231.171 237.682C216.687 240.189 202.109 257.251 201.178 275.255C197.762 271.841 192.322 271.623 187.871 274.715C183.42 277.806 180.2 284.043 179.993 289.973C171.582 283.839 158.385 289.288 151.433 300.546C144.481 311.805 143.678 327.098 148.242 337.889C137.5 394 323.628 365.019 371.822 313.929Z" fill="#8BD0CA"/>
<path d="M234.254 411.731C234.254 411.731 249.916 392.927 248.031 358.46C246.147 323.993 252 309 252 309C252 309 189.346 336.448 198.164 381.584L234.254 411.731Z" fill="#FCFCFC"/>
<path d="M214.489 396.161C213.967 396.161 213.52 395.811 213.456 395.337C213.392 394.854 211.94 383.361 215.675 367.277C219.119 352.443 227.843 330.839 249.852 312.167C250.27 311.813 250.929 311.831 251.323 312.207C251.716 312.584 251.697 313.178 251.279 313.532C229.688 331.844 221.117 353.037 217.727 367.587C214.046 383.383 215.503 395 215.522 395.115C215.591 395.629 215.183 396.095 214.612 396.157C214.568 396.161 214.528 396.161 214.489 396.161Z" fill="#00A99D"/>
<path d="M118.803 358.721C118.803 358.721 112.953 292.087 86.988 265.808C86.988 265.808 33.9318 306.992 69.2353 357.941L118.803 358.721Z" fill="#00A99D"/>
<path d="M90.2107 359.209C89.7531 359.209 89.3349 358.934 89.207 358.517C89.1627 358.371 84.8475 343.852 82.3086 325.251C79.9616 308.042 78.6971 283.704 86.0087 265.489C86.2055 265.002 86.8009 264.75 87.3421 264.927C87.8834 265.104 88.1638 265.64 87.967 266.127C74.2146 300.373 91.0423 357.459 91.2145 358.03C91.3621 358.531 91.0373 359.045 90.4813 359.178C90.3928 359.195 90.2993 359.209 90.2107 359.209Z" fill="#FCFCFC"/>
<path d="M120.589 373.431C120.589 373.431 74.5393 323.909 141.988 238.776C141.988 238.776 188.775 323.86 169.424 379.147L120.589 373.431Z" fill="#FCFCFC"/>
<path d="M140.846 361.827C140.349 361.827 139.906 361.504 139.823 361.047C139.788 360.875 136.575 343.493 134.671 321.614C132.91 301.392 131.945 273.07 137.328 252.99C137.461 252.49 138.022 252.179 138.583 252.299C139.139 252.419 139.483 252.928 139.35 253.429C134.031 273.265 135.001 301.37 136.747 321.45C138.642 343.249 141.845 360.56 141.879 360.733C141.973 361.242 141.594 361.725 141.028 361.809C140.959 361.823 140.9 361.827 140.846 361.827Z" fill="#00A99D"/>
<path d="M157.093 363.267C157.093 363.267 166.171 302.539 219.739 279.854C219.739 279.854 215.203 363.617 205.337 391.593C205.337 391.593 160.09 391.947 157.093 363.267Z" fill="#00A99D"/>
<path d="M180.096 374.902C180.051 374.902 180.012 374.902 179.968 374.893C179.397 374.831 178.994 374.361 179.062 373.852C179.082 373.706 181.129 358.916 186.581 340.803C191.619 324.05 200.692 300.926 215.281 285.915C215.66 285.525 216.315 285.485 216.747 285.826C217.18 286.167 217.225 286.757 216.846 287.147C202.518 301.888 193.568 324.728 188.583 341.29C183.171 359.275 181.144 373.932 181.124 374.073C181.06 374.552 180.612 374.902 180.096 374.902Z" fill="#FCFCFC"/>
<path d="M420.106 279.016C420.106 279.016 329.763 254.204 322.767 301.285C315.771 348.366 358.395 292.379 378.754 294.922C378.754 294.922 305.589 347.09 338.035 364.906C370.482 382.722 391.479 324.015 406.748 318.693C406.748 318.693 375.573 403.077 397.204 386.537C418.835 369.997 428.378 324.187 428.378 324.187C428.378 324.187 433.416 371.034 452.903 402.426C455.96 407.348 463.43 406.236 464.954 400.644C469.771 382.983 475.358 349.682 460.825 319.735C460.825 319.735 470.36 338.277 497.17 348.291C501.729 349.992 506.692 346.953 507.175 342.11C508.721 326.633 504.211 294.75 446.19 279.654C446.19 279.654 480.196 268.201 507.41 279.016C534.623 289.831 511.721 254.842 492.633 250.384C473.55 245.936 433.469 239.339 420.106 279.016Z" fill="#FCFCFC"/>
<path d="M459.744 398.903C459.535 398.903 459.371 398.735 459.376 398.531C459.704 358.442 448.937 328.153 439.85 309.805C430 289.92 419.947 279.379 419.845 279.273C419.703 279.127 419.707 278.892 419.854 278.75C420 278.608 420.235 278.613 420.376 278.759C420.478 278.865 430.598 289.468 440.496 309.446C449.628 327.874 460.444 358.291 460.116 398.54C460.111 398.744 459.947 398.903 459.744 398.903Z" fill="#00A99D"/>
<path d="M395.613 380.006C395.555 380.006 395.502 379.993 395.445 379.966C395.263 379.873 395.188 379.652 395.281 379.47C413.101 344.237 431.156 294.892 431.338 294.395C431.409 294.205 431.617 294.103 431.812 294.174C432.003 294.245 432.105 294.457 432.034 294.648C431.852 295.144 413.779 344.529 395.941 379.802C395.879 379.935 395.746 380.006 395.613 380.006Z" fill="#00A99D"/>
<path d="M346.835 354.635C346.799 354.635 346.764 354.631 346.729 354.618C346.534 354.56 346.423 354.352 346.48 354.157C350.242 341.689 364.443 326.013 388.683 307.572C406.708 293.855 423.855 283.664 424.027 283.562C424.205 283.456 424.431 283.518 424.532 283.69C424.634 283.868 424.577 284.094 424.404 284.195C423.722 284.599 356.064 324.967 347.189 354.37C347.141 354.534 346.99 354.635 346.835 354.635Z" fill="#00A99D"/>
<path d="M332.329 306.939C332.267 306.939 332.2 306.921 332.143 306.89C331.965 306.788 331.903 306.562 332.01 306.385C336.928 297.878 344.721 291.218 355.16 286.588C363.494 282.893 373.521 280.478 384.975 279.41C403.322 277.696 419.543 280.035 421.506 280.336C422.751 279.016 432.291 269.251 447.417 263.265C456.917 259.503 466.735 257.943 476.594 258.621C488.911 259.472 501.326 263.845 513.489 271.617C513.661 271.727 513.71 271.953 513.599 272.126C513.489 272.299 513.258 272.348 513.09 272.237C501.038 264.536 488.747 260.203 476.558 259.357C466.811 258.683 457.107 260.221 447.714 263.938C431.697 270.27 422.011 280.872 421.914 280.979C421.83 281.072 421.706 281.116 421.577 281.094C421.409 281.067 404.408 278.334 385.023 280.146C373.654 281.209 363.707 283.606 355.448 287.266C345.156 291.83 337.482 298.387 332.643 306.752C332.581 306.872 332.453 306.939 332.329 306.939Z" fill="#00A99D"/>
<path d="M501.277 342.677C501.149 342.677 501.029 342.61 500.958 342.495C487.95 320.492 470.909 310.563 458.906 306.11C445.906 301.285 435.871 301.666 435.773 301.67C435.578 301.688 435.397 301.524 435.388 301.316C435.379 301.112 435.538 300.939 435.742 300.93C435.844 300.926 446.03 300.54 459.163 305.414C471.281 309.911 488.477 319.929 501.596 342.118C501.703 342.296 501.641 342.522 501.468 342.624C501.406 342.659 501.34 342.677 501.277 342.677Z" fill="#00A99D"/>
<path d="M363.721 184.094C366.911 177.607 372.166 172.299 378.626 169.043C379.898 168.4 378.781 166.491 377.51 167.129C372.224 169.792 367.674 173.819 364.315 178.693C363.376 180.058 362.543 181.489 361.812 182.973C361.546 183.509 361.665 184.169 362.21 184.488C362.693 184.776 363.455 184.634 363.721 184.094Z" fill="#008880"/>
<path d="M359.499 182.893C360.58 179.659 361.289 176.327 361.665 172.937C361.732 172.344 361.107 171.83 360.558 171.83C359.902 171.83 359.517 172.339 359.45 172.937C359.096 176.123 358.378 179.264 357.363 182.304C357.173 182.871 357.58 183.513 358.139 183.669C358.737 183.832 359.308 183.46 359.499 182.893Z" fill="#008880"/>
<path d="M354.115 180.049C354.51 176.048 354.182 171.994 353.176 168.103C352.822 166.725 350.682 167.31 351.04 168.693C351.997 172.406 352.277 176.234 351.9 180.049C351.842 180.647 352.449 181.156 353.008 181.156C353.659 181.156 354.058 180.647 354.115 180.049Z" fill="#008880"/>
<path d="M290.323 212.217C292.357 207.786 295.578 203.967 299.654 201.282C300.842 200.502 299.73 198.583 298.538 199.368C294.156 202.252 290.602 206.324 288.409 211.096C288.161 211.641 288.254 212.288 288.808 212.611C289.287 212.895 290.071 212.762 290.323 212.217Z" fill="#008880"/>
<path d="M286.11 210.201C286.371 205.819 286.256 201.423 285.764 197.063C285.698 196.47 285.303 195.956 284.656 195.956C284.112 195.956 283.482 196.465 283.549 197.063C284.041 201.423 284.156 205.819 283.894 210.201C283.81 211.627 286.026 211.623 286.11 210.201Z" fill="#008880"/>
<path d="M280.292 209.815C277.953 207.152 275.613 204.489 273.274 201.826C272.879 201.379 272.113 201.423 271.705 201.826C271.258 202.274 271.311 202.943 271.705 203.395C274.045 206.058 276.384 208.721 278.724 211.383C279.118 211.831 279.884 211.787 280.292 211.383C280.74 210.932 280.686 210.262 280.292 209.815Z" fill="#008880"/>
<path d="M275.201 213.134C272.853 211.556 270.252 210.356 267.532 209.576C266.973 209.416 266.3 209.771 266.167 210.351C266.034 210.941 266.344 211.543 266.942 211.716C269.508 212.456 271.843 213.55 274.08 215.052C274.576 215.385 275.308 215.15 275.596 214.653C275.915 214.104 275.697 213.47 275.201 213.134Z" fill="#008880"/>
<path d="M281.515 215.491C282.942 215.491 282.942 213.276 281.515 213.276C280.093 213.276 280.088 215.491 281.515 215.491Z" fill="#008880"/>
<path d="M365.217 257.331C362.993 252.542 362.572 247.008 363.968 241.926C364.344 240.548 362.209 239.963 361.832 241.336C360.272 247.021 360.826 253.113 363.308 258.452C363.56 258.993 364.34 259.13 364.823 258.851C365.377 258.519 365.47 257.876 365.217 257.331Z" fill="#008880"/>
<path d="M356.13 254.066C354.947 250.539 353.764 247.012 352.585 243.485C352.133 242.138 349.993 242.718 350.45 244.074C351.633 247.601 352.816 251.128 353.994 254.655C354.442 256.002 356.582 255.426 356.13 254.066Z" fill="#008880"/>
<path d="M369.413 251.749C370.627 247.291 371.846 242.829 373.06 238.372C373.436 236.994 371.301 236.409 370.924 237.783C369.71 242.24 368.492 246.702 367.277 251.159C366.901 252.537 369.037 253.122 369.413 251.749Z" fill="#008880"/>
<path d="M350.343 253.366C348.589 251.89 346.688 250.592 344.654 249.529C344.14 249.258 343.427 249.382 343.139 249.927C342.869 250.437 342.988 251.155 343.538 251.443C344.499 251.943 345.43 252.493 346.329 253.095C346.768 253.388 347.193 253.689 347.614 254.004C347.72 254.083 347.822 254.163 347.929 254.243C347.804 254.145 347.911 254.23 347.977 254.283C348.03 254.323 348.079 254.362 348.132 254.407C348.349 254.58 348.567 254.757 348.779 254.938C349.222 255.311 349.918 255.404 350.348 254.938C350.72 254.518 350.813 253.76 350.343 253.366Z" fill="#008880"/>
<path d="M174.417 225.89C175.215 221.548 176.792 217.409 179.101 213.643C179.849 212.425 177.931 211.308 177.187 212.527C174.79 216.439 173.11 220.79 172.282 225.305C172.175 225.894 172.441 226.501 173.057 226.67C173.593 226.811 174.311 226.483 174.417 225.89Z" fill="#008880"/>
<path d="M167.669 227.684C164.922 225.549 162.082 223.546 159.131 221.698C158.626 221.379 157.913 221.592 157.616 222.097C157.306 222.629 157.505 223.293 158.015 223.612C160.802 225.358 163.509 227.232 166.105 229.253C166.575 229.621 167.213 229.714 167.674 229.253C168.05 228.867 168.143 228.052 167.669 227.684Z" fill="#008880"/>
<path d="M159.49 229.838C157.098 229.049 154.616 228.575 152.109 228.389C151.528 228.345 150.974 228.929 151.001 229.497C151.028 230.135 151.488 230.56 152.109 230.604C154.386 230.773 156.668 231.233 158.901 231.973C159.45 232.155 160.137 231.765 160.266 231.198C160.403 230.591 160.08 230.033 159.49 229.838Z" fill="#008880"/>
<path d="M169.725 222.695C168.795 219.802 168.414 216.798 168.587 213.763C168.622 213.165 168.055 212.655 167.479 212.655C166.85 212.655 166.407 213.165 166.371 213.763C166.19 216.975 166.606 220.223 167.59 223.285C167.771 223.856 168.356 224.22 168.954 224.06C169.508 223.905 169.907 223.267 169.725 222.695Z" fill="#008880"/>
<path d="M439.566 229.669C441.259 226.918 443.47 224.485 446.062 222.558C446.421 222.292 446.602 221.84 446.359 221.419C446.15 221.065 445.583 220.852 445.22 221.122C442.389 223.222 439.978 225.823 438.126 228.827C437.568 229.745 439.008 230.582 439.566 229.669Z" fill="#008880"/>
<path d="M446.669 228.318C448.552 227.339 450.435 226.36 452.318 225.38C452.717 225.172 452.836 224.618 452.615 224.242C452.38 223.838 451.879 223.737 451.476 223.945C449.593 224.924 447.71 225.903 445.827 226.882C445.428 227.091 445.309 227.644 445.53 228.021C445.769 228.424 446.27 228.526 446.669 228.318Z" fill="#008880"/>
<path d="M453.771 230.529C455.845 229.341 457.564 227.538 458.627 225.398C458.822 225.008 458.743 224.481 458.331 224.259C457.954 224.06 457.4 224.139 457.192 224.556C456.948 225.048 456.669 225.522 456.359 225.974C456.279 226.089 456.195 226.204 456.111 226.315C456.022 226.435 456.133 226.288 456.08 226.359C456.04 226.408 456 226.461 455.96 226.51C455.783 226.727 455.597 226.94 455.406 227.144C455.038 227.533 454.64 227.892 454.223 228.233C454.028 228.393 454.352 228.14 454.148 228.291C454.095 228.331 454.046 228.366 453.993 228.406C453.878 228.49 453.762 228.57 453.647 228.65C453.412 228.805 453.173 228.956 452.929 229.093C452.553 229.31 452.389 229.855 452.633 230.232C452.881 230.613 453.368 230.759 453.771 230.529Z" fill="#008880"/>
<path d="M462.713 232.266C462.677 230.622 463.08 229.062 463.913 227.645C464.135 227.268 464.011 226.719 463.616 226.506C463.218 226.293 462.717 226.404 462.478 226.803C461.512 228.446 461.011 230.352 461.051 232.261C461.06 232.696 461.428 233.112 461.884 233.094C462.323 233.077 462.721 232.731 462.713 232.266Z" fill="#008880"/>
<path d="M466.669 236.75C469.133 234.924 471.592 233.099 474.055 231.278C474.414 231.012 474.596 230.56 474.352 230.139C474.144 229.784 473.577 229.572 473.213 229.842C470.75 231.668 468.291 233.493 465.827 235.314C465.468 235.58 465.287 236.032 465.53 236.453C465.739 236.807 466.306 237.02 466.669 236.75Z" fill="#008880"/>
<path d="M289.744 41.0837C285.474 36.8108 279.69 34.459 273.459 34.459C267.228 34.459 261.444 36.8108 257.174 41.0837L261.235 45.1441C264.422 41.9567 268.761 40.1993 273.459 40.1993C278.157 40.2021 282.496 41.9567 285.683 45.1441L289.744 41.0837Z" fill="#FCFCFC"/>
<path d="M297.686 32.4257C284.557 19.294 262.363 19.294 249.234 32.4257L253.295 36.4861C264.227 25.554 282.694 25.554 293.626 36.4861L297.686 32.4257Z" fill="#FCFCFC"/>
<path d="M273.459 57.4314C276.631 57.4314 279.202 54.8601 279.202 51.6882C279.202 48.5164 276.631 45.9451 273.459 45.9451C270.287 45.9451 267.716 48.5164 267.716 51.6882C267.716 54.8601 270.287 57.4314 273.459 57.4314Z" fill="#FCFCFC"/>
<path d="M285.093 139.839H263.751L266.289 118.611H282.559L285.093 139.839Z" fill="url(#paint0_linear_246_46)"/>
<path d="M288.394 90.6617C284.81 83.8428 274.849 83.989 274.296 84.0023C273.742 83.989 263.781 83.8428 260.197 90.6617C256.511 97.68 261.748 107.733 261.748 107.733H274.242H274.349H286.844C286.844 107.738 292.081 97.68 288.394 90.6617Z" fill="#1B1B1B"/>
<path d="M286.05 104.424V99.191C286.05 97.8042 285.625 96.5104 284.903 95.4426C282.621 96.3775 278.78 96.989 274.424 96.989C270.135 96.989 266.342 96.3952 264.052 95.4825C263.343 96.5415 262.931 97.8175 262.931 99.191V104.455C262.838 104.446 262.745 104.428 262.652 104.428C260.822 104.428 259.337 105.912 259.337 107.742C259.337 109.572 260.822 111.057 262.652 111.057C262.749 111.057 262.838 111.034 262.931 111.03V111.411C262.931 117.796 268.106 122.975 274.495 122.975C280.88 122.975 286.059 117.8 286.059 111.411V111.057C287.889 111.057 289.373 109.572 289.373 107.742C289.365 105.908 287.88 104.424 286.05 104.424Z" fill="url(#paint1_linear_246_46)"/>
<path d="M341.661 170.305L331.346 150.269C324.314 136.609 310.327 128.864 295.936 129.134C294.589 128.917 293.206 128.802 291.793 128.802H254.694C253.294 128.802 251.929 128.917 250.591 129.13C236.377 129.05 222.633 136.773 215.681 150.273L205.367 170.309L231.273 183.646L233.551 238.737C233.617 240.386 234.977 241.688 236.63 241.688H309.857C311.51 241.688 312.865 240.386 312.936 238.737L315.2 183.929L341.661 170.305Z" fill="#CAFFDD" stroke="#F7F7F7" stroke-miterlimit="10"/>
<path d="M231.344 184.119C231.1 184.119 230.901 183.92 230.901 183.676V161.629C230.901 161.385 231.1 161.186 231.344 161.186C231.588 161.186 231.787 161.385 231.787 161.629V183.676C231.787 183.92 231.588 184.119 231.344 184.119Z" fill="#DBDBDB"/>
<path d="M315.55 184.177C315.307 184.177 315.107 183.978 315.107 183.734V160.703C315.107 160.459 315.307 160.26 315.55 160.26C315.794 160.26 315.994 160.459 315.994 160.703V183.734C315.994 183.978 315.794 184.177 315.55 184.177Z" fill="#DBDBDB"/>
<path d="M309.857 241.688H236.63L242.762 285.203H307.212L309.857 241.688Z" fill="#B0D2CF"/>
<path d="M218.083 319.962L207.786 325.638C204.184 326.9 201.326 329.528 199.31 332.767C198.534 334.007 197.289 334.863 195.287 334.251C190.28 332.722 187.958 330.095 182.969 331.584C177.98 333.077 172.003 333.613 168.388 330.888C168.388 330.888 165.339 333.201 162.34 330.064C161.755 329.453 161.954 328.447 162.716 328.083L209.837 305.775L218.083 319.962Z" fill="url(#paint2_linear_246_46)"/>
<path d="M197.768 302.85L214.432 330.525L324.461 281.463C339.924 272.154 345.431 252.938 336.765 238.542C332.033 230.682 321.35 228.432 312.905 233.518L197.768 302.85Z" fill="#B8FFD6"/>
<path d="M204.277 217.789C199.155 215.458 196.762 209.525 198.836 204.293L211.033 173.22L231.34 183.672L218.278 212.476C215.898 217.829 209.611 220.212 204.277 217.789Z" fill="url(#paint3_linear_246_46)"/>
<path d="M207.427 201.156L255.966 219.969L246.027 230.053C246.027 230.053 204.525 230.749 198.184 213.176C198.184 213.176 195.933 208.099 199.646 203.283C201.472 200.921 204.653 200.079 207.427 201.156Z" fill="url(#paint4_linear_246_46)"/>
<path d="M344.106 216.783C349.228 214.452 351.621 208.52 349.547 203.287L337.345 172.219L317.039 182.671L330.101 211.475C332.485 216.827 338.772 219.211 344.106 216.783Z" fill="url(#paint5_linear_246_46)"/>
<path d="M341.767 200.832L290.756 211.209L298.855 222.822C298.855 222.822 339.649 230.487 348.852 214.231C348.852 214.231 351.927 209.605 349.073 204.231C347.678 201.603 344.687 200.239 341.767 200.832Z" fill="url(#paint6_linear_246_46)"/>
<path d="M311.815 247.488H235.203C233.209 247.488 231.557 245.951 231.41 243.966L226.519 177.301C226.359 175.099 228.101 173.22 230.312 173.22H317.815C320.048 173.22 321.802 175.138 321.603 177.363L315.604 244.028C315.426 245.986 313.783 247.488 311.815 247.488Z" fill="#DDDDDD"/>
<path d="M270.716 383.046H238.411L223.679 263.478C223.679 245.427 237.299 230.797 254.1 230.797C263.276 230.797 270.711 238.786 270.711 248.644V383.046H270.716Z" fill="#B8FFD6"/>
<path d="M246.262 383.047H264.694C264.694 383.047 262.483 394.886 264.694 400.539C266.506 405.169 273.263 423.654 275.651 430.185C276.148 431.55 275.519 433.061 274.203 433.677C269.116 436.056 256.923 440.265 251.841 428.931C246.688 417.447 247.636 402.586 248.252 396.906C248.425 395.293 248.238 393.667 247.698 392.139L246.262 383.047Z" fill="url(#paint7_linear_246_46)"/>
<path d="M270.716 435.529C270.538 435.529 270.37 435.422 270.304 435.245L267.72 428.586C267.632 428.36 267.747 428.103 267.973 428.014C268.199 427.926 268.456 428.041 268.545 428.267L271.128 434.926C271.216 435.152 271.101 435.409 270.875 435.498C270.822 435.52 270.769 435.529 270.716 435.529Z" fill="#BCBCBC"/>
<path d="M270.716 306.218C270.472 306.218 270.273 306.018 270.273 305.774V261.259C270.273 261.015 270.472 260.816 270.716 260.816C270.959 260.816 271.159 261.015 271.159 261.259V305.774C271.159 306.018 270.959 306.218 270.716 306.218Z" fill="#F5FAFF"/>
<path d="M231.344 324.37C231.122 324.37 230.932 324.206 230.905 323.985L225.969 285.663C225.938 285.42 226.111 285.198 226.35 285.167C226.59 285.14 226.816 285.309 226.847 285.548L231.783 323.87C231.814 324.113 231.641 324.335 231.402 324.366C231.379 324.37 231.362 324.37 231.344 324.37Z" fill="#F5FAFF"/>
<path d="M288.169 212.632C288.169 215.377 285.881 217.596 283.06 217.596H267.278C264.457 217.596 262.169 215.377 262.169 212.632C262.169 210.162 264.028 208.118 266.472 207.742C266.433 207.567 266.42 207.391 266.42 207.203C266.42 205.473 267.863 204.056 269.657 204.056C270.45 204.056 271.191 204.345 271.75 204.809C272.751 202.615 274.038 200.596 277.652 200.596C282.033 200.596 284.1 203.881 284.1 207.354C284.1 207.491 284.1 207.642 284.087 207.78C285.242 208.013 286.278 208.623 287.021 209.507C287.765 210.39 288.17 211.494 288.169 212.632Z" fill="#FCFCFC"/>
<path d="M281.234 207.56C280.53 207.559 279.833 207.698 279.183 207.966C278.533 208.235 277.942 208.63 277.445 209.127C276.947 209.625 276.553 210.216 276.284 210.866C276.015 211.516 275.877 212.213 275.877 212.916C275.877 212.968 275.877 213.019 275.88 213.069H277.555V213.03C277.555 212.532 277.653 212.038 277.844 211.577C278.034 211.116 278.314 210.698 278.667 210.345C279.019 209.993 279.438 209.713 279.898 209.522C280.359 209.331 280.853 209.233 281.352 209.233H281.366V207.562C281.322 207.561 281.278 207.56 281.234 207.56Z" fill="#DDDDDD"/>
<path d="M277.318 207.022L276.358 205.596C275.179 206.366 274.211 207.417 273.541 208.656C272.871 209.895 272.522 211.281 272.523 212.689C272.523 212.816 272.526 212.943 272.532 213.069H274.206C274.202 212.981 274.2 212.892 274.2 212.802C274.199 211.656 274.484 210.527 275.028 209.518C275.572 208.509 276.359 207.651 277.318 207.022H277.318Z" fill="#DDDDDD"/>
<path d="M269.433 209.988C269.257 210.8 269.168 211.629 269.169 212.461C269.169 212.665 269.174 212.868 269.185 213.069H270.859C270.851 212.905 270.848 212.741 270.848 212.575C270.847 211.847 270.925 211.122 271.081 210.412L269.433 209.988Z" fill="#DDDDDD"/>
<path d="M274.988 214.923L275.539 213.935L275.886 214.923H275.732L275.654 214.698H275.276L275.15 214.923H274.988ZM275.335 214.572H275.613L275.54 214.337C275.537 214.325 275.533 214.31 275.529 214.292C275.525 214.273 275.52 214.249 275.515 214.218C275.505 214.241 275.496 214.262 275.486 214.283C275.477 214.303 275.468 214.321 275.459 214.339L275.335 214.572ZM275.976 214.923L276.041 214.427H275.93L275.945 214.307H276.055L276.077 214.154C276.089 214.06 276.11 213.995 276.141 213.959C276.171 213.922 276.219 213.904 276.283 213.904C276.303 213.904 276.322 213.906 276.34 213.91C276.359 213.914 276.377 213.919 276.394 213.927L276.379 214.048C276.362 214.041 276.348 214.036 276.337 214.033C276.325 214.03 276.314 214.028 276.304 214.028C276.278 214.028 276.258 214.038 276.245 214.057C276.232 214.077 276.222 214.116 276.214 214.176L276.196 214.307H276.322L276.305 214.427H276.181L276.115 214.923H275.976ZM276.787 214.431C276.778 214.424 276.767 214.419 276.756 214.415C276.745 214.411 276.733 214.409 276.721 214.409C276.671 214.409 276.632 214.428 276.603 214.465C276.575 214.501 276.556 214.558 276.546 214.635L276.507 214.923H276.367L276.448 214.307H276.583L276.572 214.387C276.596 214.353 276.623 214.328 276.651 214.311C276.68 214.294 276.712 214.286 276.745 214.286C276.76 214.286 276.775 214.288 276.79 214.292C276.804 214.296 276.819 214.302 276.833 214.31L276.787 214.431ZM276.944 214.092C276.944 214.069 276.952 214.049 276.968 214.033C276.984 214.017 277.004 214.009 277.027 214.009C277.051 214.009 277.07 214.017 277.086 214.033C277.102 214.049 277.11 214.068 277.11 214.092C277.11 214.116 277.102 214.136 277.086 214.152C277.07 214.168 277.051 214.176 277.027 214.176C277.003 214.176 276.983 214.168 276.967 214.152C276.951 214.136 276.944 214.116 276.944 214.092ZM276.851 214.923L276.933 214.307H277.072L276.991 214.923H276.851ZM277.718 214.483C277.69 214.458 277.661 214.44 277.63 214.428C277.6 214.415 277.569 214.408 277.538 214.408C277.475 214.408 277.424 214.43 277.384 214.474C277.344 214.518 277.325 214.576 277.325 214.646C277.325 214.702 277.339 214.745 277.369 214.777C277.398 214.808 277.438 214.824 277.49 214.824C277.521 214.824 277.553 214.819 277.586 214.808C277.619 214.797 277.652 214.781 277.685 214.759L277.656 214.908C277.63 214.921 277.603 214.931 277.575 214.938C277.547 214.945 277.517 214.948 277.486 214.948C277.393 214.948 277.319 214.921 277.263 214.866C277.208 214.811 277.18 214.738 277.18 214.648C277.18 214.541 277.213 214.454 277.28 214.387C277.347 214.32 277.433 214.286 277.539 214.286C277.578 214.286 277.615 214.291 277.649 214.302C277.683 214.312 277.716 214.328 277.747 214.35L277.718 214.483ZM277.954 214.635C277.954 214.693 277.968 214.739 277.995 214.772C278.023 214.805 278.06 214.822 278.109 214.822C278.165 214.822 278.209 214.799 278.241 214.755C278.274 214.71 278.29 214.649 278.29 214.57C278.29 214.517 278.276 214.475 278.247 214.444C278.218 214.412 278.178 214.396 278.129 214.396C278.076 214.396 278.033 214.418 278.002 214.461C277.97 214.503 277.954 214.561 277.954 214.635ZM278.384 214.923H278.245L278.255 214.855C278.231 214.886 278.203 214.909 278.171 214.924C278.14 214.939 278.103 214.947 278.062 214.947C277.982 214.947 277.919 214.922 277.875 214.871C277.831 214.82 277.81 214.748 277.81 214.654C277.81 214.544 277.836 214.455 277.89 214.387C277.944 214.32 278.014 214.286 278.101 214.286C278.142 214.286 278.18 214.295 278.215 214.312C278.251 214.329 278.284 214.355 278.313 214.39L278.326 214.307H278.465L278.384 214.923ZM278.601 214.851C278.601 214.827 278.609 214.807 278.626 214.79C278.642 214.773 278.662 214.764 278.686 214.764C278.71 214.764 278.73 214.773 278.746 214.79C278.763 214.807 278.771 214.827 278.771 214.851C278.771 214.874 278.763 214.894 278.746 214.911C278.73 214.927 278.71 214.935 278.686 214.935C278.662 214.935 278.642 214.927 278.626 214.911C278.609 214.894 278.601 214.874 278.601 214.851ZM278.993 214.851C278.993 214.827 279.001 214.807 279.018 214.79C279.034 214.773 279.054 214.764 279.078 214.764C279.102 214.764 279.122 214.773 279.139 214.79C279.155 214.807 279.163 214.827 279.163 214.851C279.163 214.874 279.155 214.894 279.139 214.911C279.122 214.927 279.102 214.935 279.078 214.935C279.054 214.935 279.034 214.927 279.018 214.911C279.001 214.894 278.993 214.874 278.993 214.851ZM279.385 214.851C279.385 214.827 279.393 214.807 279.41 214.79C279.426 214.773 279.446 214.764 279.47 214.764C279.494 214.764 279.514 214.773 279.531 214.79C279.547 214.807 279.555 214.827 279.555 214.851C279.555 214.874 279.547 214.894 279.531 214.911C279.514 214.927 279.494 214.935 279.47 214.935C279.446 214.935 279.426 214.927 279.41 214.911C279.393 214.894 279.385 214.874 279.385 214.851Z" fill="#DDDDDD"/>
<defs>
<linearGradient id="paint0_linear_246_46" x1="274.424" y1="144.773" x2="274.424" y2="118.475" gradientUnits="userSpaceOnUse">
<stop offset="0.5075" stop-color="#FFACAA"/>
<stop offset="0.8574" stop-color="#FB6B67"/>
</linearGradient>
<linearGradient id="paint1_linear_246_46" x1="274.18" y1="129.346" x2="274.412" y2="99.6873" gradientUnits="userSpaceOnUse">
<stop offset="0.4185" stop-color="#FFACAA"/>
<stop offset="0.5497" stop-color="#FFA7A6"/>
<stop offset="0.7018" stop-color="#FE9A98"/>
<stop offset="0.8636" stop-color="#FC8480"/>
<stop offset="1" stop-color="#FB6B67"/>
</linearGradient>
<linearGradient id="paint2_linear_246_46" x1="153.94" y1="341.918" x2="221.86" y2="312.046" gradientUnits="userSpaceOnUse">
<stop offset="0.3006" stop-color="#FFACAC"/>
<stop offset="0.3915" stop-color="#FEA5A5"/>
<stop offset="0.5231" stop-color="#FD9391"/>
<stop offset="0.679" stop-color="#FB7672"/>
<stop offset="0.7388" stop-color="#FA6964"/>
</linearGradient>
<linearGradient id="paint3_linear_246_46" x1="201.061" y1="232.24" x2="224.381" y2="168.639" gradientUnits="userSpaceOnUse">
<stop offset="0.5248" stop-color="#FFACAA"/>
<stop offset="0.6158" stop-color="#FFA7A5"/>
<stop offset="0.7275" stop-color="#FE9896"/>
<stop offset="0.8494" stop-color="#FC817D"/>
<stop offset="0.937" stop-color="#FB6B67"/>
</linearGradient>
<linearGradient id="paint4_linear_246_46" x1="266.831" y1="231.321" x2="181.868" y2="204.123" gradientUnits="userSpaceOnUse">
<stop offset="0.5248" stop-color="#FFACAA"/>
<stop offset="0.6158" stop-color="#FFA7A5"/>
<stop offset="0.7275" stop-color="#FE9896"/>
<stop offset="0.8494" stop-color="#FC817D"/>
<stop offset="0.937" stop-color="#FB6B67"/>
</linearGradient>
<linearGradient id="paint5_linear_246_46" x1="347.32" y1="231.237" x2="324" y2="167.636" gradientUnits="userSpaceOnUse">
<stop offset="0.5248" stop-color="#FFACAA"/>
<stop offset="0.6158" stop-color="#FFA7A5"/>
<stop offset="0.7275" stop-color="#FE9896"/>
<stop offset="0.8494" stop-color="#FC817D"/>
<stop offset="0.937" stop-color="#FB6B67"/>
</linearGradient>
<linearGradient id="paint6_linear_246_46" x1="278.14" y1="220.577" x2="366.467" y2="208.056" gradientUnits="userSpaceOnUse">
<stop offset="0.5248" stop-color="#FFACAA"/>
<stop offset="0.6158" stop-color="#FFA7A5"/>
<stop offset="0.7275" stop-color="#FE9896"/>
<stop offset="0.8494" stop-color="#FC817D"/>
<stop offset="0.937" stop-color="#FB6B67"/>
</linearGradient>
<linearGradient id="paint7_linear_246_46" x1="269.465" y1="461.186" x2="252.606" y2="375.489" gradientUnits="userSpaceOnUse">
<stop offset="0.3006" stop-color="#FFACAC"/>
<stop offset="0.3915" stop-color="#FEA5A5"/>
<stop offset="0.5231" stop-color="#FD9391"/>
<stop offset="0.679" stop-color="#FB7672"/>
<stop offset="0.7388" stop-color="#FA6964"/>
</linearGradient>
</defs>
</svg>
