<svg xmlns="http://www.w3.org/2000/svg" viewBox="0 0 34.37 21.06"><defs><style>.cls-1{fill:#00a99d;}</style></defs><title>icoAsset 2</title><g id="Layer_2" data-name="Layer 2"><g id="Layer_1-2" data-name="Layer 1"><path class="cls-1" d="M34,5.53A15.13,15.13,0,0,0,19.3,17.15a15.34,15.34,0,0,0-.4,3.48c0,.14,0,.28,0,.43h4.72V21a10.69,10.69,0,0,1,10.7-10.7h0V5.54Z"/><path class="cls-1" d="M23,4l-2.7-4A23.91,23.91,0,0,0,10,14.76,24.27,24.27,0,0,0,9.45,20c0,.36,0,.72,0,1.08h4.72c0-.25,0-.5,0-.76A20,20,0,0,1,14.66,16,19.52,19.52,0,0,1,23,4Z"/><path class="cls-1" d="M.74,12.37a33.37,33.37,0,0,0-.74,7c0,.58,0,1.15,0,1.72H4.76c0-.46,0-.93,0-1.4a28.41,28.41,0,0,1,.65-6.09Z"/></g></g></svg>