<svg xmlns="http://www.w3.org/2000/svg" viewBox="0 0 165.72 101.54"><defs><style>.cls-1{fill:#00a99d;}</style></defs><title>icoAsset 6</title><g id="Layer_2" data-name="Layer 2"><g id="Layer_1-2" data-name="Layer 1"><path class="cls-1" d="M163.92,26.68A72.69,72.69,0,0,0,91.15,99.45c0,.7,0,1.39,0,2.09h22.75V101a51.5,51.5,0,0,1,22.9-42.88,51.33,51.33,0,0,1,28.69-8.71h.2V26.71Q164.82,26.68,163.92,26.68Z"/><path class="cls-1" d="M110.72,19.37,97.67,0a115,115,0,0,0-52.1,96.36c0,1.73,0,3.46.12,5.18H68.43c-.05-1.21-.07-2.42-.07-3.63a93.8,93.8,0,0,1,42.36-78.54Z"/><path class="cls-1" d="M3.59,59.67A158.13,158.13,0,0,0,0,93.26q0,4.17.21,8.28H23q-.16-3.35-.16-6.73A136.85,136.85,0,0,1,26,65.42Z"/></g></g></svg>