<svg xmlns="http://www.w3.org/2000/svg" viewBox="0 0 292.22 70.66"><defs><style>.cls-1{fill:#696a69;}.cls-2{fill:#6a6c6b;}.cls-3{fill:#f7f7f7;}</style></defs><title>icoAsset 18</title><g id="Layer_2" data-name="Layer 2"><g id="Layer_1-2" data-name="Layer 1"><path class="cls-1" d="M284.51,69.58c-5.3,0-10.59,0-15.88,0-.91,0-1.1-.58-1.38-1.19-1.49-3.34-3-6.67-4.45-10-.42-1-.78-1.08-1.7-.47a6.25,6.25,0,0,0-3.18,4.58,49.92,49.92,0,0,1-1.44,5.85c-.16.61-.2,1.28-1.2,1.27-4.88,0-9.75,0-14.8,0,1.6-6.48,3.17-12.8,4.74-19.12,2.19-8.81,4.42-17.62,6.55-26.44.31-1.3.8-1.76,2.17-1.73,4.15.1,8.3.09,12.45,0,1.3,0,1.49.34,1.19,1.53-1.7,6.68-3.32,13.37-5,20.06a1.34,1.34,0,0,0,.06,1.21c3.29-2.84,6.6-5.61,9.79-8.51a5,5,0,0,1,3.76-1.41c5.3.08,10.61,0,16,0,0,.82-.7,1-1.12,1.31C286,40.34,281,44.19,275.83,47.9c-1.3.93-1.32,1.6-.62,2.93,3,5.6,5.81,11.28,8.68,16.93A3,3,0,0,1,284.51,69.58Z"/><path class="cls-2" d="M61.14,27.73q-7,9.48-14,19C42,53.58,36.91,60.43,32,67.39a4.78,4.78,0,0,1-4.48,2.28c-2,0-2.75-.52-3.17-2.56-2.62-13-5.41-26-8.15-39-.11-.53-.07-1.1-.64-1.58C13.41,35.05,11.3,43.54,9.2,52,7.9,57.31,6.55,62.56,5.35,67.85,5,69.29,4.41,69.66,3,69.62c-3.39-.1-3.39,0-2.54-3.29Q6,45.27,11.43,24.21c.36-1.4.85-2.09,2.43-1.91a25.83,25.83,0,0,0,4.57,0c1.1-.08,1.49.36,1.69,1.36q3.66,17.82,7.37,35.64c.35,1.67.71,3.33,1.07,5,.88-.29,1.12-1,1.53-1.59Q44.36,43.36,58.57,23.93A3.16,3.16,0,0,1,61.7,22.3a22.77,22.77,0,0,0,4.21,0c1.57-.14,1.62.41,1.27,1.76C63.75,37.22,60.4,50.4,57,63.56c-.15.59-.32,1.18-.47,1.77C55.34,70,55.34,70,50.24,69.44Q55.85,48.7,61.45,28l0-.42Z"/><path class="cls-1" d="M197.83,35.45c-7.56,0-15.13-.05-22.7,0-1.53,0-1.69-.42-1.33-1.75.89-3.29,1.7-6.6,2.48-9.93.23-1,.55-1.52,1.77-1.51q23,.07,45.95,0c1.24,0,1.57.23,1.2,1.53-.93,3.34-1.76,6.72-2.51,10.1-.26,1.21-.8,1.53-2,1.53-7.63,0-15.26,0-22.89,0Z"/><path class="cls-1" d="M189.38,69.58c-2.44,0-4.88,0-7.32,0-.92,0-1.46,0-1.13-1.27,2.18-8.5,4.27-17,6.35-25.54a1.19,1.19,0,0,1,1.38-1.07q7.6,0,15.2,0c.95,0,1.12.29.89,1.19q-3.24,12.75-6.38,25.53c-.25,1-.78,1.18-1.66,1.17C194.27,69.56,191.82,69.58,189.38,69.58Z"/><path class="cls-2" d="M174.28,48.86c-.62,8.53-4,15.42-12,19.37a23.62,23.62,0,0,1-16.77,1.59c-7.39-1.9-11.24-8-10.2-15.9,2.34-17.73,19.74-22.21,30.59-18.09C171.62,38,174.64,42.76,174.28,48.86ZM152,67.05a14.78,14.78,0,0,0,9.78-3,19.2,19.2,0,0,0,7.45-16.17A9.5,9.5,0,0,0,162,38.58a16.59,16.59,0,0,0-8-.31C145.34,40,139.28,48.82,140.39,58a9.41,9.41,0,0,0,6.63,8.2A13.43,13.43,0,0,0,152,67.05Z"/><path class="cls-1" d="M232.89,41.72c2.25,0,4.51,0,6.77,0,.86,0,1.15.12.9,1.11q-3.23,12.84-6.34,25.72a1.2,1.2,0,0,1-1.4,1c-4.4,0-8.79-.06-13.18,0-1.63,0-1.21-.81-1-1.73,2-7.86,4-15.71,5.79-23.6.46-2,1.15-2.89,3.32-2.6A38,38,0,0,0,232.89,41.72Z"/><path class="cls-2" d="M109.11,69.58c-1.46,0-2.91,0-4.36,0-.89,0-1.09-.64-1.42-1.2-3.1-5.25-6.25-10.48-9.28-15.78-.76-1.34-1.33-1.33-2.45-.48-2.34,1.76-5.4,3-7,5.22s-1.7,5.53-2.45,8.36c-.05.17-.07.36-.11.53-.89,3.48-.89,3.43-4.55,3.37-1.18,0-1.23-.37-1-1.38,2-7.55,3.87-15.12,5.8-22.68.72-2.84,1.52-5.66,2.14-8.52.27-1.28.81-1.63,2.08-1.6,3.31.08,3.32,0,2.52,3.17-1,4-2.06,8-3.09,12-.1.4-.34.79,0,1.33l13.07-9.07c2.76-1.92,5.58-3.76,8.25-5.79a7.17,7.17,0,0,1,5.38-1.68,35.77,35.77,0,0,0,3.66,0c-1.33.93-2.24,1.57-3.16,2.2-4.9,3.33-9.77,6.7-14.72,9.94-1.25.82-1.19,1.42-.51,2.56,3.5,5.8,6.93,11.64,10.36,17.48A3.2,3.2,0,0,1,109.11,69.58Z"/><path class="cls-2" d="M122.2,42.23c1-.21,1.23-.86,1.6-1.3,3.77-4.57,8.72-6.21,14.48-5.93,1,0,1.19.43,1,1.36-.6,2.8-.57,2.81-3.31,2.8-7.49,0-13.12,4-15.35,11.44-1.68,5.59-3,11.29-4.42,17-.38,1.56-1,2.34-2.67,2a19.79,19.79,0,0,0-2.9,0l4.46-17.33c1.28-4.95,2.63-9.89,3.78-14.87.37-1.58,1-2.14,2.59-1.93a20,20,0,0,0,2.46,0Zm.16.41-.09-.12-.11.11.15.12Z"/><path class="cls-2" d="M234.47,35.45c-2.13,0-4.26,0-6.39,0-1.14,0-1.35-.36-1.08-1.4.92-3.47,1.81-6.95,2.63-10.44a1.45,1.45,0,0,1,1.72-1.33c4.33.06,8.65.05,13,0,1.07,0,1.35.2,1,1.34-1,3.45-1.82,6.94-2.61,10.44-.24,1-.66,1.4-1.71,1.37-2.19-.06-4.38,0-6.58,0Z"/><path class="cls-2" d="M66.83,69.59c-.72,0-1,0-1.33,0-1.31.18-1.54-.33-1.21-1.55,1.27-4.7,2.46-9.43,3.68-14.15,1.4-5.43,2.87-10.84,4.17-16.3.39-1.64,1-2.28,2.76-2.17,2.78.19,2.8,0,2.1,2.78-2.49,9.68-5,19.35-7.45,29C69.1,69.06,68.56,70.27,66.83,69.59Z"/><path class="cls-2" d="M100.16,29.11c-5.68,3-15.39,1.68-22-4.33C71.06,18.27,69.4,8,72,2.25A28.57,28.57,0,0,0,100.16,29.11Z"/><path class="cls-2" d="M102.16,21.59c-6.3,2.07-12,1.05-17-3.12C79.44,13.63,77.78,7.33,79.42,0,81.61,12.87,88.74,20.51,102.16,21.59Z"/><path class="cls-3" d="M61.14,27.73l.34-.16,0,.42Z"/><path class="cls-3" d="M122.36,42.64l0,.11-.15-.12.11-.11Z"/></g></g></svg>