<svg xmlns="http://www.w3.org/2000/svg" viewBox="0 0 230.55 43.72"><defs><style>.cls-1{fill:#acacac;}</style></defs><title>icoAsset 40</title><g id="Layer_2" data-name="Layer 2"><g id="Layer_1-2" data-name="Layer 1"><path class="cls-1" d="M0,13.64c.14,0,.16-.17.2-.29a2.13,2.13,0,0,1,.64-1,2.22,2.22,0,0,1,1.46-.62H42.35a2.28,2.28,0,0,1,2.22,2.18c0,.51,0,1,0,1.53v2.78a2.22,2.22,0,0,1-.41,1.35,2.3,2.3,0,0,1-1.85,1H2.78a3.54,3.54,0,0,1-.92-.07A2.29,2.29,0,0,1,.25,19c0-.09-.06-.18-.09-.27A.24.24,0,0,0,0,18.56Z"/><path class="cls-1" d="M40.28,0c.07.14.21.12.32.15a2.33,2.33,0,0,1,1.58,1.68,1.71,1.71,0,0,1,.06.5c0,1.44,0,2.88,0,4.32A2.33,2.33,0,0,1,40,8.91H2.37A2.36,2.36,0,0,1,.26,7.42c0-.1-.06-.21-.1-.31A.2.2,0,0,0,0,7V2c.13-.05.16-.17.19-.29A2.32,2.32,0,0,1,1.85.13c.1,0,.23,0,.28-.13Z"/><path class="cls-1" d="M0,25.25a.32.32,0,0,0,.18-.2,2.31,2.31,0,0,1,.19-.52,2.24,2.24,0,0,1,2-1.24H40a2.3,2.3,0,0,1,2.2,2.21q0,2.2,0,4.41a2.3,2.3,0,0,1-2.15,2.21H2.77a3.22,3.22,0,0,1-.92-.08A2.29,2.29,0,0,1,.24,30.58c0-.08,0-.17-.08-.26A.22.22,0,0,0,0,30.17Z"/><path d="M230.55,31.37l0,0a.93.93,0,0,1-1,.72h-.42c-1.39,0-2.79,0-4.18,0a1.85,1.85,0,0,1-1.73-.93c-1.52-2.32-3.05-4.62-4.57-6.93l-.16-.23a.31.31,0,0,0-.3-.17c-.26,0-.53,0-.79,0-.11,0-.18.05-.18.17s0,.24,0,.37v6.31c0,.15,0,.31,0,.46a1.06,1.06,0,0,1-1,.94h-4.41a1.1,1.1,0,0,1-1-1c0-.12,0-.25,0-.37V4.25c0-.11,0-.22,0-.33a1.09,1.09,0,0,1,.81-1,1.75,1.75,0,0,1,.51-.07H216a1.84,1.84,0,0,1,.41,0,1,1,0,0,1,.86,1c0,.15,0,.31,0,.46V18.06c0,.14,0,.28,0,.42s.07.16.18.16h.83a2.63,2.63,0,0,0,.49-.61q2.06-2.84,4.1-5.68a1.56,1.56,0,0,1,1.21-.68h4.36l.42,0a1,1,0,0,1,.84,1.31,2.08,2.08,0,0,1-.38.68l-3,4-2.18,2.83-.16.23a.14.14,0,0,0,0,.17l.21.31q3,4.29,5.92,8.59a3.22,3.22,0,0,1,.53,1Z"/><path class="cls-1" d="M0,36.85a.3.3,0,0,0,.19-.24,2.14,2.14,0,0,1,.38-.79,2.27,2.27,0,0,1,1.79-.92H23.24a2.83,2.83,0,0,1,1,.1,2.3,2.3,0,0,1,1.62,1.86,2.88,2.88,0,0,1,.06.59c0,1.27,0,2.54,0,3.81a2.67,2.67,0,0,1-.21,1.08,2.31,2.31,0,0,1-1.22,1.22c-.1.05-.24.05-.32.17H1.86c-.1-.12-.25-.12-.37-.18a2.33,2.33,0,0,1-1.08-1A3.32,3.32,0,0,1,.19,42c0-.11-.08-.2-.19-.24Z"/><path d="M65.29,13.2c.13,0,.17-.06.23-.11a7.22,7.22,0,0,1,3.9-1.88,9.71,9.71,0,0,1,8.07,2.28,10,10,0,0,1,3.23,5.35,12.35,12.35,0,0,1-.08,6.33A9.91,9.91,0,0,1,70.55,32.7a9.82,9.82,0,0,1-3.08-.62,5.47,5.47,0,0,1-1.89-1.14l-.15-.11-.07,0a3,3,0,0,0,0,.43V40A1.06,1.06,0,0,1,64.28,41H62.15c-.68,0-1.37,0-2,0a1.1,1.1,0,0,1-1.16-1.16c0-.11,0-.22,0-.33V13.15c0-.14,0-.28,0-.42A1.13,1.13,0,0,1,60,11.66H64.2a1.07,1.07,0,0,1,1.06,1C65.28,12.85,65.28,13,65.29,13.2Zm0,8.71a6.89,6.89,0,0,0,.09,1,4.67,4.67,0,0,0,4.82,3.83,4.42,4.42,0,0,0,2.88-1.22,4.78,4.78,0,0,0,1.48-3,4.84,4.84,0,0,0-1.14-3.84,4.36,4.36,0,0,0-3.93-1.56,4.73,4.73,0,0,0-4.2,4.8Z"/><path d="M115.55,32.16a1.44,1.44,0,0,0-.41,0h-1.86a1.33,1.33,0,0,1-1.45-1c-.39-1.14-.76-2.28-1.14-3.43L107.36,17.6l-1.35-4a2.31,2.31,0,0,1-.12-1,.9.9,0,0,1,.82-.86,4,4,0,0,1,.6,0h4.37a1.24,1.24,0,0,1,1.44,1.07c.23.76.44,1.51.66,2.27q1.45,5,2.9,10c.13.42.13.42.56.42h.14c.23,0,.24,0,.31-.26.56-2.05,1.11-4.11,1.67-6.17s1.11-4.08,1.66-6.12a2.58,2.58,0,0,1,.14-.39,1.24,1.24,0,0,1,1.17-.77h4.45l.42,0a1,1,0,0,1,1,1.17,2.41,2.41,0,0,1-.15.63q-.75,2.47-1.53,5l-5.16,16.63A11.45,11.45,0,0,1,120,38a7.57,7.57,0,0,1-5.8,3.64,10.68,10.68,0,0,1-2.59,0,8.73,8.73,0,0,1-4.48-1.74,4.5,4.5,0,0,1-.52-.46,1.14,1.14,0,0,1-.28-1.15,2.29,2.29,0,0,1,.3-.63c.49-.71,1-1.43,1.48-2.14a3.11,3.11,0,0,1,.23-.28,1.14,1.14,0,0,1,1.06-.34,2.06,2.06,0,0,1,.89.37,5.48,5.48,0,0,0,1,.6,2.92,2.92,0,0,0,1.49.25,2.23,2.23,0,0,0,1.65-1,3,3,0,0,0,.32-.61l.72-2A.32.32,0,0,0,115.55,32.16Z"/><path d="M98.18,13.13a1,1,0,0,0,0-.34,1.17,1.17,0,0,1,1.17-1.14h4a1.11,1.11,0,0,1,1.18,1.16V31.1a1.1,1.1,0,0,1-1.06,1H99.36A1.12,1.12,0,0,1,98.21,31v-.32c-.09,0-.13,0-.17.05a6.75,6.75,0,0,1-3.86,1.86,9.73,9.73,0,0,1-7.48-1.87,10.44,10.44,0,0,1-4-6.37,11.76,11.76,0,0,1-.17-3.88A10.39,10.39,0,0,1,87,12.85a9.66,9.66,0,0,1,4.41-1.69,8.83,8.83,0,0,1,4.08.35A6.35,6.35,0,0,1,98,13S98.08,13.14,98.18,13.13Zm0,8.78a4.32,4.32,0,0,0-.2-1.47,4.47,4.47,0,0,0-3.83-3.31,4.34,4.34,0,0,0-4.47,2.11,4.89,4.89,0,0,0-.38,4.62,4.56,4.56,0,0,0,7.53,1.49A4.79,4.79,0,0,0,98.21,21.91Z"/><path d="M180.33,13.15v-.44a1.13,1.13,0,0,1,1-1.05h4.26a1.08,1.08,0,0,1,1,1,3.54,3.54,0,0,1,0,.46v18a1.08,1.08,0,0,1-1.09,1.08c-.19,0-.38,0-.56,0h-3.67a1.08,1.08,0,0,1-1-1.05c0-.08,0-.15,0-.23v-.16c-.09-.06-.14,0-.18,0a6.68,6.68,0,0,1-3.9,1.86,9.72,9.72,0,0,1-7.88-2.21,10.32,10.32,0,0,1-3.48-5.67,11.57,11.57,0,0,1,.15-6.23,10.08,10.08,0,0,1,7-7,9.35,9.35,0,0,1,4.95-.15,6.49,6.49,0,0,1,3.1,1.67.81.81,0,0,0,.14.12Zm-4.9,13.6a4.59,4.59,0,0,0,3.65-1.53,5,5,0,0,0,.59-5.79,4.56,4.56,0,0,0-8,.09,4.82,4.82,0,0,0,0,4.83A4.37,4.37,0,0,0,175.43,26.75Z"/><path d="M137.5,11.07a14.24,14.24,0,0,1,4.27.63,13.48,13.48,0,0,1,3.08,1.49,5.65,5.65,0,0,1,.73.56,1.32,1.32,0,0,1,.18,1.91l-.14.18-1.5,1.7-.13.14a1.45,1.45,0,0,1-1.45.38,2.92,2.92,0,0,1-.84-.39,13.12,13.12,0,0,0-2-1,6,6,0,0,0-2.48-.48,4.06,4.06,0,0,0-1.15.18,1.92,1.92,0,0,0-.76.43.85.85,0,0,0-.06,1.24,1.76,1.76,0,0,0,.69.45,7.5,7.5,0,0,0,1.39.37c1.24.25,2.48.48,3.72.75a9.51,9.51,0,0,1,2.14.74,6.1,6.1,0,0,1,2.72,2.38,5.22,5.22,0,0,1,.72,2.27,6.57,6.57,0,0,1-.25,2.61,6.28,6.28,0,0,1-2.35,3.2,9.62,9.62,0,0,1-3.61,1.6,15,15,0,0,1-3.6.31,13.32,13.32,0,0,1-6-1.53,9,9,0,0,1-1.7-1.1,4.21,4.21,0,0,1-.76-.82,1.59,1.59,0,0,1,.23-2.14,2.5,2.5,0,0,1,.24-.22l1.7-1.29a2.22,2.22,0,0,1,.59-.36,1.25,1.25,0,0,1,.95,0,3.2,3.2,0,0,1,.9.55,9.44,9.44,0,0,0,2,1.28,5.87,5.87,0,0,0,3.57.5,2,2,0,0,0,1.25-.65,1,1,0,0,0,.23-1,.94.94,0,0,0-.45-.51,4,4,0,0,0-.77-.32,18.09,18.09,0,0,0-1.93-.47c-1-.22-2.06-.42-3.08-.66a7.76,7.76,0,0,1-3.39-1.63A5.29,5.29,0,0,1,128.63,19a6.15,6.15,0,0,1,2.65-6.17,9,9,0,0,1,3.12-1.37A13,13,0,0,1,137.5,11.07Z"/><path d="M199.78,32.7a11,11,0,0,1-7.32-2.5A10.18,10.18,0,0,1,188.78,24a10.81,10.81,0,0,1,1.1-7.23A10.4,10.4,0,0,1,195.11,12a10.77,10.77,0,0,1,3.72-.88,11.87,11.87,0,0,1,4.7.59,10.31,10.31,0,0,1,4.89,3.54c.12.16.23.32.34.49a1.36,1.36,0,0,1-.26,1.88c-.91.73-1.84,1.41-2.78,2.1a1.11,1.11,0,0,1-1.34,0,2.55,2.55,0,0,1-.63-.55,10.41,10.41,0,0,0-1.06-1,4.32,4.32,0,0,0-3-1.07,4.54,4.54,0,0,0-3.6,1.71,4.59,4.59,0,0,0-1,2.5,5.18,5.18,0,0,0,.18,2.11,4.44,4.44,0,0,0,3.31,3.19,4.93,4.93,0,0,0,2.61-.09,3.33,3.33,0,0,0,.91-.44,7.55,7.55,0,0,0,1.55-1.38,3.29,3.29,0,0,1,.58-.54,1.2,1.2,0,0,1,1.58,0c.29.2.57.42.86.64l1.59,1.2a2,2,0,0,1,.61.74,1.25,1.25,0,0,1,0,1.2,3.73,3.73,0,0,1-.25.39,10.41,10.41,0,0,1-6.07,4.07A11.34,11.34,0,0,1,199.78,32.7Z"/><path d="M157.43,21.05v3.43a3.47,3.47,0,0,0,.08.79,1.54,1.54,0,0,0,1.47,1.3,3.08,3.08,0,0,0,1.61-.36l.48-.28a1.85,1.85,0,0,1,.79-.23,1.14,1.14,0,0,1,.9.41,1.59,1.59,0,0,1,.18.27c.47.73.93,1.46,1.38,2.2a1.53,1.53,0,0,1,.26.69,1.45,1.45,0,0,1-.46,1.17,5.23,5.23,0,0,1-.88.74,7.86,7.86,0,0,1-2.63,1.12,10,10,0,0,1-3.22.26,7.71,7.71,0,0,1-3.44-1,5.92,5.92,0,0,1-2.86-4.24A8,8,0,0,1,151,26c0-2.79,0-5.57,0-8.36,0-.61.08-.55-.53-.55h-1.67a1.16,1.16,0,0,1-1.3-1.28V12.91a1.29,1.29,0,0,1,.15-.67,1,1,0,0,1,.89-.58h2.23c.21,0,.23,0,.23-.24,0-1.21,0-2.42,0-3.62,0-.41,0-.81,0-1.21a1.12,1.12,0,0,1,1.12-1.12h2.73c.52,0,1,0,1.54,0a1.07,1.07,0,0,1,1,.76,2.07,2.07,0,0,1,.05.5v4.6c0,.32,0,.32.34.32h4.78a3,3,0,0,1,.42,0,1.16,1.16,0,0,1,1,1.13c0,.4,0,.8,0,1.2,0,.61,0,1.21,0,1.81a1.2,1.2,0,0,1-1.3,1.3h-5.11a.16.16,0,0,0-.16.18v3.76Z"/></g></g></svg>