<svg xmlns="http://www.w3.org/2000/svg" viewBox="0 0 192.33 53.01"><defs><style>.cls-1{fill:#2e2e2e;}.cls-2{fill:#757575;}.cls-3{fill:#999;}.cls-4{fill:#c1c1c1;}</style></defs><title>icoAsset 39</title><g id="Layer_2" data-name="Layer 2"><g id="Layer_1-2" data-name="Layer 1"><path class="cls-1" d="M152.11,37.24c-8.84,6-16.3,4.68-19.65-3.41-4.37-10.56,1.93-21,12.1-19.86a11.55,11.55,0,0,1,4.17,1.39c1.57.86,2.81,4.13,4.43-.19.34-.9,3.54-1.18,3.49,2-.12,8.81.1,17.63-.37,26.41-.28,5.42-3.56,8.11-9.45,9.22-5.49,1-11.59-1.09-13.61-5-.61-1.19-2.53-2.94-.12-4.19,1.9-1,3.23-1.06,4.18,1.87,1.21,3.76,5,3.86,8.45,3.53,3-.29,5.37-1.69,6.18-4.85C152.49,41.84,153,39.57,152.11,37.24ZM135.87,27.18c-.05,6.18,2.84,9.69,8,9.81s8.67-3.67,8.65-9.4S149,18,144,18,135.92,21.31,135.87,27.18Z"/><path class="cls-1" d="M78.2,37.81c0,4.14.06,7.94,0,11.75,0,1.45.8,3.54-2.1,3.44-2.38-.08-2-1.7-2-3.15q0-16.18,0-32.39c0-.76-.41-1.91.61-2.11s2.31-.48,2.72.59c1.07,2.75,2,1.69,3.46.31,3.11-2.9,7-3.09,10.71-1.72,5.1,1.85,7.29,6,7.59,11.2C99.46,31.45,98.83,37,93.2,40c-4.59,2.44-9.3,2.05-13.31-1.76C79.7,38,79.31,38.07,78.2,37.81ZM94.86,28c0-6.32-3.15-10-8.46-9.92-5.08.08-8.43,4-8.33,9.68s3.57,9.35,8.72,9.33S94.85,33.77,94.86,28Z"/><path class="cls-1" d="M181.65,37.06c-6.48,5.6-13.56,5.57-17.81.23-4.9-6.18-3.72-17.56,2.26-21.6a11.72,11.72,0,0,1,13.45.71c1.27,1,2.2,2.51,2.45-.6.11-1.37,1.52-.9,2.43-.94,1.35-.07,1.6.82,1.6,1.94,0,7.15,0,14.3,0,21.45,0,1.49-.55,1.92-2,2C181.62,40.49,182,38.75,181.65,37.06Zm.26-8.81c.11-6.2-3.14-10.19-8.32-10.22-4.92,0-8.21,3.64-8.25,9.2-.05,6.07,2.95,9.67,8.13,9.78C178.81,37.13,181.8,34,181.91,28.25Z"/><path class="cls-1" d="M122.78,37c-6.72,5.63-13.74,5.62-18,.35C100.08,31.41,101,20.23,106.59,16c3.81-2.89,9.85-2.76,13.92.32.95.72,2.06,3.24,2.44-.4.18-1.69,1.81-1.11,2.83-1,1.77.21,1.19,1.73,1.19,2.76.06,6.49.07,13,0,19.46,0,1.11.84,2.78-1.36,3.11S122.47,39.4,122.78,37Zm.08-9c.06-6-3-9.83-8-10-5.13-.19-8.61,3.6-8.63,9.4S109.42,37,114.63,37,122.81,33.86,122.86,28Z"/><path class="cls-2" d="M30.77,15.05A7.3,7.3,0,0,1,23.6,7.24,7.42,7.42,0,0,1,30.9,0a7.68,7.68,0,0,1,7.56,7.61A7.57,7.57,0,0,1,30.77,15.05Z"/><path class="cls-2" d="M41.84,33.3a7.4,7.4,0,0,1,7.21,7.84,7,7,0,0,1-7.29,7.07,7.48,7.48,0,0,1-7.67-7.42A7.83,7.83,0,0,1,41.84,33.3Z"/><path class="cls-2" d="M15,33.78a7.19,7.19,0,0,1-7.56,7.37A7.51,7.51,0,0,1,0,34a8,8,0,0,1,7.49-7.8A7.51,7.51,0,0,1,15,33.78Z"/><path class="cls-3" d="M48.81,16.53c-.55,2.94-2,4.9-5.26,4.72-2.94-.16-4.65-1.94-4.61-4.75.05-3.09,2-4.8,5.15-4.71C47.09,11.87,48.39,13.79,48.81,16.53Z"/><path class="cls-3" d="M32.62,47.51c-.71,2.83-2.19,4.87-5.42,4.52-2.85-.3-4.48-2.05-4.31-5,.19-3.18,2.3-4.77,5.26-4.59S32.34,44.74,32.62,47.51Z"/><path class="cls-3" d="M13.49,18.41c-.32,2.7-1.5,4.7-4.59,4.82s-4.82-1.31-5-4.28c-.23-3.18,1.42-5,4.66-5.15C11.56,13.71,13,15.53,13.49,18.41Z"/><path class="cls-4" d="M50.55,27.77c-.49,1.88-1.49,3.38-3.69,3.2s-3.21-1.62-3-3.74a3.15,3.15,0,0,1,3.3-3.05C49.21,24.2,50.3,25.65,50.55,27.77Z"/><path class="cls-4" d="M19.44,44.28c-.12,2.07-1.17,3.54-3.25,3.65a3.07,3.07,0,0,1-3.35-3c-.25-2.12.73-3.64,2.86-3.87S19,42.24,19.44,44.28Z"/><path class="cls-4" d="M16.73,6.76c2,.08,3.29,1,3.28,3.28a2.82,2.82,0,0,1-3,3.12,2.93,2.93,0,0,1-3.39-3.23C13.63,8,14.71,7,16.73,6.76Z"/><path class="cls-1" d="M191.3,16.17l.59-.63a5.13,5.13,0,0,1,.44.7c0,.06-.24.34-.3.32A4.28,4.28,0,0,1,191.3,16.17Z"/></g></g></svg>