<svg xmlns="http://www.w3.org/2000/svg" viewBox="0 0 171.2 83.96"><title>icoAsset 22</title><g id="Layer_2" data-name="Layer 2"><g id="Layer_1-2" data-name="Layer 1"><path d="M.48,65.75c.69-.74,1.37-1.53,2.11-2.24A179.15,179.15,0,0,1,32,40.71a228.46,228.46,0,0,1,24.5-13.34A262.38,262.38,0,0,1,87,15.34a285.18,285.18,0,0,1,28.28-7.67c5-1.07,10-2,15-2.95,3.95-.72,7.93-1.3,11.92-1.85s7.74-1,11.63-1.44c3.39-.37,6.8-.65,10.21-.94,2.29-.19,4.58-.33,6.87-.49a.56.56,0,0,1,.33.06l-2.1.22c-2,.22-3.94.41-5.91.66-2.78.37-5.56.72-8.33,1.18q-6,1-11.9,2.13c-6.25,1.2-12.43,2.68-18.58,4.33A274.62,274.62,0,0,0,92.89,19a234.21,234.21,0,0,0-40,20.53A194.93,194.93,0,0,0,20.66,65.5a.79.79,0,0,1-.61.25H.48Z"/><path d="M40.13,52.82l10-7.41L77.7,65.72l-.41,0H58.15a.92.92,0,0,1-.51-.15L40.36,53Z"/><path d="M1.75,24.1H21.22a1,1,0,0,1,.51.15l13.86,9.91.25.19-.3.2C32.1,36.71,28.66,38.85,25.23,41a.4.4,0,0,1-.54,0L2,24.4l-.31-.23Z"/><path d="M65.58,83.83c-.48,0-1,0-1.41,0-.1,0-.22-.14-.29-.24l-2.92-5-.24-.39v5.59H58.93v-9c.52,0,1,0,1.58,0,.08,0,.18.16.24.26l2.91,5,.25.4v-5.6h1.67Z"/><path d="M31.16,74.85c1.39,0,2.76-.08,4.11,0A2.38,2.38,0,0,1,37.45,77a2.52,2.52,0,0,1-1.27,2.83l-.26.16,2,4c-.66,0-1.28,0-1.9,0-.07,0-.15-.15-.19-.24-.49-1-1-2.08-1.44-3.13a.42.42,0,0,0-.47-.29c-.34,0-.69,0-1.06,0v3.6H31.16Zm1.68,3.82c.55,0,1.07,0,1.58,0a1.23,1.23,0,0,0,.43-2.41,16.81,16.81,0,0,0-2,0Z"/><path d="M77.45,74.74l-2.18,2.7c-.24.31-.63.61-.66.94s.33.67.52,1l2.3,4c.07.11.13.24.24.42-.66,0-1.27,0-1.87,0-.09,0-.19-.15-.25-.25l-1.86-3.38-.21-.37c-.4.5-.79,1-1.16,1.45a.71.71,0,0,0-.06.34v2.2H70.58v-9h1.67v4l.07,0c.07-.09.15-.18.22-.28.9-1.19,1.79-2.4,2.7-3.58a.68.68,0,0,1,.45-.23C76.24,74.72,76.8,74.74,77.45,74.74Z"/><path d="M6.12,77.28H4.58a1.49,1.49,0,0,0-2.07-1.11,1,1,0,0,0-.72,1,1,1,0,0,0,.65,1c.48.16,1,.25,1.48.38l.2,0a2.56,2.56,0,0,1,2,3.58,2.33,2.33,0,0,1-1.47,1.48,4.53,4.53,0,0,1-2.93.08A2,2,0,0,1,.39,82.63,3.88,3.88,0,0,1,0,81.05H1.57l.05.06a1.71,1.71,0,0,0,2.65,1,1.05,1.05,0,0,0,.42-1.08.87.87,0,0,0-.56-.84c-.38-.13-.78-.2-1.17-.3a11.24,11.24,0,0,1-1.41-.37c-2-.81-1.61-3.45-.47-4.25a3.57,3.57,0,0,1,3.6-.37A2.46,2.46,0,0,1,6.12,77.28Z"/><path d="M19.18,83.78c.35-1,.69-2,1-2.88.69-2,1.39-3.91,2.07-5.86.08-.22.18-.33.42-.31s.79-.09,1,.08.28.6.39.93q1.36,3.83,2.72,7.66c0,.1.07.21.13.37-.58,0-1.12,0-1.66,0-.07,0-.17-.13-.2-.22a12.49,12.49,0,0,1-.37-1.23c-.06-.21-.15-.3-.38-.29-.86,0-1.72,0-2.57,0a.32.32,0,0,0-.38.29c-.11.42-.24.83-.38,1.23a.37.37,0,0,1-.24.23C20.29,83.79,19.77,83.78,19.18,83.78Zm3.94-6.54h-.07L22,80.61h2.2Z"/><path d="M16.53,74.77v1.47H14.3V83.8H12.54V76.26H10.21V74.77Z"/><path d="M47.8,83.81H42.17v-9h1.5c.25,0,.18.2.18.33v7.19H47.8Z"/><path d="M52.32,83.81v-9H54v9Z"/></g></g></svg>