<svg xmlns="http://www.w3.org/2000/svg" viewBox="0 0 211.18 79.19"><defs><style>.cls-1{fill:#ccc;}</style></defs><title>icoAsset 38</title><g id="Layer_2" data-name="Layer 2"><g id="Layer_1-2" data-name="Layer 1"><path class="cls-1" d="M50.91,0C66.68.06,78.46,11.47,79.44,26.71c1.08,16.69-10.68,30.7-27.79,32.21-8.22.73-8.24.65-8.12-7.81,0-1.17.23-2.33.16-3.49-.28-4.45,1.66-5.79,6.12-5.66,7.54.21,12.58-4.82,13.18-12.18.5-6.22-4-11.82-10.56-13.09-7.31-1.41-15.26,4.54-15,12.15.23,5.9-2,6.75-7.13,6.59-11.47-.37-11.48-.11-9.28-11.43C23.88,9.4,35.64-.06,50.91,0Z"/><path class="cls-1" d="M19.19,41.9c5,0,10,.07,15,0,2.33,0,3.28.81,3.27,3.19-.07,10.33,0,20.66,0,31,0,1.29.19,3-1.71,3A112.71,112.71,0,0,1,23.23,79c-2.26-.2-3.09-2.23-3.07-4.49,0-3.66-.21-7.34,0-11,.19-3.2-.82-4.55-4.19-4.34-3.65.23-7.33,0-11,0-2,0-4-.46-4.41-2.46A46.48,46.48,0,0,1,.4,43.27c.18-1.79,2.05-1.34,3.29-1.35C8.86,41.87,14,41.9,19.19,41.9Z"/><path d="M106.26,54c0-2.5.32-5.05-.07-7.48-.88-5.58,2.64-7.84,6.86-9.35,4.94-1.76,10.78.08,13.51,3.81a12.42,12.42,0,0,1,0,14c-2.93,3.91-7.1,4.52-11.58,4.18-1.33-.1-1.48-1-1.5-2.09,0-2,1.23-1.89,2.65-2.06,6-.74,8.47-3.76,7.32-8.65-.85-3.64-3.33-5.39-6.84-5.11s-5.6,2.07-5.37,6.22c.32,5.81.09,11.64,0,17.47,0,1.4.46,3.16-2,3-2-.1-3.06-.8-3-3C106.33,61.35,106.26,57.69,106.26,54Z"/><path d="M196.37,27V45.63c5.08-2.42,5.85-10.64,13.64-8.2-2.28,2.74-4.38,5.54-6.8,8-1.63,1.69-1.42,2.71.11,4.31,2.72,2.83,5.17,5.93,7.86,9.06-8.55,2.44-9.25-6.7-14.81-9.39,0,2.57,0,4.82,0,7.08,0,1.66-.07,2.9-2.33,2.76-1.81-.11-2.77-.6-2.76-2.59,0-8.49,0-17,0-25.46C191.33,28,194.18,28.3,196.37,27Z"/><path d="M165.86,49.52c-.11-10.61,5.61-15.68,14-12.48,3.9,1.47,6.32,4.29,6.57,8.51.22,3.65.05,7.32.13,11,0,1.73-.24,2.79-2.4,2.77s-2.31-1.28-2.32-2.89c0-3.16.09-6.34-.17-9.48-.31-3.88-2.42-6.12-6.55-5.8s-4.6,3-4.42,6.34c.16,3.15-.08,6.32,0,9.48,0,1.69-.62,2.35-2.35,2.32s-2.5-.57-2.49-2.26C165.87,54.51,165.86,52,165.86,49.52Z"/><path d="M150.69,27c0,10.18,0,19.76,0,29.33,0,1.51.19,2.92-2.16,3S146,58.08,146,56.21c.06-8.11.17-16.23-.05-24.34C145.83,28.69,147.88,28.13,150.69,27Z"/><path d="M95.35,30.64c-.36,3.89-.78,7.42,4.58,6.45,1.36-.25,1.54.89,1.51,2s0,2.3-1.41,2.06c-6-1-4.56,3.22-4.78,6.46-.3,4.52-.39,8.69,6.19,7.52,1.54-.28,1.93.66,2,2.08s-.57,1.87-2,2.1c-8.14,1.3-11.15-1.14-11.19-9.32,0-4.33.24-8.68-.09-13C89.82,33.13,91.13,31,95.35,30.64Z"/><path d="M160.54,48.1c0,2.81,0,5.62,0,8.43,0,1.7-.18,2.84-2.36,2.75-1.8-.07-2.24-.93-2.23-2.47,0-6,.06-11.9,0-17.85,0-1.59.78-1.88,2.13-1.91,1.54,0,2.51.24,2.45,2.12C160.45,42.15,160.53,45.12,160.54,48.1Z"/><path d="M136.94,45.61c1.69.56,4.57-1.24,4.46,2.69-.09,3.11-2.25,2.06-3.83,2.31a3.45,3.45,0,0,1-4.32-3.51C133.18,44.44,135.69,46.21,136.94,45.61Z"/><path d="M158.19,32c-2,.21-3.21-.37-3.08-2.65a2.86,2.86,0,0,1,3.24-2.92c1.67.06,3.1.89,3.1,3.06C161.45,31.83,160,32.13,158.19,32Z"/></g></g></svg>