<svg width="28" height="28" viewBox="0 0 28 28" fill="none" xmlns="http://www.w3.org/2000/svg">
<path d="M12.3667 16.1L9.82916 13.5625C9.61527 13.3486 9.35277 13.2416 9.04166 13.2416C8.73055 13.2416 8.45833 13.3583 8.225 13.5916C8.01111 13.8055 7.90416 14.0778 7.90416 14.4083C7.90416 14.7389 8.01111 15.0111 8.225 15.225L11.55 18.55C11.7639 18.7639 12.0361 18.8708 12.3667 18.8708C12.6972 18.8708 12.9694 18.7639 13.1833 18.55L19.8042 11.9291C20.0181 11.7153 20.125 11.4528 20.125 11.1416C20.125 10.8305 20.0083 10.5583 19.775 10.325C19.5611 10.1111 19.2889 10.0041 18.9583 10.0041C18.6278 10.0041 18.3556 10.1111 18.1417 10.325L12.3667 16.1ZM14 25.6666C12.3861 25.6666 10.8694 25.3602 9.45 24.7473C8.03055 24.1352 6.79583 23.3041 5.74583 22.2541C4.69583 21.2041 3.86477 19.9694 3.25266 18.55C2.63977 17.1305 2.33333 15.6139 2.33333 14C2.33333 12.3861 2.63977 10.8694 3.25266 9.44998C3.86477 8.03054 4.69583 6.79581 5.74583 5.74581C6.79583 4.69581 8.03055 3.86437 9.45 3.25148C10.8694 2.63937 12.3861 2.33331 14 2.33331C15.6139 2.33331 17.1305 2.63937 18.55 3.25148C19.9694 3.86437 21.2042 4.69581 22.2542 5.74581C23.3042 6.79581 24.1352 8.03054 24.7473 9.44998C25.3602 10.8694 25.6667 12.3861 25.6667 14C25.6667 15.6139 25.3602 17.1305 24.7473 18.55C24.1352 19.9694 23.3042 21.2041 22.2542 22.2541C21.2042 23.3041 19.9694 24.1352 18.55 24.7473C17.1305 25.3602 15.6139 25.6666 14 25.6666Z" fill="#191B1C"/>
</svg>
