<svg xmlns="http://www.w3.org/2000/svg" viewBox="0 0 19.2 11.76"><defs><style>.cls-1{fill:#00a99d;}</style></defs><title>icoAsset 1</title><g id="Layer_2" data-name="Layer 2"><g id="Layer_1-2" data-name="Layer 1"><path class="cls-1" d="M19,3.09a8.33,8.33,0,0,0-4.65,1.4,8.42,8.42,0,0,0-3.56,5.09,8.8,8.8,0,0,0-.22,1.94v.24H13.2V11.7a6.26,6.26,0,0,1,.17-1.45,6,6,0,0,1,5.8-4.53h0V3.09Z"/><path class="cls-1" d="M12.82,2.24,11.31,0a13.31,13.31,0,0,0-6,11.16c0,.2,0,.4,0,.6H7.93c0-.14,0-.28,0-.42a10.86,10.86,0,0,1,4.9-9.1Z"/><path class="cls-1" d="M.42,6.91A17.9,17.9,0,0,0,0,10.8c0,.32,0,.64,0,1H2.66c0-.26,0-.52,0-.78A15.81,15.81,0,0,1,3,7.58Z"/></g></g></svg>