<svg xmlns="http://www.w3.org/2000/svg" viewBox="0 0 11.76 7.21"><defs><style>.cls-1{fill:#00a99d;}</style></defs><title>icoAsset 3</title><g id="Layer_2" data-name="Layer 2"><g id="Layer_1-2" data-name="Layer 1"><path class="cls-1" d="M11.64,1.89A5.18,5.18,0,0,0,6.47,7.06v.15H8.09v0a3.68,3.68,0,0,1,.11-.89,3.66,3.66,0,0,1,3.55-2.77h0V1.9Z"/><path class="cls-1" d="M7.86,1.38,6.93,0a8.19,8.19,0,0,0-3.7,6.84c0,.12,0,.25,0,.37H4.86a2.26,2.26,0,0,1,0-.26,6.67,6.67,0,0,1,3-5.57Z"/><path class="cls-1" d="M.25,4.24A11.57,11.57,0,0,0,0,6.62c0,.2,0,.39,0,.59H1.63c0-.16,0-.32,0-.48a10.29,10.29,0,0,1,.22-2.09Z"/></g></g></svg>