<svg xmlns="http://www.w3.org/2000/svg" viewBox="0 0 63.3 38.78"><defs><style>.cls-1{fill:#00a99d;}</style></defs><title>icoAsset 4</title><g id="Layer_2" data-name="Layer 2"><g id="Layer_1-2" data-name="Layer 1"><path class="cls-1" d="M62.61,10.19A27.77,27.77,0,0,0,34.82,38c0,.27,0,.53,0,.79h8.69v-.2a19.4,19.4,0,0,1,.59-4.79A19.7,19.7,0,0,1,63.23,18.87h.07V10.2Z"/><path class="cls-1" d="M42.29,7.4l-5-7.4a43.84,43.84,0,0,0-19.9,36.81c0,.66,0,1.32,0,2h8.69q0-.69,0-1.38a35.85,35.85,0,0,1,16.18-30Z"/><path class="cls-1" d="M1.37,22.79A60.35,60.35,0,0,0,0,35.63c0,1.06,0,2.11.08,3.15H8.77c0-.85-.07-1.7-.07-2.56A51.94,51.94,0,0,1,9.92,25Z"/></g></g></svg>