<svg xmlns="http://www.w3.org/2000/svg" viewBox="0 0 211.98 42.46"><defs><style>.cls-1{fill:#136e3a;}.cls-2{fill:#cfa867;}.cls-3{fill:#21713d;}.cls-4{fill:#26723f;}.cls-5{fill:#f3f6f3;}.cls-6{fill:#f5f8f5;}.cls-7{fill:#629971;}.cls-8{fill:#e54134;}</style></defs><title>icoAsset 12</title><g id="Layer_2" data-name="Layer 2"><g id="Layer_1-2" data-name="Layer 1"><path class="cls-1" d="M28,21.25c0,4.69,0,9.38,0,14.07,0,.82-.23,1-1,1q-13,0-25.92,0c-.79,0-1-.15-1-1Q.06,21.16,0,7c0-.81.2-1,1-1Q14,6,27,6c.92,0,1.05.3,1.05,1.12C28,11.8,28,16.53,28,21.25ZM15.1,25.54l.06-.06.18-.17.7-.5.32.05c-.4.74-.31,1.24.55,1.63s1.23.37,1.54-.48.92-.66,1.55-.66a1.13,1.13,0,0,1,1.27.94c.19.87.73.8,1.4.57s1.25-.52.82-1.37c-.34-.68,0-1.06.48-1.48s.94-.83,1.62-.4,1.1.22,1.43-.49.57-1.29-.41-1.64c-.7-.25-.7-.81-.67-1.43s.13-1.17.84-1.34.95-.68.67-1.46-.53-1.19-1.4-.79c-.63.29-1.06,0-1.49-.5s-.78-1-.35-1.63c.54-.83,0-1.13-.64-1.47s-1.15-.42-1.46.4-.81.78-1.5.74-1.2-.22-1.37-.95c-.23-1-.87-.7-1.52-.5s-1.06.5-.69,1.23c.49,1-.31,1.38-.86,1.89s-1.09.08-2-.26c1.61,0,1.24-.92,1.29-1.62s-.5-.79-1-.76c-.86.05-1-.57-1.36-1.17a1.09,1.09,0,0,1,.32-1.51c.71-.58.35-1-.15-1.5s-.89-.89-1.5-.18A1.12,1.12,0,0,1,10.23,9C9.58,8.68,9,8.44,9.07,7.53s-.6-.88-1.23-.89-1.19,0-1.09.9S6.35,8.66,5.68,9A1.21,1.21,0,0,1,4,8.68c-.6-.75-1-.27-1.51.16s-.85.93-.14,1.5A1.25,1.25,0,0,1,2.65,12c-.26.63-.57,1.09-1.33,1s-1,.43-1,1.15.14,1.28,1.07,1.18c.71-.07,1,.38,1.25,1s.42,1.17-.21,1.67-.35,1.07.16,1.58.93.82,1.5.11,1-.5,1.66-.23,1.09.61,1,1.35c-.1.95.5,1,1.17,1s1.25-.11,1.17-1,.35-1.07,1-1.34a1.29,1.29,0,0,1,1.67.24c.37.41.77.7,1.23.11s1.33-.79.54-1.66l.29-.29c.5.2.93.47.76,1.09s.24,1.43-.68,1.64c-1.23.29-.94,1-.72,1.87s1,.33,1.27.77c-1.46.7-2.81,0-2.7-1.39.07-.82-.2-1.09-1-1.18s-1.33-.11-1.36.85c0,.66-.43.94-1,1.09a.5.5,0,0,0-.51.16c-.66.18-1-.25-1.33-.7-.55-.84-1-.3-1.52,0s-1,.72-.36,1.38A1.11,1.11,0,0,1,4.84,25c-.41.58-.71,1.21-1.6,1s-1,.3-1.14,1-.05,1.25.83,1.29,1,.54,1.16,1.2A1.2,1.2,0,0,1,3.6,31.1c-.8.47-.52,1-.09,1.5S4.25,33.67,5,33s1.14-.34,1.77,0a1.23,1.23,0,0,1,.74,1.5c-.19.82.3,1,1,1.07s1.29.22,1.35-.72.54-1,1.26-1.25a1.21,1.21,0,0,1,1.57.54c.5.82,1,.4,1.52,0s.95-.79.34-1.46a1.17,1.17,0,0,1-.05-1.57,1.42,1.42,0,0,1,1.75-.89c.75.17.85-.38.89-.89s.47-1.25-.39-1.32c-1.54-.11-1.53-1.24-1.74-2.28Z"/><path class="cls-2" d="M14,4.76c-4.3,0-8.59,0-12.89,0-.8,0-1.12-.2-1-1A13.15,13.15,0,0,0,0,1.31C-.08.32.21,0,1.27,0,6.69.06,12.11,0,17.53,0c3.13,0,6.26,0,9.4,0,.79,0,1.12.2,1.05,1a13.15,13.15,0,0,0,0,2.43c.11,1-.19,1.33-1.25,1.31C22.47,4.72,18.21,4.76,14,4.76Z"/><path class="cls-2" d="M14,42.3c-4.3,0-8.6,0-12.9,0-.89,0-1.17-.25-1.09-1.11a13.26,13.26,0,0,0,0-2.44c-.11-1,.32-1.2,1.24-1.19,5.78,0,11.55,0,17.32,0,2.76,0,5.51,0,8.26,0,.81,0,1.24.12,1.14,1.06-.13,1.18.49,2.72-.26,3.46s-2.21.18-3.36.19C20.91,42.31,17.46,42.3,14,42.3Z"/><path class="cls-3" d="M39.49,20.18c1.5.56,2.61,1.21,2.94,2.66a4.09,4.09,0,0,1-3.15,5,8,8,0,0,1-1.83.22c-1.86,0-3.71-.23-5.57-.08-.23,0-.5,0-.6-.22a.34.34,0,0,1,.26-.45c1.33-.4,1.28-1.47,1.28-2.54V17c0-1.14-.17-2.12-1.62-2.19-.24,0-.6-.08-.51-.47s.35-.26.58-.26c2.24,0,4.49-.07,6.72.08,2.51.18,3.92,2.06,3.33,4.14A2.86,2.86,0,0,1,39.49,20.18Zm-4.6,3.61h0c0,.7,0,1.4,0,2.09A1.29,1.29,0,0,0,35.45,27a3.48,3.48,0,0,0,4.86-1.81c.59-2.39-.75-4.05-3.41-4.24-1.89-.14-2,0-2,1.81Zm1.88-3.62c.89-.1,2.13.1,2.63-1.28a3.2,3.2,0,0,0-1-3.35A3.51,3.51,0,0,0,36,14.83a1,1,0,0,0-1.09,1.07c0,.85,0,1.7,0,2.55C34.89,20.09,35,20.16,36.77,20.17Z"/><path class="cls-4" d="M196.73,22.18A40.63,40.63,0,0,1,199.08,26c.47.74.94,1.47,2.06,1.12a1.75,1.75,0,0,1-2.76.48,6.12,6.12,0,0,1-1.6-2.1c-.46-.81-.91-1.62-1.38-2.43a1.44,1.44,0,0,0-1.75-.56c-.62.15-.39.75-.41,1.18s0,1.17,0,1.75c0,1,.29,1.74,1.41,1.9.22,0,.54.06.52.35s-.39.26-.63.27H190.8c-.23,0-.5.05-.55-.26s.18-.31.36-.38c.79-.33.88-1,.87-1.73,0-2.28,0-4.57,0-6.86,0-.93-.17-1.6-1.24-1.73-.21,0-.51-.09-.45-.4s.32-.3.56-.27a45.08,45.08,0,0,0,4.65,0c1.93,0,3.19.74,3.6,2C199.09,19.8,198.6,20.82,196.73,22.18Zm-3.51-2.69h0c0,.54,0,1.08,0,1.62a.65.65,0,0,0,.48.69c1.16.36,2.77-.2,3.13-1.11a2.81,2.81,0,0,0-1.28-3.47c-1.55-.71-2.33-.22-2.34,1.46Z"/><path class="cls-3" d="M77.8,28H73.07c-.14,0-.34-.06-.39-.16s0-.36.24-.42c1-.34,1-1.15,1-2,0-2.17,0-4.34,0-6.51,0-1.07-.23-1.82-1.43-2-.09,0-.18-.13-.26-.2a1.58,1.58,0,0,1-.08-.27,38.06,38.06,0,0,0,5-.21C75.56,18,75.32,19.06,75.8,22a34.48,34.48,0,0,0,3.78-3.64c.83-1-.26-1.23-.89-1.76,1.55-.18,3.08,0,4.77-.27-.4.86-1.08.82-1.52,1.14A49.37,49.37,0,0,0,78,20.88c-.43.37-.31.73,0,1.11a50.81,50.81,0,0,0,3.67,4.48c.64.67,1.57.75,2.34,1.26a3.71,3.71,0,0,1-4.4-1c-1-1.21-1.86-2.47-2.81-3.7-.17-.23-.31-.61-.7-.47s-.45.48-.44.86a10.75,10.75,0,0,1,0,1.39c-.13,1.38.12,2.48,1.78,2.67C77.48,27.48,77.54,27.64,77.8,28Z"/><path class="cls-4" d="M136.25,24.77a57.32,57.32,0,0,0-.18-6.68c-.13-1-1.15-.87-1.93-1.65,1.48,0,2.65,0,3.82,0a.34.34,0,0,1,.26.17A.28.28,0,0,1,138,17c-1.18.45-1.07,1.48-1.07,2.45,0,2.51,0,5,0,7.55,0,.37.17.9-.26,1s-.62-.38-.86-.66c-2.13-2.46-4.24-4.94-6.35-7.41-.2-.23-.34-.53-.74-.65a4.52,4.52,0,0,0-.17,2c0,1.43,0,2.86,0,4.3,0,.86.21,1.63,1.25,1.8.19,0,.41.08.42.32s-.22.29-.4.29c-1.11,0-2.22,0-3.42-.11,1.82-1.26,1.28-3.12,1.4-4.77.09-1.31.05-2.64,0-3.95,0-1.09-.34-2-1.61-2.18a.73.73,0,0,1-.32-.12s-.07-.14-.1-.2a3.13,3.13,0,0,1,3.74.79l6.33,7.39Z"/><path class="cls-3" d="M143.88,28h-2.79c-.23,0-.52.08-.61-.17s.16-.38.38-.47c.74-.3.85-.92.85-1.62,0-2.36,0-4.72,0-7.07,0-.88-.19-1.53-1.2-1.64-.22,0-.5-.05-.48-.37s.24-.28.44-.26c2.12.28,4.24-.17,6.37.07a5.39,5.39,0,0,1,5.11,6A5.46,5.46,0,0,1,146.43,28c-.85,0-1.7,0-2.55,0Zm-.46-6.24h0c0,1.32,0,2.63,0,3.95a1.46,1.46,0,0,0,.85,1.51,4.23,4.23,0,0,0,5.71-3,7.92,7.92,0,0,0-.09-3.46,5,5,0,0,0-5.4-3.8,1,1,0,0,0-1.1,1.18Z"/><path class="cls-3" d="M58,16.69a3.14,3.14,0,0,1,3.8.81l5.67,6.61a1.78,1.78,0,0,0,.84.72,12.19,12.19,0,0,0,.13-2.95c0-.66,0-1.32,0-2,0-1.36.13-2.82-1.74-3.33h3.79c-1.61.73-1.3,2.15-1.31,3.44,0,2.21,0,4.42,0,6.63,0,.47.27,1.18-.26,1.35s-.76-.55-1.07-.91q-3-3.53-6-7.06a2.3,2.3,0,0,0-1-.72c0,.86,0,1.72,0,2.57s0,1.63,0,2.44c0,2.3,0,2.3,1.95,3.55H58.54C60.47,26.59,60,24.72,60,23c0-1.2,0-2.4,0-3.6s-.24-2.25-1.71-2.45C58.24,17,58.14,16.8,58,16.69Z"/><path class="cls-4" d="M95.62,16.14a5.76,5.76,0,0,1,6.06,5.93,6,6,0,0,1-6,6.19,5.81,5.81,0,0,1-6.07-6A6,6,0,0,1,95.62,16.14Zm4.21,6.62a6.85,6.85,0,0,0-1.49-4.53,3.7,3.7,0,0,0-3.83-1.35,3.44,3.44,0,0,0-2.84,2.72A7.56,7.56,0,0,0,92.79,26a3.67,3.67,0,0,0,4.09,1.43C98.8,26.94,99.85,25.28,99.83,22.76Z"/><path class="cls-3" d="M153.64,16.54h4.58c-1.46.71-1.19,2-1.19,3.22,0,1.51,0,3,.07,4.53a2.91,2.91,0,0,0,3,3,3.15,3.15,0,0,0,3.53-2.78,36.74,36.74,0,0,0,.1-6.38c0-1.05-1.07-1-1.65-1.62H166c-1.49.79-1.34,2-1.36,3.12,0,1.43,0,2.86-.07,4.29A4,4,0,0,1,162,27.81a5.14,5.14,0,0,1-5.1-.38,3.46,3.46,0,0,1-1.48-2.89c-.06-1.39,0-2.79-.07-4.18S155.83,17.14,153.64,16.54Z"/><path class="cls-3" d="M57,27.91H52.19c1-.68,1.55-1.23,1-2.33-.85-1.79-.76-1.83-2.78-1.83h-.81a2.59,2.59,0,0,0-2.53,2.72.94.94,0,0,0,.68.84c.29.13.73,0,.86.46a11.72,11.72,0,0,1-3.94.05c2.13-1.89,2.6-4.66,3.86-7,.67-1.25,1.18-2.6,1.78-3.89.14-.3.17-.79.58-.76s.41.51.54.82c1.08,2.6,2.15,5.21,3.24,7.81.5,1.18.74,2.57,2.47,2.79Zm-6.57-9a3.81,3.81,0,0,0-.93,1.6c-1.29,2.88-1.7,2.45,1.77,2.49.61,0,.75-.24.53-.77C51.38,21.14,51,20.07,50.46,18.88Z"/><path class="cls-1" d="M120.14,21c0-1.55,0-3.09,0-4.64a1.34,1.34,0,0,0-1.26-1.52c-.32,0-.82-.05-.74-.52s.5-.25.79-.23a24.05,24.05,0,0,0,4.07,0c.26,0,.62-.11.72.19s-.25.43-.49.5c-.87.29-1,1-1,1.76,0,2.82,0,5.65,0,8.48,0,1.2.31,2.05,1.65,2.21.28,0,.72.1.66.49s-.49.27-.78.27h-4.41c-.26,0-.6.13-.69-.24s.25-.45.49-.54a1.48,1.48,0,0,0,1-1.55c0-1.55,0-3.1,0-4.65Z"/><path class="cls-4" d="M110.7,19.87v3.94c-.27,0-.37-.13-.43-.29a2.36,2.36,0,0,0-3-1.24c-.36.16-.37.46-.38.77,0,.58,0,1.16,0,1.74-.11,1.38.13,2.49,1.78,2.68.08,0,.13.17.3.4h-5c1.72-.88,1.22-2.43,1.25-3.79s0-2.87,0-4.3c0-2.15,0-2.15-1.66-3.09.07-.4.38-.28.62-.28,2.21,0,4.41,0,6.62,0,.74,0,1.12.12,1,.92-.09.54.4,1.12-.08,1.65-.09,0-.19,0-.22-.09a3.08,3.08,0,0,0-3.85-1.71.76.76,0,0,0-.68.8,8,8,0,0,0,0,1.62c.12.64-.54,1.57.55,1.87a2.28,2.28,0,0,0,2.81-1.14A3.08,3.08,0,0,1,110.7,19.87Z"/><path class="cls-4" d="M177.53,19.44a8.53,8.53,0,0,1,.16-2.59c.08-.54.48-.5.89-.47a84.87,84.87,0,0,0,8.59,0c.35,0,.8-.15.89.3a3.77,3.77,0,0,1,.11,2.05c-.1.28-.34,0-.48-.18a3.2,3.2,0,0,0-3.46-1.21c-.45.15-.44.47-.44.83,0,2.59,0,5.19,0,7.78,0,1,.67,1.31,1.5,1.43.24,0,.52.11.47.39s-.32.29-.56.26a27.41,27.41,0,0,0-4.53,0c-.23,0-.52,0-.54-.28s.26-.36.49-.38c1.18-.12,1.38-.89,1.37-1.9,0-2.36,0-4.73,0-7.09,0-.89-.32-1.13-1.16-1.1C179.24,17.34,179.24,17.3,177.53,19.44Z"/><path class="cls-4" d="M168.32,24a15.56,15.56,0,0,0,1,2.15,2.84,2.84,0,0,0,2.91,1.28,2.06,2.06,0,0,0,1.79-1.6,2,2,0,0,0-.91-2.31,15.71,15.71,0,0,0-2.64-1.2,3.26,3.26,0,0,1-2.32-2.65c-.26-2.09,1.22-3.55,3.45-3.54,1,0,1.89.83,2.91.21,0,0,.22.11.23.18.05.85.09,1.69.11,2.54,0,.07-.15.19-.23.19-.28,0-.35-.26-.45-.47A3.17,3.17,0,0,0,172,16.9,2.06,2.06,0,0,0,169.38,18c-.31,1,.08,1.7,1.29,2.26.77.35,1.6.6,2.37.95a3.5,3.5,0,0,1,2.15,4.17,3.46,3.46,0,0,1-3.39,2.8,5.89,5.89,0,0,1-1.39-.06C168.54,27.86,167.6,26.12,168.32,24Z"/><path class="cls-3" d="M212,16.42c-2.32,1.6-3.14,3.83-4.21,5.84-.68,1.29-.33,2.88-.12,4.33.08.59.63.73,1.14.8.25,0,.51.11.47.39s-.26.27-.47.26a25.61,25.61,0,0,0-4.29,0c-.19,0-.41-.05-.42-.28s.19-.33.39-.35c1.11-.16,1.21-1,1.28-1.88a6.3,6.3,0,0,0-1.1-4.61,14,14,0,0,1-.88-1.5c-.61-1.06-1.07-2.24-2.34-2.87h4.2c-1.3.76-.72,1.53-.24,2.32s1.08,1.86,1.73,3c.73-1.29,1.4-2.41,2-3.55.37-.73.07-1.19-.73-1.32-.19,0-.42,0-.45-.27s.2-.29.39-.29C209.43,16.41,210.53,16.42,212,16.42Z"/><path class="cls-5" d="M14.44,23.21c-.3-.44-1.06.07-1.27-.77s-.51-1.58.72-1.87c.92-.21.53-1.06.68-1.64s-.26-.89-.76-1.09a1.25,1.25,0,0,1-.46-1.51c-.84.85-.47,1.35.17,1.8.79.87-.17,1.17-.54,1.66s-.86.3-1.23-.11a1.29,1.29,0,0,0-1.67-.24c-.65.27-1.06.59-1,1.34s-.47,1-1.17,1-1.27,0-1.17-1c.09-.74-.35-1.08-1-1.35s-1.19-.36-1.66.23-1,.39-1.5-.11-.92-1-.16-1.58.45-1,.21-1.67-.54-1-1.25-1c-.93.1-1.08-.41-1.07-1.18s.12-1.24,1-1.15,1.07-.38,1.33-1a1.25,1.25,0,0,0-.26-1.67c-.71-.57-.35-1,.14-1.5S3.44,7.93,4,8.68A1.21,1.21,0,0,0,5.68,9c.67-.3,1.16-.62,1.07-1.42s.45-.91,1.09-.9,1.34-.07,1.23.89S9.58,8.68,10.23,9a1.12,1.12,0,0,0,1.53-.34c.61-.71,1-.28,1.5.18s.86.92.15,1.5a1.09,1.09,0,0,0-.32,1.51c.31.6.5,1.22,1.36,1.17.51,0,1.05,0,1,.76s.32,1.6-1.29,1.62c.91.34,1.38.86,2,.26s1.35-.89.86-1.89c-.37-.73,0-1,.69-1.23s1.29-.51,1.52.5c.17.73.67.91,1.37.95s1.24,0,1.5-.74.82-.74,1.46-.4,1.18.64.64,1.47c-.43.65-.08,1.12.35,1.63s.86.79,1.49.5c.87-.4,1.13.07,1.4.79s.19,1.26-.67,1.46-.8.71-.84,1.34,0,1.18.67,1.43c1,.35.74.94.41,1.64s-.74.93-1.43.49-1.13,0-1.62.4-.82.8-.48,1.48c.43.85-.12,1.13-.82,1.37s-1.21.3-1.4-.57A1.13,1.13,0,0,0,20,25.35c-.63,0-1.27-.1-1.55.66s-.81.8-1.54.48-.95-.89-.55-1.63c.56-.72.08-1.08-.5-1.4h0c-.17-.43-.27-1-.93-.47Zm2.12-3.54a3.72,3.72,0,0,0,3.67,3.72A3.76,3.76,0,0,0,24,19.74a3.71,3.71,0,1,0-7.42-.07ZM7.93,10.46a3.72,3.72,0,1,0,3.69,3.73A3.81,3.81,0,0,0,7.93,10.46Zm6,4.92c-.51.18-.65.45-.61,1.2.31-.45.45-.63.56-.82A1.38,1.38,0,0,0,13.91,15.38Z"/><path class="cls-6" d="M14.44,23.21l.49-.22c.39,0,.42.71.93.47h0c-.35.51.5.85.18,1.35l-.7.5-.18.17-.06.06-.17.23c.21,1,.2,2.17,1.74,2.28.86.07.42.84.39,1.32s-.14,1.06-.89.89a1.42,1.42,0,0,0-1.75.89,1.17,1.17,0,0,0,.05,1.57c.61.67.23,1.06-.34,1.46s-1,.8-1.52,0A1.21,1.21,0,0,0,11,33.62c-.72.2-1.21.44-1.26,1.25s-.71.8-1.35.72-1.15-.25-1-1.07A1.23,1.23,0,0,0,6.73,33c-.63-.36-1.17-.57-1.77,0s-1,.09-1.45-.4-.71-1,.09-1.5a1.2,1.2,0,0,0,.49-1.59c-.19-.66-.38-1.17-1.16-1.2S2,27.73,2.1,27s.28-1.23,1.14-1,1.19-.41,1.6-1a1.11,1.11,0,0,0-.15-1.56c-.59-.66-.15-1,.36-1.38s1-.88,1.52,0c.31.45.67.88,1.33.7a.52.52,0,0,0,.51-.16c.57-.15,1-.43,1-1.09,0-1,.61-.94,1.36-.85s1,.36,1,1.18C11.63,23.25,13,23.91,14.44,23.21Zm-5.5,1.2-.26.1a7,7,0,0,0-.75.32,3.69,3.69,0,0,0,3.2,6.65,3.5,3.5,0,0,0,2.18-3.3,3.72,3.72,0,0,0-2.57-3.63l-.49-.15Z"/><path class="cls-7" d="M13.52,18.13c-.64-.45-1-.95-.17-1.8a1.25,1.25,0,0,0,.46,1.51Z"/><path class="cls-7" d="M16,24.81c.32-.5-.53-.84-.18-1.35.58.32,1.06.68.5,1.4Z"/><path class="cls-5" d="M8.41,22.58a.52.52,0,0,1-.51.16A.5.5,0,0,1,8.41,22.58Z"/><path class="cls-5" d="M15.16,25.48l.18-.17Z"/><path class="cls-5" d="M14.93,25.77l.17-.23Z"/><path class="cls-8" d="M103.72,33c.69,1.49-.42,2.67-.69,4a28.87,28.87,0,0,1-1.4-2.7c-.74-1.55-.93-1.63-2.67-1.19l.59.36c-.64,2.07-.74,4.34-2.14,6.07h1.76c-.68-.72-.11-3.76.9-5.19.83,1.77,1.66,3.53,2.55,5.45,1.07-2.34,1.13-4.81,2.51-6.81Z"/><path class="cls-8" d="M174.37,35.08a3.45,3.45,0,0,0-4.17,3.32c0,1.07.43,1.4,1.51,1.12,0-.27.88-.5,0-.82-.35-.13-.26-.54-.2-.83a5.55,5.55,0,0,1,.71-1.93c.17-.28.33-.71.76-.52s.31.59.26.93c-.17,1.06-1,2-.65,3.16.69.19,1.37.68,1.27-.78a9.68,9.68,0,0,1,.79-3C174.73,35.46,174.93,35.17,174.37,35.08Z"/><path class="cls-8" d="M65.15,33.19c.2,0,.39,0,.41.24s.21.59.6.49a.48.48,0,0,0,.36-.53.64.64,0,0,0-.6-.61A1.51,1.51,0,0,0,64.7,33c-1.22.34-1.3,1.89-2.45,2.31-.19.07-.13.36.11.42.41.11.3.38.23.63a43.58,43.58,0,0,1-1.36,4.88h0l-.25.16c-.19-.32-.19-.89-.81-.68a.46.46,0,0,0-.35.52c.13.51.57.55,1,.53a1.42,1.42,0,0,0,.42-.15h.11l.09-.06.27-.17-.26,0-.07,0,.07,0,.26,0,.21-.14a.12.12,0,0,0,.15-.12c1-.94,1.08-2.26,1.51-3.44.26-.71,0-1.77,1.09-2a.25.25,0,0,0,.09-.39C63.79,34.35,64.88,33.85,65.15,33.19Z"/><path class="cls-8" d="M149.8,33c.4,1.33,0,2.08-1.12,2.06a3.42,3.42,0,0,0-2.42,3.09c0,.54-.09,1.13.5,1.41s1.07-.14,1.4-.64c1.27,1.1,1.27,1.1,1.62-.44,0,0,.06-.06.07-.09.4-1.38.8-2.75,1.21-4.12C151.55,32.65,151.56,32.65,149.8,33Zm-.56,3.41a4.46,4.46,0,0,1-1.33,2.33c-.4-.08-.46-.37-.4-.69a4.06,4.06,0,0,1,1.38-2.79C149.48,35.53,149.37,36,149.24,36.45Z"/><path class="cls-8" d="M176.26,33.09c.73.39.34.88.22,1.32-.38,1.41-.8,2.81-1.23,4.21a.76.76,0,0,0,.2.94.86.86,0,0,0,1,0c.53-.24.26-.5,0-.78s.1-.32.14-.49c.37-1.29.77-2.58,1.15-3.88C178.27,32.65,178.26,32.65,176.26,33.09Z"/><path class="cls-8" d="M187.64,35.05a3.48,3.48,0,0,0-3,2.48c-.21.69-.33,1.45.35,1.9a1.89,1.89,0,0,0,2.38-.26c-.19-.08-.29-.16-.38-.16-.54,0-1,0-1.12-.67s.49-.61.9-.73a2.9,2.9,0,0,0,1.69-1.15,1,1,0,0,0,.14-1.09C188.36,35,188,35,187.64,35.05Zm-.23,1.19a1.65,1.65,0,0,1-1.51,1.16,3.93,3.93,0,0,1,.79-1.64c.18-.19.38-.5.65-.34S187.53,36,187.41,36.24Z"/><path class="cls-8" d="M133.81,35.06a1.93,1.93,0,0,1-.34,0,1.3,1.3,0,0,0-1.46.72,1.35,1.35,0,0,0,.33,1.5c.28.36.61.69.87,1.08a.63.63,0,0,1,0,.93.67.67,0,0,1-.94-.13,7.77,7.77,0,0,1-.77-1.13l-.23,1.5a2.18,2.18,0,0,0,.3.06c1,0,2.07.5,2.72-.65s-.31-1.84-.92-2.6c-.22-.28-.48-.59-.08-.9s.68-.08.91.21a6,6,0,0,1,.49.81C135.28,35.28,134.81,35,133.81,35.06Z"/><path class="cls-8" d="M183,35.06c-.26,0-.54,0-.8,0a1.19,1.19,0,0,0-.93,1.87,8.8,8.8,0,0,0,.7.91c.32.42.91.85.39,1.38s-1,.12-1.33-.36c-.15-.23-.16-.22-.34-.07a.56.56,0,0,0-.24.6c.11.41.22.12.33,0,.25-.3.35,0,.53.11a1.37,1.37,0,0,0,1.87-.26,1.32,1.32,0,0,0,.15-1.88c-.25-.34-.55-.65-.82-1s-.51-.58-.14-.9.73-.09,1,.22a6.06,6.06,0,0,1,.45.81C184.28,35.41,184,35,183,35.06Z"/><path class="cls-8" d="M42.91,33.74a6.3,6.3,0,0,1-2,1.53c-.2.08-.35.33-.1.42.66.24.22.62.16.93-.15.68-.36,1.34-.54,2-.09.34-.15.69.21.94a.91.91,0,0,0,1,0,1.47,1.47,0,0,0,.87-1l-.54.29-.25-.19c.41-1,.13-2.4,1.38-3.08.07,0,.11-.28.11-.28C42.41,35,43.15,34.33,42.91,33.74Z"/><path class="cls-8" d="M196.11,35.23c-.73-.35,0-.9-.29-1.45A6.61,6.61,0,0,1,194,35.23c-.31.13-.47.33,0,.54s.13.46.08.69c-.16.63-.36,1.26-.53,1.89-.11.44-.34.93.2,1.24s1,0,1.36-.31c.18-.16.44-.3.4-.61-.34-.15-.39.52-.86.17.63-1,.14-2.49,1.49-3.22C196.2,35.54,196.25,35.3,196.11,35.23Z"/><path class="cls-8" d="M163.52,35.31c0-.32-.32-.12-.44-.24,0-.41.41-.76.12-1.31a6.18,6.18,0,0,1-1.9,1.5c-.19.07-.39.3-.17.41.74.34.19.78.12,1.15-.14.72-.37,1.42-.52,2.13a.61.61,0,0,0,.44.72,1.07,1.07,0,0,0,1-.2c.4-.26,0-.38-.09-.59s0-.43.09-.64C162.46,37.2,162.57,36.06,163.52,35.31Z"/><path class="cls-8" d="M80.67,36.77c.11-.54.58-1.19,0-1.6s-1.11.22-1.56.63c-.24.21-.36.83-.86.31h0c.42-.3.41-.7,0-1a.86.86,0,0,0-1.21.32l-.56.45-.24-.24c0-.32.2-.75-.42-.63-.43.08-1.27.08-1.19.38.35,1.21-.47,2.13-.58,3.19,0,.29-.59.75.12.91.53.13,1,0,1.09-.66a5.34,5.34,0,0,1,1.35-2.53c.1-.11.23-.39.43-.18s0,.36,0,.55c-.22.7-.46,1.39-.65,2.1-.06.24-.39.64.15.72.37.05.86.23,1-.41s.39-1.16.59-1.74.27-1.42,1.32-1c-.21.72-.43,1.42-.6,2.13-.09.36-.26.8.21,1a1,1,0,0,0,1.08-.18,1.5,1.5,0,0,0,.64-.83c-.25,0-.82.35-.55-.39A9.29,9.29,0,0,0,80.67,36.77Z"/><path class="cls-8" d="M145.11,35.13a1.07,1.07,0,0,0-1.16.21c-.31.21-.46.62-.87.69v0h0a.17.17,0,0,0-.16-.09.36.36,0,0,1,0-.25c.1-.28.33-.66-.25-.61s-1.35,0-1.26.4c.28,1.24-.54,2.19-.63,3.29,0,.28-.47.71.18.8.39.05.84.15,1-.48a17.45,17.45,0,0,1,.67-1.83c.46-.38.64-1.05,1.37-1.22a12.71,12.71,0,0,1-.59,2.45c-.08.38-.23.79.19,1a.92.92,0,0,0,1.15-.21c.2-.21.74-.34.32-.81l-.28-.25c.18-.66.37-1.32.55-2C145.45,35.84,145.57,35.38,145.11,35.13Z"/><path class="cls-8" d="M155.62,35.16a.71.71,0,0,0-.85.68,2.62,2.62,0,0,1-.56,1.37c-.61.64-.27,1.37-.25,2s.56.58,1,.37,1-.56.9-1c-.24-.87-.35-.85-.21-1.34s.3-1,.46-1.55S156.07,35.1,155.62,35.16Z"/><path class="cls-8" d="M56.53,37.28c.14-.69.78-1.49.13-2.06s-1.26.34-1.87.62l0,0,0,0h0c-.24-.31-.19-1-.9-.69-.31.14-1,0-.91.38.39,1.22-.5,2.12-.57,3.19,0,.3-.57.75.15.89.45.09.94.11,1-.57a6.31,6.31,0,0,1,1.41-2.74c.25-.06.73-.54.57.25s-.37,1.26-.53,1.89c-.1.39-.32.87.17,1.13a1,1,0,0,0,1.26-.3,4.85,4.85,0,0,0,.46-.63h0v0c-.32.14-.63.22-.56-.3A9.51,9.51,0,0,1,56.53,37.28Zm-2-1.5c-.29,0-.24.23-.09.47h0C54.32,36,54.27,35.81,54.56,35.78Z"/><path class="cls-8" d="M51.5,35.14a1,1,0,0,0-1.07.17H50c.4,1.4-.26,2.46-1.1,3.47v.37c.16,0,.28-.29.48-.07.77.84,1.52.74,2-.33.12-.28-.19.11-.24-.06l-.28-.22c.2-.76.44-1.52.6-2.3C51.48,35.83,51.9,35.42,51.5,35.14Z"/><path class="cls-8" d="M109.69,35.06a1.84,1.84,0,0,0-1.59,1.17,1.06,1.06,0,0,0,.42,1.4c.21.7-1,.71-.71,1.36s.08.71-.39,1c-.71.4-.69,1.06,0,1.43a3.3,3.3,0,0,0,3.21,0,1.26,1.26,0,0,0-.23-2.37c-.41-.13-.83-.21-1.23-.35-.12,0-.28-.18-.29-.29s.2-.33.38-.33a2.36,2.36,0,0,0,1.46-.16h0c1.47-.2.85-1.89,2.16-2.55C111.56,35.39,110.66,34.92,109.69,35.06Zm.6,5.71c0,.62-.66.62-1.12.65-.61-.05-1.28-.07-1.32-.82a.72.72,0,0,1,.93-.75C109.34,40,110.26,39.89,110.29,40.77Zm0-2.92.17,0Zm.44-1.85a3.27,3.27,0,0,1-.68,1.69.62.62,0,0,1-.7,0,2.34,2.34,0,0,1,.39-2.06.56.56,0,0,1,.69-.26C110.75,35.45,110.77,35.73,110.73,36Z"/><path class="cls-8" d="M88.33,35.09a2.36,2.36,0,0,0-1,.79c1.39.77-.18,1.55,0,2.3.07.23-.13.51-.16.78a.51.51,0,0,0,.41.61,1.26,1.26,0,0,0,1.24-.46c.12-.13.39-.4.24-.45-1.13-.39-.1-1-.13-1.44a3.94,3.94,0,0,1,.31-1.2,2,2,0,0,0,0-.49C89.12,35.05,88.74,35,88.33,35.09Z"/><path class="cls-8" d="M139.68,35.05c-.54,0-1.35.25-1.26.42.56,1.1-.37,2-.47,2.94,0,.45-.28,1,.28,1.22s.9,0,1.25-.37a7.07,7.07,0,0,0,.57-.71c-.38-.17-.41.36-.89.18.3-1,.6-2.08.9-3.11C140.16,35.28,140.17,35,139.68,35.05Z"/><path class="cls-8" d="M128,36.61c.39-1.36.39-1.36-1-1.35a1.21,1.21,0,0,1-.42-.16,3.31,3.31,0,0,0-2.75,3.16c0,.56,0,1.14.59,1.38s.95-.12,1.24-.57h0c.14-.06.37-.19.4-.15.89,1.06,1.28,1,2-.25-.34.07-.82.35-.57-.4C127.69,37.73,127.84,37.17,128,36.61Zm-2.37,2.14c-.26,0-.44,0-.49-.35a3.82,3.82,0,0,1,1.43-3.07C127.25,36.75,126.34,37.72,125.62,38.75Z"/><path class="cls-8" d="M86.21,35.09c-.27.09-1.07.11-1,.31.47,1.29-.49,2.27-.6,3.42,0,.26-.4.64.15.72.37.05.87.23,1-.4a22.16,22.16,0,0,0,1-3.49C86.87,35.19,86.86,35,86.21,35.09Z"/><path class="cls-8" d="M106.29,38.23c.28-.81.45-1.64.73-2.45s0-.82-.63-.7-1-.13-.82.88c.16.82-.43,1.77-.65,2.66-.08.33-.15.7.2,1a.9.9,0,0,0,1.08-.08,1.23,1.23,0,0,0,.59-.66C106.4,38.84,106.1,38.81,106.29,38.23Z"/><path class="cls-8" d="M169.8,35l-1.53.21c-.16,0-.44,0-.2.33.39.46,0,.87-.08,1.29-.15.71-.37,1.41-.53,2.12a.58.58,0,0,0,.44.71,1,1,0,0,0,1-.23c.3-.2.27-.35,0-.6s0-.58.11-.86C169.18,37,169.47,36.13,169.8,35Z"/><path class="cls-8" d="M84,35.14c-1.4-.09-1.36-.08-1.6,1.07-.17.86-.47,1.7-.71,2.56a.68.68,0,0,0,.28.81.92.92,0,0,0,1.07-.11c.39-.23.12-.44-.06-.63s.07-.41.12-.6C83.41,37.21,83.72,36.19,84,35.14Z"/><path class="cls-8" d="M123.39,35c-.82.21-1.82-.37-1.66,1.18a8.13,8.13,0,0,1-.68,2.56.71.71,0,0,0,.37.89.93.93,0,0,0,.88-.11c.45-.23.25-.45,0-.71s.1-.38.15-.58C122.74,37.21,123.05,36.18,123.39,35Z"/><path class="cls-8" d="M152.41,35.18c-.41,0-.36.13-.36.58a13.39,13.39,0,0,1-.63,2.92c-.11.51,0,1,.63,1,.46.06.83-.34.89-.92l-.15-.66.06-.23.2-.71c.11-.33.23-.66.31-1s.46-.77.16-1.06S152.78,35.13,152.41,35.18Z"/><path class="cls-8" d="M92.19,35.08a1.53,1.53,0,0,0-1.44,2.33c.12.26.58.49,0,.78-.35.17-.71.53-.47.94s0,.58-.35.8c-.77.45-.79,1.1,0,1.48a3.3,3.3,0,0,0,3.22,0,1.25,1.25,0,0,0,.69-1.25A1.21,1.21,0,0,0,92.9,39c-.4-.15-.82-.22-1.23-.34-.18,0-.4-.11-.37-.35s.25-.29.43-.29c.46,0,.93.13,1.35-.16h0C94.64,37.8,94,36,95,35.46A12.23,12.23,0,0,0,92.19,35.08Zm.55,5.64c.07.62-.61.66-1.12.71s-1.24,0-1.33-.79a.7.7,0,0,1,.88-.78C91.76,40,92.65,39.91,92.74,40.72Zm-1.38-4.11a.29.29,0,0,1,.22-.12A.29.29,0,0,0,91.36,36.61Zm1.42-1.27c.58.14.34.66.3,1.06,0,.15,0,.3-.06.45l0,.52,0-.52c-.36.37-.43,1.27-1.31.76h0V36.49h0c.07-.14.15-.27.21-.41C92.09,35.7,92.27,35.21,92.78,35.34Z"/><path class="cls-8" d="M60.2,37c-.34-.47-1.34-.78-.62-1.67.76-.05,1.05.53,1.37,1.15.51-1.06.23-1.49-.81-1.41l-.79,0c-1.28.42-1.5,1.13-.71,2.22.42.59,1.25,1,.94,2-1.09.53-1.28-.54-1.91-1.24.06.69-.42,1.43,0,1.52.64.12,1.42.52,2.1,0C61,38.71,61,38.14,60.2,37Z"/><path class="cls-8" d="M48.55,38.69a3.22,3.22,0,0,1,1.36-3.37l-.09-.25c0-.14-.12-.17-.23-.06a3.87,3.87,0,0,0-2.49,3.52,1.12,1.12,0,0,0,.53,1.08.85.85,0,0,0,1.11-.33v0a.13.13,0,0,0,.14-.13v-.37C48.76,38.74,48.58,38.76,48.55,38.69Z"/><path class="cls-8" d="M199.12,35.13a3.08,3.08,0,0,0-2.84,2.37,1.64,1.64,0,0,0,.32,1.83,1.46,1.46,0,0,0,1.82.17,3.17,3.17,0,0,0,2.21-2.79C200.79,35.62,200.3,35.16,199.12,35.13Zm-.92,4.2c-.33.07-.6.06-.74-.33a4.27,4.27,0,0,1,1.66-3.71C199.83,36.87,198.94,38.08,198.2,39.33Z"/><path class="cls-8" d="M68,35.13A3,3,0,0,0,65.1,37.5a1.68,1.68,0,0,0,.32,1.84,1.45,1.45,0,0,0,1.82.16,3.12,3.12,0,0,0,2.18-2.85C69.54,35.57,69.12,35.18,68,35.13ZM67,39.32h0a.53.53,0,0,1-.79-.37A4.4,4.4,0,0,1,68,35.29C68.65,36.86,67.75,38.07,67,39.32Z"/><path class="cls-8" d="M130.17,35.73c1.34-.49,2-1.21,2-2a.88.88,0,0,0-.59-.89.72.72,0,0,0-.83.22c-.24.25-.37.62-.13.83C131.55,34.73,130.81,35.2,130.17,35.73Z"/><path class="cls-8" d="M120.75,35.13a.6.6,0,0,0-.82.15c-.26.29-.48.6-.82,1v-.75c.24-.47,0-.57-.39-.47s-1,0-.92.4c.23,1.24-.36,2.3-.59,3.43-.17.84.36.73.75.63.71-.19.45-.95.7-1.43.08-.13.15-.26.24-.39.38-.56.29-1.67,1.54-1.19.3.11.44-.36.51-.66A.66.66,0,0,0,120.75,35.13Z"/><path class="cls-8" d="M46,35.23c-.23.17-.23.59-.62.55h0c-.29-.14.3-.86-.44-.71-.4.09-1.17.17-1.09.38.49,1.22-.41,2.19-.47,3.29,0,.27-.36.66.08.78s1,.28,1-.47l.19-.7a.21.21,0,0,0,.06-.2,3.91,3.91,0,0,1,.38-.7c.36-.45.31-1.5,1.39-.89.23.13.44-.27.51-.53s.15-.64-.13-.87S46.3,35,46,35.23Z"/><path class="cls-8" d="M115.63,35.1a3.29,3.29,0,0,0-2.81,2.42c-.27.75-.34,1.55.52,2a1.94,1.94,0,0,0,2.43-.72c-.61,0-1.39.62-1.69-.34s.83-.61,1.12-1.06a1.83,1.83,0,0,0,1.24-.72,1.16,1.16,0,0,0,.36-1.24C116.58,34.92,116.09,35,115.63,35.1Zm-.69,2.11h0c-.22.06-.5.23-.63.15-.32-.18,0-.48,0-.68.27-.58.51-1.21,1.27-1.34C116,36.18,115.4,36.67,114.94,37.21Z"/><path class="cls-8" d="M33.3,38.09a.81.81,0,0,0,.1,1.61c.48,0,.73-.37.78-.88C34.05,38.4,33.82,38.05,33.3,38.09Z"/><path class="cls-8" d="M38.38,38.09a.73.73,0,0,0-.81.78c0,.49.3.77.84.86.39-.11.75-.32.76-.82A.75.75,0,0,0,38.38,38.09Z"/><path class="cls-8" d="M35.92,38.08a.79.79,0,0,0-.85.76.74.74,0,0,0,.73.85.74.74,0,0,0,.84-.74A.77.77,0,0,0,35.92,38.08Z"/><path class="cls-8" d="M192.11,35.06l-.9.11A3.21,3.21,0,0,0,189,37.66a1.46,1.46,0,0,0,.79,1.93,1.79,1.79,0,0,0,2.19-.75c-1.58.3-2.13-.34-1.62-1.91a4.41,4.41,0,0,1,.81-1.39c.31-.1.59-.38,1-.11,0,.35-.62.67-.15,1.09a.45.45,0,0,0,.62.06.77.77,0,0,0,.39-.87A.84.84,0,0,0,192.11,35.06Z"/><path class="cls-8" d="M169.42,32.76c-.43.09-.72.35-.65.8a.69.69,0,0,0,.82.64.67.67,0,0,0,.6-.74C170.17,33,169.88,32.78,169.42,32.76Z"/><path class="cls-8" d="M140,32.78a.66.66,0,0,0-.8.64c0,.44.23.71.7.8a.73.73,0,0,0,.72-.73A.66.66,0,0,0,140,32.78Z"/><path class="cls-8" d="M123.13,32.76c-.45,0-.75.25-.77.7a.68.68,0,0,0,.73.74.66.66,0,0,0,.7-.64C123.84,33.1,123.56,32.85,123.13,32.76Z"/><path class="cls-8" d="M106.92,34.2c.45,0,.66-.31.69-.8a.68.68,0,0,0-.77-.62.65.65,0,0,0-.64.68A.68.68,0,0,0,106.92,34.2Z"/><path class="cls-8" d="M83.76,32.77a.65.65,0,0,0-.72.61.68.68,0,0,0,.63.82c.47,0,.7-.25.8-.67A.71.71,0,0,0,83.76,32.77Z"/><path class="cls-8" d="M167.07,35.11c-.53-.25-.8.24-1.06.61a2.92,2.92,0,0,0-.14.31c-.53.09-.34-.25-.28-.49s.07-.57-.35-.48-1.15,0-1.06.4c.31,1.15-.4,2.08-.45,3.13,0,.31-.55.75.1.95s.95,0,1.08-.67a6.71,6.71,0,0,1,1.19-2.62c.37,0,.79.71,1.11,0C167.37,35.86,167.53,35.34,167.07,35.11Z"/><path class="cls-8" d="M204.85,35.19c-.35-.34-.72-.1-1,.23a4.94,4.94,0,0,0-.3.49c-.38.1-.37-.16-.31-.39.12-.5-.18-.54-.51-.44s-1,0-.9.42c.27,1.15-.41,2.08-.47,3.13,0,.31-.53.76.15.92a.7.7,0,0,0,1-.61,7.24,7.24,0,0,1,1.25-2.7c.07,0,.16,0,.22,0,.29.24.58.45.85,0A.9.9,0,0,0,204.85,35.19Z"/><path class="cls-8" d="M73.59,35.15c-.67-.33-.94.24-1.19.74-.38.1-.39-.15-.33-.38.13-.53-.2-.52-.52-.43s-1,0-.92.41c.31,1.15-.37,2.09-.47,3.14,0,.31-.51.76.16.93s.93-.06,1.05-.71a6.57,6.57,0,0,1,1.21-2.61c.38,0,.8.72,1.12-.05C73.85,35.84,74,35.35,73.59,35.15Z"/><path class="cls-8" d="M159.23,35.05a5.46,5.46,0,0,1-.57,0c-1.42.19-1.76,1-.92,2.19.43.6,1.36,1,.92,2-1.12.5-1.26-.6-1.9-1.35.16.73-.37,1.54.06,1.59.65.08,1.41.51,2.09,0,1.17-.76,1.24-1.44.34-2.61-.34-.45-1.2-.76-.59-1.59.81-.09,1.08.55,1.42,1.25C160.52,35.48,160.43,34.91,159.23,35.05Z"/><path class="cls-8" d="M106.81,38.55c-.06.08-.12.18,0,.26.06-.09.12-.17.17-.26S106.83,38.53,106.81,38.55Z"/><path class="cls-8" d="M106.8,38.81h0v0h0Z"/><path class="cls-1" d="M16.56,19.67a3.71,3.71,0,1,1,7.42.07,3.76,3.76,0,0,1-3.75,3.65A3.72,3.72,0,0,1,16.56,19.67Z"/><path class="cls-1" d="M7.93,10.46a3.81,3.81,0,0,1,3.69,3.73A3.76,3.76,0,0,1,7.81,17.9a3.72,3.72,0,0,1,.12-7.44Z"/><path class="cls-7" d="M15.86,23.46c-.51.24-.54-.46-.93-.47C15.59,22.46,15.69,23,15.86,23.46Z"/><path class="cls-7" d="M13.91,15.38a1.38,1.38,0,0,1-.05.38c-.11.19-.25.37-.56.82C13.26,15.83,13.4,15.56,13.91,15.38Z"/><path class="cls-1" d="M10.74,24.55a3.72,3.72,0,0,1,2.57,3.63,3.5,3.5,0,0,1-2.18,3.3,3.69,3.69,0,0,1-3.2-6.65,7,7,0,0,1,.75-.32l.26-.1h1.31Z"/><path class="cls-5" d="M10.74,24.55l-.49-.15Z"/><path class="cls-5" d="M8.94,24.41l-.26.1Z"/></g></g></svg>