<svg width="133" height="138" viewBox="0 0 133 138" fill="none" xmlns="http://www.w3.org/2000/svg">
<path d="M8.554 124.267C8.46067 124.79 8.25067 125.28 7.924 125.737C7.59733 126.194 7.14467 126.563 6.566 126.843C5.99667 127.123 5.31067 127.263 4.508 127.263H2.87L2.212 131.015H0.238L1.974 121.243H5.572C6.57067 121.243 7.32667 121.467 7.84 121.915C8.35333 122.354 8.61 122.942 8.61 123.679C8.61 123.894 8.59133 124.09 8.554 124.267ZM4.704 125.723C5.236 125.723 5.656 125.592 5.964 125.331C6.272 125.07 6.468 124.715 6.552 124.267C6.57067 124.183 6.58 124.062 6.58 123.903C6.58 123.166 6.12267 122.797 5.208 122.797H3.668L3.15 125.723H4.704ZM14.1596 121.243C15.1582 121.243 15.9142 121.472 16.4276 121.929C16.9409 122.377 17.1976 122.965 17.1976 123.693C17.1976 123.87 17.1836 124.052 17.1556 124.239C17.0436 124.874 16.7542 125.452 16.2876 125.975C15.8302 126.488 15.2142 126.848 14.4396 127.053L16.0776 131.015H13.7956L12.3396 127.207H11.4016L10.7296 131.015H8.75558L10.4916 121.243H14.1596ZM15.1396 124.281C15.1582 124.113 15.1676 124.001 15.1676 123.945C15.1676 123.59 15.0556 123.315 14.8316 123.119C14.6076 122.923 14.2669 122.825 13.8096 122.825H12.1716L11.6536 125.751H13.2916C13.8142 125.751 14.2296 125.62 14.5376 125.359C14.8549 125.098 15.0556 124.738 15.1396 124.281ZM22.3023 131.113C21.481 131.113 20.753 130.94 20.1183 130.595C19.493 130.24 19.0077 129.755 18.6623 129.139C18.317 128.514 18.1443 127.8 18.1443 126.997C18.1443 125.877 18.3917 124.869 18.8863 123.973C19.3903 123.077 20.081 122.377 20.9583 121.873C21.845 121.36 22.839 121.103 23.9403 121.103C24.771 121.103 25.499 121.276 26.1243 121.621C26.759 121.966 27.249 122.452 27.5943 123.077C27.9397 123.693 28.1123 124.398 28.1123 125.191C28.1123 126.33 27.865 127.347 27.3703 128.243C26.8757 129.139 26.185 129.844 25.2983 130.357C24.4117 130.861 23.413 131.113 22.3023 131.113ZM22.5823 129.307C23.2823 129.307 23.8983 129.13 24.4303 128.775C24.9717 128.42 25.387 127.944 25.6763 127.347C25.975 126.74 26.1243 126.082 26.1243 125.373C26.1243 124.608 25.9097 124.006 25.4803 123.567C25.051 123.128 24.449 122.909 23.6743 122.909C22.9837 122.909 22.3677 123.086 21.8263 123.441C21.2943 123.796 20.879 124.272 20.5803 124.869C20.291 125.466 20.1463 126.12 20.1463 126.829C20.1463 127.594 20.3563 128.201 20.7763 128.649C21.2057 129.088 21.8077 129.307 22.5823 129.307ZM32.3845 121.243L31.3205 127.277C31.2832 127.538 31.2645 127.72 31.2645 127.823C31.2645 128.308 31.4092 128.682 31.6985 128.943C31.9878 129.195 32.3985 129.321 32.9305 129.321C33.5652 129.321 34.0832 129.148 34.4845 128.803C34.8952 128.448 35.1612 127.94 35.2825 127.277L36.3465 121.243H38.3205L37.2565 127.277C37.1072 128.117 36.8038 128.826 36.3465 129.405C35.8892 129.974 35.3338 130.404 34.6805 130.693C34.0365 130.973 33.3412 131.113 32.5945 131.113C31.6052 131.113 30.8025 130.856 30.1865 130.343C29.5798 129.83 29.2765 129.092 29.2765 128.131C29.2765 127.87 29.3045 127.585 29.3605 127.277L30.4245 121.243H32.3845ZM43.6302 121.243C44.5356 121.243 45.3149 121.402 45.9682 121.719C46.6309 122.027 47.1349 122.47 47.4802 123.049C47.8349 123.628 48.0122 124.314 48.0122 125.107C48.0122 125.462 47.9796 125.807 47.9142 126.143C47.7462 127.123 47.3822 127.982 46.8222 128.719C46.2716 129.447 45.5716 130.012 44.7222 130.413C43.8729 130.814 42.9302 131.015 41.8942 131.015H38.4782L40.2142 121.243H43.6302ZM42.1182 129.419C43.1449 129.419 43.9849 129.13 44.6382 128.551C45.3009 127.972 45.7256 127.17 45.9122 126.143C45.9589 125.835 45.9822 125.569 45.9822 125.345C45.9822 124.561 45.7489 123.954 45.2822 123.525C44.8249 123.096 44.1529 122.881 43.2662 122.881H41.8942L40.7462 129.419H42.1182ZM50.7534 129.517H53.9734L53.7074 131.015H48.5134L50.2494 121.243H52.2094L50.7534 129.517ZM64.4452 121.243L60.0212 127.613L59.4192 131.015H57.4452L58.0612 127.613L55.8632 121.243H58.0752L59.3772 125.681L62.2332 121.243H64.4452ZM75.9577 131.015H73.9837L70.7497 124.309L69.5597 131.015H67.5857L69.3217 121.229H71.2817L74.5297 127.949L75.7197 121.229H77.6797L75.9577 131.015ZM81.5766 121.243L79.8546 131.015H77.8806L79.6166 121.243H81.5766ZM82.1831 126.115C82.3511 125.154 82.7197 124.295 83.2891 123.539C83.8584 122.774 84.5584 122.181 85.3891 121.761C86.2197 121.332 87.1017 121.117 88.0351 121.117C89.1364 121.117 90.0417 121.388 90.7511 121.929C91.4697 122.461 91.9037 123.212 92.0531 124.183H89.7991C89.6497 123.772 89.3977 123.46 89.0431 123.245C88.6884 123.03 88.2497 122.923 87.7271 122.923C87.1484 122.923 86.6117 123.054 86.1171 123.315C85.6224 123.576 85.2071 123.95 84.8711 124.435C84.5351 124.92 84.3111 125.48 84.1991 126.115C84.1524 126.339 84.1291 126.596 84.1291 126.885C84.1291 127.65 84.3531 128.252 84.8011 128.691C85.2584 129.12 85.8837 129.335 86.6771 129.335C87.4144 129.335 88.0584 129.134 88.6091 128.733C89.1691 128.332 89.5844 127.776 89.8551 127.067H86.4951L86.7471 125.583H92.0391L91.7311 127.291C91.4791 127.972 91.0871 128.602 90.5551 129.181C90.0231 129.76 89.3884 130.226 88.6511 130.581C87.9137 130.926 87.1251 131.099 86.2851 131.099C85.4544 131.099 84.7217 130.931 84.0871 130.595C83.4617 130.259 82.9717 129.792 82.6171 129.195C82.2717 128.588 82.0991 127.888 82.0991 127.095C82.0991 126.778 82.1271 126.451 82.1831 126.115ZM95.9532 122.769L95.5052 125.303H98.7952L98.5292 126.815H95.2392L94.7772 129.461H98.4872L98.2072 131.015H92.5232L94.2592 121.229H99.9292L99.6632 122.769H95.9532ZM105.378 121.243C106.377 121.243 107.133 121.472 107.646 121.929C108.16 122.377 108.416 122.965 108.416 123.693C108.416 123.87 108.402 124.052 108.374 124.239C108.262 124.874 107.973 125.452 107.506 125.975C107.049 126.488 106.433 126.848 105.658 127.053L107.296 131.015H105.014L103.558 127.207H102.62L101.948 131.015H99.9743L101.71 121.243H105.378ZM106.358 124.281C106.377 124.113 106.386 124.001 106.386 123.945C106.386 123.59 106.274 123.315 106.05 123.119C105.826 122.923 105.486 122.825 105.028 122.825H103.39L102.872 125.751H104.51C105.033 125.751 105.448 125.62 105.756 125.359C106.074 125.098 106.274 124.738 106.358 124.281ZM112.639 121.243L110.917 131.015H108.943L110.679 121.243H112.639ZM119.168 129.153H115.262L114.296 131.015H112.238L117.488 121.229H119.77L121.548 131.015H119.476L119.168 129.153ZM118.916 127.627L118.216 123.483L116.06 127.627H118.916ZM131.233 131.015H129.259L126.025 124.309L124.835 131.015H122.861L124.597 121.229H126.557L129.805 127.949L130.995 121.229H132.955L131.233 131.015Z" fill="#191B1C"/>
<mask id="mask0_224_83" style="mask-type:alpha" maskUnits="userSpaceOnUse" x="4" y="0" width="125" height="114">
<path d="M66.1253 114L57.1172 105.799C25.1226 76.7869 4 57.5902 4 34.1689C4 14.9722 19.0343 0 38.1689 0C48.9787 0 59.3537 5.03215 66.1253 12.9221C72.897 5.03215 83.2719 0 94.0817 0C113.216 0 128.251 14.9722 128.251 34.1689C128.251 57.5902 107.128 76.7869 75.1335 105.799L66.1253 114Z" fill="black"/>
</mask>
<g mask="url(#mask0_224_83)">
<path d="M4 -6.21265H45.4169V124.251H4V-6.21265Z" fill="#3C8F7C"/>
<path d="M45.4169 -6.21265H86.8338V124.251H45.4169V-6.21265Z" fill="white"/>
<path d="M86.8338 -6.21265H128.251V124.251H86.8338V-6.21265Z" fill="#3C8F7C"/>
</g>
<g clip-path="url(#clip0_224_83)">
<path d="M83.6307 52.4625C81.6738 52.4607 79.7357 52.8449 77.9273 53.593C76.119 54.341 74.4759 55.4384 73.0921 56.8222C71.7084 58.2059 70.611 59.849 69.863 61.6573C69.1149 63.4657 68.7307 65.4038 68.7325 67.3607C68.7325 67.5035 68.7325 67.6456 68.7385 67.7868H73.3981V67.6777C73.3978 66.2907 73.6707 64.9173 74.2013 63.6358C74.732 62.3543 75.5098 61.1899 76.4906 60.2091C77.4713 59.2283 78.6356 58.4504 79.917 57.9197C81.1985 57.389 82.5719 57.1159 83.9589 57.1161H84V52.4677C83.8774 52.464 83.7541 52.4625 83.6307 52.4625Z" fill="#3C8F7C"/>
<path d="M72.7402 50.9666L70.0684 47C66.789 49.1405 64.0958 52.0659 62.2333 55.5109C60.3708 58.9558 59.3979 62.8113 59.4029 66.7275C59.4029 67.0828 59.4106 67.4359 59.4261 67.7868H64.0819C64.0729 67.5409 64.0677 67.2927 64.0677 67.0437C64.0642 63.8545 64.8551 60.7147 66.3691 57.9078C67.8831 55.1009 70.0732 52.7153 72.7402 50.9666Z" fill="#3C8F7C"/>
<path d="M50.8081 59.2159C50.318 61.4756 50.0714 63.7813 50.0725 66.0935C50.0725 66.6617 50.0872 67.2261 50.1166 67.7867H54.7747C54.7528 67.3307 54.7418 66.872 54.7418 66.4105C54.7406 64.3874 54.9584 62.3702 55.3914 60.3941L50.8081 59.2159Z" fill="#3C8F7C"/>
</g>
<defs>
<clipPath id="clip0_224_83">
<rect width="37" height="27.7392" fill="white" transform="translate(47 47)"/>
</clipPath>
</defs>
</svg>
