<svg width="67" height="67" viewBox="0 0 67 67" fill="none" xmlns="http://www.w3.org/2000/svg">
<path d="M18.0663 27.8577C17.4466 27.8577 16.8518 27.9522 16.2598 28.0384C16.4515 27.3936 16.6489 26.7377 16.9657 26.1484C17.2826 25.2924 17.7773 24.5503 18.2692 23.8027C18.6806 22.9939 19.406 22.4463 19.9396 21.7543C20.4983 21.0817 21.2598 20.6342 21.8629 20.0756C22.4549 19.4919 23.2304 19.2001 23.8474 18.7887C24.4922 18.4191 25.0536 18.0105 25.654 17.8159L27.152 17.1989L28.4695 16.6514L27.1215 11.265L25.4622 11.6652C24.9313 11.7986 24.2838 11.9543 23.5472 12.1405C22.794 12.2795 21.9908 12.6602 21.0958 13.0077C20.212 13.4023 19.1892 13.6692 18.2387 14.3028C17.2826 14.9087 16.1792 15.4146 15.2064 16.2262C14.2642 17.0627 13.1274 17.7882 12.2881 18.8526C11.3709 19.8477 10.4648 20.8927 9.76165 22.0822C8.9473 23.2162 8.3942 24.4614 7.81054 25.6926C7.28246 26.9239 6.85722 28.1829 6.5098 29.4058C5.8511 31.8572 5.55649 34.1863 5.44253 36.1791C5.34804 38.1747 5.40362 39.834 5.52036 41.0346C5.56205 41.6016 5.63987 42.1519 5.69546 42.5327L5.76494 42.9996L5.8372 42.983C6.33154 45.2921 7.46952 47.4142 9.11951 49.1036C10.7695 50.793 12.8641 51.9808 15.1609 52.5296C17.4578 53.0783 19.863 52.9656 22.0985 52.2044C24.334 51.4432 26.3082 50.0647 27.793 48.2284C29.2777 46.392 30.2122 44.1729 30.4884 41.8276C30.7646 39.4823 30.3712 37.1067 29.3537 34.9757C28.3361 32.8447 26.7361 31.0453 24.7386 29.7856C22.7411 28.526 20.4278 27.8576 18.0663 27.8577ZM48.6392 27.8577C48.0194 27.8577 47.4246 27.9522 46.8326 28.0384C47.0244 27.3936 47.2217 26.7377 47.5386 26.1484C47.8554 25.2924 48.3502 24.5503 48.8421 23.8027C49.2534 22.9939 49.9789 22.4463 50.5125 21.7543C51.0711 21.0817 51.8327 20.6342 52.4358 20.0756C53.0278 19.4919 53.8032 19.2001 54.4203 18.7887C55.0651 18.4191 55.6265 18.0105 56.2268 17.8159L57.7249 17.1989L59.0423 16.6514L57.6943 11.265L56.0351 11.6652C55.5042 11.7986 54.8566 11.9543 54.1201 12.1405C53.3669 12.2795 52.5637 12.6602 51.6687 13.0077C50.7876 13.4051 49.7621 13.6692 48.8115 14.3056C47.8554 14.9115 46.752 15.4174 45.7793 16.2289C44.8371 17.0655 43.7003 17.7909 42.8609 18.8526C41.9437 19.8477 41.0377 20.8927 40.3345 22.0822C39.5202 23.2162 38.9671 24.4614 38.3834 25.6926C37.8553 26.9239 37.4301 28.1829 37.0827 29.4058C36.424 31.8572 36.1293 34.1863 36.0154 36.1791C35.9209 38.1747 35.9765 39.834 36.0932 41.0346C36.1349 41.6016 36.2127 42.1519 36.2683 42.5327L36.3378 42.9996L36.4101 42.983C36.9044 45.2921 38.0424 47.4142 39.6924 49.1036C41.3424 50.793 43.4369 51.9808 45.7338 52.5296C48.0306 53.0783 50.4359 52.9656 52.6714 52.2044C54.9068 51.4432 56.8811 50.0647 58.3658 48.2284C59.8506 46.392 60.7851 44.1729 61.0613 41.8276C61.3375 39.4823 60.944 37.1067 59.9265 34.9757C58.909 32.8447 57.3089 31.0453 55.3115 29.7856C53.314 28.526 51.0007 27.8576 48.6392 27.8577Z" fill="#DDDDDD"/>
</svg>
