<svg width="120" height="67" viewBox="0 0 120 67" fill="none" xmlns="http://www.w3.org/2000/svg">
<path d="M16.6814 27.8397V23.2371L27.2207 8.16194H33.591V22.9036H36.3258V27.8397H33.591V32.1755H27.8877V27.8397H16.6814ZM28.2879 14.4322L22.6848 22.9036H28.2879V14.4322ZM42.1877 32.4424C41.1872 32.4424 40.3645 32.1533 39.7197 31.5752C39.0971 30.9749 38.7858 30.2411 38.7858 29.374C38.7858 28.4846 39.0971 27.7397 39.7197 27.1394C40.3645 26.539 41.1872 26.2388 42.1877 26.2388C43.1661 26.2388 43.9665 26.539 44.5891 27.1394C45.2339 27.7397 45.5563 28.4846 45.5563 29.374C45.5563 30.2411 45.2339 30.9749 44.5891 31.5752C43.9665 32.1533 43.1661 32.4424 42.1877 32.4424ZM65.3417 12.7979H54.9358V17.4005C55.3805 16.9113 56.0031 16.5111 56.8036 16.1998C57.604 15.8885 58.4712 15.7329 59.405 15.7329C61.0727 15.7329 62.4512 16.1109 63.5407 16.8669C64.6525 17.6229 65.464 18.6012 65.9754 19.8019C66.4868 21.0025 66.7425 22.3033 66.7425 23.7041C66.7425 26.3055 66.0088 28.3734 64.5413 29.9076C63.0738 31.4196 61.0059 32.1755 58.3378 32.1755C56.559 32.1755 55.0137 31.8754 53.7018 31.275C52.39 30.6525 51.3783 29.7964 50.6668 28.7069C49.9552 27.6174 49.5661 26.3611 49.4994 24.9381H55.0693C55.2027 25.6274 55.5251 26.2055 56.0365 26.6724C56.5479 27.1171 57.2483 27.3395 58.1377 27.3395C59.1827 27.3395 59.9609 27.0059 60.4723 26.3389C60.9837 25.6719 61.2394 24.7825 61.2394 23.6707C61.2394 22.5812 60.9726 21.7474 60.439 21.1693C59.9053 20.5912 59.1271 20.3021 58.1043 20.3021C57.3483 20.3021 56.7257 20.4911 56.2366 20.8691C55.7474 21.2249 55.425 21.7029 55.2694 22.3033H49.7663V7.79507H65.3417V12.7979ZM82.9981 0.490931L74.0597 38.4124H68.5566L77.495 0.490931H82.9981ZM101.813 12.7979H91.407V17.4005C91.8517 16.9113 92.4743 16.5111 93.2747 16.1998C94.0752 15.8885 94.9423 15.7329 95.8762 15.7329C97.5438 15.7329 98.9224 16.1109 100.012 16.8669C101.124 17.6229 101.935 18.6012 102.447 19.8019C102.958 21.0025 103.214 22.3033 103.214 23.7041C103.214 26.3055 102.48 28.3734 101.012 29.9076C99.545 31.4196 97.4771 32.1755 94.8089 32.1755C93.0302 32.1755 91.4848 31.8754 90.173 31.275C88.8611 30.6525 87.8494 29.7964 87.1379 28.7069C86.4264 27.6174 86.0373 26.3611 85.9706 24.9381H91.5404C91.6738 25.6274 91.9962 26.2055 92.5076 26.6724C93.019 27.1171 93.7194 27.3395 94.6088 27.3395C95.6539 27.3395 96.4321 27.0059 96.9435 26.3389C97.4549 25.6719 97.7106 24.7825 97.7106 23.6707C97.7106 22.5812 97.4438 21.7474 96.9101 21.1693C96.3765 20.5912 95.5983 20.3021 94.5755 20.3021C93.8195 20.3021 93.1969 20.4911 92.7077 20.8691C92.2186 21.2249 91.8962 21.7029 91.7405 22.3033H86.2374V7.79507H101.813V12.7979Z" fill="#191B1C"/>
<path d="M12.2644 61.0226L8.13312 63.5113C7.95061 63.6275 7.75981 63.6772 7.56071 63.6606C7.36162 63.644 7.18741 63.5777 7.03809 63.4615C6.88876 63.3454 6.77262 63.2004 6.68967 63.0265C6.60671 62.852 6.59012 62.6569 6.63989 62.4412L7.73492 57.7375L4.07653 54.5769C3.91062 54.4276 3.80709 54.2573 3.76594 54.0662C3.72413 53.8757 3.73641 53.6892 3.80277 53.5067C3.86914 53.3242 3.96869 53.1749 4.10142 53.0588C4.23415 52.9426 4.41665 52.868 4.64893 52.8348L9.47702 52.4117L11.3435 47.9818C11.4265 47.7827 11.5552 47.6334 11.7298 47.5338C11.9037 47.4343 12.0819 47.3845 12.2644 47.3845C12.4469 47.3845 12.6254 47.4343 12.7999 47.5338C12.9738 47.6334 13.1022 47.7827 13.1852 47.9818L15.0517 52.4117L19.8798 52.8348C20.1121 52.868 20.2946 52.9426 20.4273 53.0588C20.56 53.1749 20.6596 53.3242 20.726 53.5067C20.7923 53.6892 20.8049 53.8757 20.7638 54.0662C20.722 54.2573 20.6181 54.4276 20.4522 54.5769L16.7938 57.7375L17.8888 62.4412C17.9386 62.6569 17.922 62.852 17.8391 63.0265C17.7561 63.2004 17.64 63.3454 17.4906 63.4615C17.3413 63.5777 17.1671 63.644 16.968 63.6606C16.7689 63.6772 16.5781 63.6275 16.3956 63.5113L12.2644 61.0226Z" fill="url(#paint0_linear_159_1009)"/>
<path d="M36.156 61.0226L32.0247 63.5113C31.8422 63.6275 31.6514 63.6772 31.4523 63.6606C31.2532 63.644 31.079 63.5777 30.9297 63.4615C30.7804 63.3454 30.6642 63.2004 30.5813 63.0265C30.4983 62.852 30.4817 62.6569 30.5315 62.4412L31.6265 57.7375L27.9681 54.5769C27.8022 54.4276 27.6987 54.2573 27.6575 54.0662C27.6157 53.8757 27.628 53.6892 27.6944 53.5067C27.7607 53.3242 27.8603 53.1749 27.993 53.0588C28.1257 52.9426 28.3083 52.868 28.5405 52.8348L33.3686 52.4117L35.2351 47.9818C35.3181 47.7827 35.4469 47.6334 35.6214 47.5338C35.7953 47.4343 35.9735 47.3845 36.156 47.3845C36.3385 47.3845 36.517 47.4343 36.6915 47.5338C36.8654 47.6334 36.9938 47.7827 37.0768 47.9818L38.9433 52.4117L43.7714 52.8348C44.0037 52.868 44.1862 52.9426 44.3189 53.0588C44.4516 53.1749 44.5512 53.3242 44.6176 53.5067C44.6839 53.6892 44.6965 53.8757 44.6554 54.0662C44.6136 54.2573 44.5097 54.4276 44.3438 54.5769L40.6854 57.7375L41.7804 62.4412C41.8302 62.6569 41.8136 62.852 41.7307 63.0265C41.6477 63.2004 41.5316 63.3454 41.3822 63.4615C41.2329 63.5777 41.0587 63.644 40.8596 63.6606C40.6605 63.6772 40.4697 63.6275 40.2872 63.5113L36.156 61.0226Z" fill="url(#paint1_linear_159_1009)"/>
<path d="M60.0473 61.0226L55.9161 63.5113C55.7336 63.6275 55.5428 63.6772 55.3437 63.6606C55.1446 63.644 54.9704 63.5777 54.821 63.4615C54.6717 63.3454 54.5556 63.2004 54.4726 63.0265C54.3897 62.852 54.3731 62.6569 54.4229 62.4412L55.5179 57.7375L51.8595 54.5769C51.6936 54.4276 51.59 54.2573 51.5489 54.0662C51.5071 53.8757 51.5194 53.6892 51.5857 53.5067C51.6521 53.3242 51.7516 53.1749 51.8844 53.0588C52.0171 52.9426 52.1996 52.868 52.4319 52.8348L57.26 52.4117L59.1265 47.9818C59.2095 47.7827 59.3382 47.6334 59.5127 47.5338C59.6866 47.4343 59.8648 47.3845 60.0473 47.3845C60.2298 47.3845 60.4083 47.4343 60.5829 47.5338C60.7568 47.6334 60.8852 47.7827 60.9681 47.9818L62.8347 52.4117L67.6628 52.8348C67.895 52.868 68.0775 52.9426 68.2103 53.0588C68.343 53.1749 68.4425 53.3242 68.5089 53.5067C68.5753 53.6892 68.5879 53.8757 68.5467 54.0662C68.5049 54.2573 68.4011 54.4276 68.2352 54.5769L64.5768 57.7375L65.6718 62.4412C65.7216 62.6569 65.705 62.852 65.622 63.0265C65.5391 63.2004 65.4229 63.3454 65.2736 63.4615C65.1243 63.5777 64.9501 63.644 64.751 63.6606C64.5519 63.6772 64.3611 63.6275 64.1786 63.5113L60.0473 61.0226Z" fill="url(#paint2_linear_159_1009)"/>
<path d="M83.9389 61.0226L79.8077 63.5113C79.6252 63.6275 79.4344 63.6772 79.2353 63.6606C79.0362 63.644 78.862 63.5777 78.7126 63.4615C78.5633 63.3454 78.4472 63.2004 78.3642 63.0265C78.2813 62.852 78.2647 62.6569 78.3145 62.4412L79.4095 57.7375L75.7511 54.5769C75.5852 54.4276 75.4816 54.2573 75.4405 54.0662C75.3987 53.8757 75.411 53.6892 75.4773 53.5067C75.5437 53.3242 75.6432 53.1749 75.776 53.0588C75.9087 52.9426 76.0912 52.868 76.3235 52.8348L81.1516 52.4117L83.0181 47.9818C83.1011 47.7827 83.2298 47.6334 83.4044 47.5338C83.5782 47.4343 83.7564 47.3845 83.9389 47.3845C84.1214 47.3845 84.3 47.4343 84.4745 47.5338C84.6484 47.6334 84.7768 47.7827 84.8597 47.9818L86.7263 52.4117L91.5544 52.8348C91.7866 52.868 91.9691 52.9426 92.1019 53.0588C92.2346 53.1749 92.3341 53.3242 92.4005 53.5067C92.4669 53.6892 92.4795 53.8757 92.4383 54.0662C92.3965 54.2573 92.2927 54.4276 92.1268 54.5769L88.4684 57.7375L89.5634 62.4412C89.6132 62.6569 89.5966 62.852 89.5136 63.0265C89.4307 63.2004 89.3145 63.3454 89.1652 63.4615C89.0159 63.5777 88.8417 63.644 88.6426 63.6606C88.4435 63.6772 88.2527 63.6275 88.0702 63.5113L83.9389 61.0226Z" fill="url(#paint3_linear_159_1009)"/>
<path d="M108.172 60.4541L107.83 60.2478L107.488 60.4541L103.356 62.9428L103.349 62.947L103.342 62.9514C103.272 62.9965 103.224 63.0028 103.182 62.9993C103.103 62.9927 103.053 62.9703 103.011 62.9377L102.604 63.4615L103.011 62.9377C102.945 62.8862 102.894 62.8235 102.855 62.7413C102.845 62.7212 102.831 62.6821 102.852 62.591C102.852 62.5908 102.852 62.5906 102.852 62.5904L103.947 57.888L104.038 57.4975L103.734 57.2353L100.082 54.0798C100.008 54.012 99.988 53.9617 99.9804 53.9265L99.9804 53.9265L99.9798 53.9239C99.9649 53.8558 99.969 53.7973 99.9921 53.7335C100.024 53.6453 100.064 53.5934 100.104 53.5582C100.113 53.5507 100.159 53.5154 100.293 53.4941L105.101 53.0728L105.499 53.0379L105.654 52.6694L107.521 48.2395L107.522 48.2371C107.553 48.1629 107.587 48.1316 107.624 48.1103L107.625 48.1098C107.709 48.0619 107.774 48.0482 107.83 48.0482C107.886 48.0482 107.952 48.0619 108.036 48.11C108.073 48.1311 108.107 48.1624 108.138 48.2371L108.139 48.2395L110.006 52.6694L110.161 53.0379L110.559 53.0728L115.367 53.4941C115.501 53.5154 115.547 53.5507 115.556 53.5582C115.596 53.5934 115.636 53.6453 115.668 53.7335C115.691 53.7978 115.696 53.8568 115.681 53.9251C115.673 53.9613 115.652 54.0121 115.578 54.0798L111.926 57.2353L111.622 57.4975L111.713 57.888L112.808 62.5904C112.808 62.5905 112.808 62.5906 112.808 62.5907C112.829 62.6821 112.815 62.7212 112.805 62.7413C112.766 62.8235 112.715 62.8862 112.649 62.9377L113.056 63.4615L112.649 62.9377C112.607 62.9702 112.557 62.9927 112.479 62.9993C112.436 63.0028 112.388 62.9965 112.318 62.9514L112.311 62.947L112.304 62.9428L108.172 60.4541Z" stroke="url(#paint4_linear_159_1009)" stroke-width="1.32731"/>
<defs>
<linearGradient id="paint0_linear_159_1009" x1="12.2646" y1="47.3845" x2="12.2646" y2="63.6637" gradientUnits="userSpaceOnUse">
<stop stop-color="#FB6B67"/>
<stop offset="0.9999" stop-color="#FF2822"/>
<stop offset="1" stop-color="#FF2822"/>
<stop offset="1" stop-color="#FFA7A6"/>
</linearGradient>
<linearGradient id="paint1_linear_159_1009" x1="36.1562" y1="47.3845" x2="36.1562" y2="63.6637" gradientUnits="userSpaceOnUse">
<stop stop-color="#FB6B67"/>
<stop offset="0.9999" stop-color="#FF2822"/>
<stop offset="1" stop-color="#FF2822"/>
<stop offset="1" stop-color="#FFA7A6"/>
</linearGradient>
<linearGradient id="paint2_linear_159_1009" x1="60.0475" y1="47.3845" x2="60.0475" y2="63.6637" gradientUnits="userSpaceOnUse">
<stop stop-color="#FB6B67"/>
<stop offset="0.9999" stop-color="#FF2822"/>
<stop offset="1" stop-color="#FF2822"/>
<stop offset="1" stop-color="#FFA7A6"/>
</linearGradient>
<linearGradient id="paint3_linear_159_1009" x1="83.9391" y1="47.3845" x2="83.9391" y2="63.6637" gradientUnits="userSpaceOnUse">
<stop stop-color="#FB6B67"/>
<stop offset="0.9999" stop-color="#FF2822"/>
<stop offset="1" stop-color="#FF2822"/>
<stop offset="1" stop-color="#FFA7A6"/>
</linearGradient>
<linearGradient id="paint4_linear_159_1009" x1="107.83" y1="47.3845" x2="107.83" y2="63.6637" gradientUnits="userSpaceOnUse">
<stop stop-color="#FB6B67"/>
<stop offset="0.9999" stop-color="#FF2822"/>
<stop offset="1" stop-color="#FF2822"/>
<stop offset="1" stop-color="#FFA7A6"/>
</linearGradient>
</defs>
</svg>
