<svg xmlns="http://www.w3.org/2000/svg" viewBox="0 0 99.54 75.32"><defs><style>.cls-1{fill:#524f50;}.cls-2{fill:#eeedee;}.cls-3{fill:#101010;}.cls-4{fill:#42a2da;}.cls-5{fill:#908e8f;}</style></defs><title>icoAsset 15</title><g id="Layer_2" data-name="Layer 2"><g id="Layer_1-2" data-name="Layer 1"><path class="cls-1" d="M94.66,49.76a20.85,20.85,0,0,0,0,2.5,20.69,20.69,0,0,0,0,2.49,20.69,20.69,0,0,0,0,2.49,20.69,20.69,0,0,0,0,2.49,20.85,20.85,0,0,0,0,2.5,20.69,20.69,0,0,0,0,2.49c0,.21,0,.44-.2.6H92.28l-.08-.6V62.23a17.38,17.38,0,0,0,0-2.5V57.24a17.25,17.25,0,0,0,0-2.49V52.26c0-.62,0-1.24,0-1.85a1.62,1.62,0,0,1,1.27-1.69,2.7,2.7,0,0,1,1.09-.16Z"/><path class="cls-1" d="M96.48,49.76a2.59,2.59,0,0,1,.67-.91,1.62,1.62,0,0,1,2.26.57l.12.35a1.56,1.56,0,0,1-1.21,1.87,1.52,1.52,0,0,1-1.78-1.08A5.19,5.19,0,0,1,96.48,49.76Zm2.81.39A1.27,1.27,0,0,0,98,48.84a1.24,1.24,0,0,0-1.25,1.28,1.27,1.27,0,1,0,2.54,0Z"/><path class="cls-1" d="M1.17,74.69c0,.34-.08.52-.49.49s-.34-.27-.34-.52c0-1.22,0-2.44,0-3.66,0-.23-.19-.59.24-.65a.73.73,0,0,1,.89.36c.26.5.6,1,.9,1.41,0,0,0,.06,0,.07a11.05,11.05,0,0,0,1,1.61V72.19a6.91,6.91,0,0,0,0-1.11c-.08-.6.15-.83.73-.76l.09.11v4.26c-.07.16.1.47-.25.47s-.64.09-.86-.29c-.44-.75-.91-1.48-1.36-2.22l-.65-1Z"/><path class="cls-1" d="M0,60.11l0-.37v-5a18.81,18.81,0,0,0,0-2.49V49.77l0-1.11a2.33,2.33,0,0,1,2.23.86c0,.1,0,.2.11.25l.11,2.48a16.05,16.05,0,0,0,0,2.5,17.25,17.25,0,0,0,0,2.49,11.71,11.71,0,0,0,0,2.51,3.43,3.43,0,0,0,1,2.47,2.52,2.52,0,0,0,1.37.86,4.47,4.47,0,0,0,2.48.21,3.17,3.17,0,0,0,2.16-1,1.08,1.08,0,0,0,.48-.63,3.16,3.16,0,0,0,.59-1.88c.1-2.49.11-5,.07-7.47l.11-2.48a2.21,2.21,0,0,1,1.58-1.15c.61-.14.87.08.76.71a1.55,1.55,0,0,0,0,.43v7.47l0,2.49A13.37,13.37,0,0,1,12.56,62l-.34.71a6.86,6.86,0,0,1-1.84,1.88l-.68.34a14.11,14.11,0,0,1-2.31.55,19,19,0,0,1-2.5-.12A5.74,5.74,0,0,1,.62,62.2,15.44,15.44,0,0,1,0,60.11Z"/><path class="cls-2" d="M4.19,70.32l.09.11Z"/><path class="cls-3" d="M67.2,0l.74,0L68,2.41v2.5a20.52,20.52,0,0,0,0,2.48v2.5a20.69,20.69,0,0,0,0,2.49v2.5a20.52,20.52,0,0,0,0,2.48v2.5a7.38,7.38,0,0,1-.3,2.24,2.36,2.36,0,0,0-.12.28,30.3,30.3,0,0,1-2,5.45A13.61,13.61,0,0,1,56,35c-.19,0-.52.26-.54-.21l0-.13.06-.23.06-.53a.69.69,0,0,0,.07-.47,3.37,3.37,0,0,0,.06-1c0-.46.07-.91.07-1.36q0-5.88,0-11.75t0-11.81l.06-1,.06-.25L56,6,56,5.66l.08-.37.06-.13c1-2.92,3.41-4,6.17-4.61,1-.21,2-.3,3-.45L66.7,0Z"/><path class="cls-4" d="M29.82,0l1.74.05V2.41l-1.62.06L29.1,2.4V.07Z"/><path class="cls-1" d="M27.33,75.21c-.39,0-.43-.24-.44-.52a20.69,20.69,0,0,0,0-2.49c.09-1.12.09-1.12-1-1.13h-.13c-.26,0-.43,0-.43-.36s.16-.38.43-.37l1.55,0,1.61,0c.28,0,.36.11.36.37s-.1.36-.36.36a3.83,3.83,0,0,0-1.12.05c-.06,0-.09,0-.05.07a3.05,3.05,0,0,0,0,1v2.5C27.74,75,27.7,75.23,27.33,75.21Z"/><path class="cls-1" d="M94.59,72.88a1.5,1.5,0,0,1,0,1.81h0v0a2.81,2.81,0,0,1-2.46.45l-.77-.5c-.09-.19-.2-.37-.27-.56s-.18-.37,0-.51a.75.75,0,0,1,.59,0c.27,0,.11.38.31.48a1.42,1.42,0,0,0,1.76.37.68.68,0,0,0,.34-.62.58.58,0,0,0-.44-.55l-1.49-.4a2,2,0,0,1-.9-.68c-.2-1.07,0-1.46,1.08-1.91a2.41,2.41,0,0,1,2.15.55,3.37,3.37,0,0,1,.19.38c0,.18.23.44-.07.51s-.56.18-.69-.19c-.25-.67-.79-.64-1.34-.58a.59.59,0,0,0-.56.56.57.57,0,0,0,.43.61c.38.12.75.22,1.13.31A2.64,2.64,0,0,1,94.59,72.88Z"/><path class="cls-1" d="M14.86,70.31l1.49,0c.25,0,.5-.06.51.35s-.27.38-.53.38c-.56,0-1.12,0-1.68,0s-.48.24-.42.54-.26.77.39.75,1,0,1.56,0c.22,0,.45,0,.46.32s-.23.36-.49.36c-.49,0-1,0-1.49,0s-.48.12-.44.46a2.09,2.09,0,0,1,0,.5c0,.34.08.48.44.46.6,0,1.2,0,1.81,0,.26,0,.42,0,.42.36s-.14.37-.41.37l-1.62,0a8.86,8.86,0,0,0-1,0c-.42,0-.49-.16-.48-.49v-2.5c0-.14,0-.28,0-.42,0-.45-.13-1,.09-1.31s.84-.07,1.28-.12Z"/><path class="cls-1" d="M79.52,75.14c-.37,0-.86.24-.87-.45v-2.5c0-.36,0-.73,0-1.1,0-.79,0-.79.83-.71v2.1c.66-.65,1.24-1.19,1.79-1.77a1.1,1.1,0,0,1,.85-.4c.12.07.31,0,.42.12l-.42.52c-.37.35-.74.72-1.12,1.06-.22.2-.2.36,0,.57l1.64,2.25c.26.67-.38.18-.49.37-.5,0-.56-.46-.84-.7-.29-.44-.6-.89-.88-1.35-.15-.23-.26-.22-.48-.05-.58.43-.42,1-.4,1.59Z"/><path class="cls-1" d="M68.82,74.69a5.31,5.31,0,0,0,0-.8.77.77,0,0,0-.74-.7c-1.43-.18-1.45-.15-1.46,1.3,0,.23.2.58-.21.67s-.65,0-.62-.47c0-1.29,0-2.57,0-3.86,0-.35.06-.53.47-.51.64,0,1.29,0,1.93,0a1.64,1.64,0,0,1,1.36.61,2.17,2.17,0,0,1,.08,1.21l-.12.25c-.54.32-.38.62,0,.91l.18,1.38c-.07.16.19.34,0,.49C69.34,75.14,68.86,75.29,68.82,74.69Zm-1.34-2.13a3.65,3.65,0,0,0,.89-.07.66.66,0,0,0,.48-.65c0-.29,0-.59-.3-.7a4.12,4.12,0,0,0-1.78-.08.25.25,0,0,0-.13.18c0,.41-.15.86,0,1.22S67.23,72.51,67.48,72.56Z"/><path class="cls-1" d="M54.74,75.32Q52,75,52.32,72.21l.08-.37a2.44,2.44,0,0,1,2.34-1.65,2.6,2.6,0,0,1,0,5.13Zm1.35-2.58a2.48,2.48,0,0,0-.21-1,1.31,1.31,0,0,0-1.31-.86,1.27,1.27,0,0,0-1.25.85,2.45,2.45,0,0,0,0,2,1.26,1.26,0,0,0,1.18.77C55.49,74.62,56.1,73.9,56.09,72.74Z"/><path class="cls-1" d="M39.79,75.18c-.4,0-.89.14-1-.49a19.53,19.53,0,0,0-.65-2.5c-.11-.43-.23-.87-.31-1.31,0-.17-.29-.46.1-.53s.61-.09.7.37.25,1,.38,1.48A7.17,7.17,0,0,0,39.47,74l.42-1.76L40,72c.11-.37.24-.74.33-1.12s.14-.51.54-.52.51.21.59.54c.25,1,.51,2,.8,3.16a10.32,10.32,0,0,0,.44-1.82c.14-.52.29-1,.41-1.55s.43-.33.69-.3.14.32.11.47c-.09.46-.22.92-.34,1.38l-.71,2.49c-.07.28-.17.53-.53.51s-.52-.18-.61-.53a16.2,16.2,0,0,0-.89-3Z"/><path class="cls-1" d="M90,48.63c0,.51,0,1,0,1.53,0,.29,0,.53-.37.62H87.14c-.2,0-.4,0-.61,0-1.46,0-1.46,0-1.29,1.52a12.84,12.84,0,0,0,0,2.48,14.79,14.79,0,0,0,0,2.49,13,13,0,0,0,0,2.49,14.91,14.91,0,0,0,0,2.5,13,13,0,0,0,0,2.49c0,.36-.11.68-.59.64a10.26,10.26,0,0,0-1.24,0c-.52.06-.71-.14-.68-.63,0-2.49,0-5,0-7.48a20.69,20.69,0,0,0,0-2.49c0-1.2,0-2.4,0-3.6,0-.34-.13-.42-.44-.41-.89,0-1.78,0-2.67,0l-.79,0c-1,0-1,0-1.09-1,0-.12,0-.25,0-.37,0-.89-.13-.78.83-.79l1,0a14.79,14.79,0,0,0,2.49,0,17.25,17.25,0,0,0,2.49,0,14.79,14.79,0,0,0,2.49,0,17.38,17.38,0,0,0,2.5,0Z"/><path class="cls-1" d="M98.76,51c-.41,0-.43-.3-.56-.45s-.16-.34-.37-.28-.1.29-.12.43,0,.26-.22.31a3.48,3.48,0,0,1,0-1.57c.12-.41.64-.21,1-.13a.39.39,0,0,1,.22.65C98.19,50.35,98.49,50.62,98.76,51ZM98,49.48c-.22,0-.31.05-.31.26s0,.33.26.3.48-.07.48-.33S98.19,49.5,98,49.48Z"/><path class="cls-4" d="M37.3,2.41h1.47a11.33,11.33,0,0,1,0,2.47H36.43l0-2.49Z"/><path class="cls-2" d="M27.82,71.12a.08.08,0,0,1-.05.07C27.73,71.13,27.76,71.11,27.82,71.12Z"/><path class="cls-1" d="M17.36,65.35c-.25-.16-.1-.43-.19-.63a17.25,17.25,0,0,0,0-2.49,17.38,17.38,0,0,0,0-2.5,17.25,17.25,0,0,0,0-2.49,17.25,17.25,0,0,0,0-2.49,17.25,17.25,0,0,0,0-2.49,17.38,17.38,0,0,0,0-2.5c.14-.36-.13-.79.19-1.13h5a17,17,0,0,1,2.47.21,4.21,4.21,0,0,1,3.41,3.43,5,5,0,0,1-.33,2.47l-.57.87a8.08,8.08,0,0,1-1.43,1,5,5,0,0,1,1.35.68l0,0a5.09,5.09,0,0,1,1.36,2.42,6.28,6.28,0,0,1-.06,2.48,4.83,4.83,0,0,1-3.74,3l-2.49.09h-5ZM25,58.1a4.7,4.7,0,0,0-2.64-.34c-.23,0-.46,0-.68,0-.61,0-1.44-.28-1.79.13s-.1,1.23-.08,1.87a16.05,16.05,0,0,0,0,2.5c0,.1,0,.21,0,.31-.09.53.09.74.66.69s1.28,0,1.92,0c.39,0,.79,0,1.18,0a2.66,2.66,0,0,0,2.76-3.48A2,2,0,0,0,25,58.1Zm-2.64-7.31c-.78,0-1.57,0-2.35,0-.3,0-.4.08-.4.38,0,1.37,0,2.73,0,4.1,0,.29.1.4.4.39.78,0,1.57,0,2.35,0A4.87,4.87,0,0,0,24,55.51a2,2,0,0,0,1.72-2.15c0-1.39-.46-2.16-1.59-2.46A5.14,5.14,0,0,0,22.34,50.79Z"/><path class="cls-5" d="M54.74,36.2a14.67,14.67,0,0,0,7.63-3,16.82,16.82,0,0,0,5.36-7.85c.06-.18.15-.34.22-.51v2.49c-.08.83-.17,1.66-.26,2.49-.07.26-.15.52-.2.78a18.93,18.93,0,0,1-1.45,4,16.82,16.82,0,0,1-6.32,6.43l-2.24,1.09a.24.24,0,0,0-.25.1L54.74,43l-2.49.49c-.78-.07-1.59.38-2.35-.13A10.49,10.49,0,0,1,48,42.13a5.17,5.17,0,0,0,.14-1.47c0-1.46,0-2.92,0-4.38l1.59.09a17.41,17.41,0,0,0,2.5,0A10.39,10.39,0,0,0,54.74,36.2Z"/><path class="cls-4" d="M36.41,7.25l-1.6.06c-.65.07-.89-.23-.79-.86,0-.2,0-.41,0-.62,0-.9,0-.9.9-1l1.5,0h0Z"/><path class="cls-1" d="M68.3,62.22a6,6,0,0,1-3.59,3,14.82,14.82,0,0,1-2.49.27,11.42,11.42,0,0,1-2.46-.36l-1.27-.55-1.26-1.09-.8-1.29a10.49,10.49,0,0,1-.6-2.47l0-2.49a20.69,20.69,0,0,0,0-2.49,17.25,17.25,0,0,0,0-2.49,20.85,20.85,0,0,0,0-2.5c.11-1.24.11-1.24,1.3-1a2.09,2.09,0,0,1,1,1c.17.81,0,1.64.11,2.47v5a19,19,0,0,0,0,2.5,3.66,3.66,0,0,0,3.94,3.59,3.66,3.66,0,0,0,4.2-3.6,14.79,14.79,0,0,0,0-2.49,20.69,20.69,0,0,0,0-2.49,20.69,20.69,0,0,0,0-2.49,23.25,23.25,0,0,1,.12-2.5A2.76,2.76,0,0,1,67.2,49l.22-.1c1.2-.54,1.41-.42,1.5.81,0,0,0,0,0,.06,0,.22,0,.45,0,.67,0,2.51,0,5,0,7.52A11.48,11.48,0,0,1,68.3,62.22Z"/><path class="cls-1" d="M48.16,36.28c0,1.46,0,2.92,0,4.38A5.17,5.17,0,0,1,48,42.13c-.46-.37-1-.71-1.38-1.12a15.53,15.53,0,0,1-2.93-3.72l-1-2.49c0-.15-.15-.52.28-.29l.54.3a18.56,18.56,0,0,0,3.76,1.36Z"/><path class="cls-4" d="M42.66,37.3a14.12,14.12,0,0,0,3.72,4.84c.6.52,1.25,1,2,1.57H47.15l-2.25-.18L42.28,43a27.78,27.78,0,0,1-5-2A21.87,21.87,0,0,1,34,38.52a19.09,19.09,0,0,1-2.86-3.72,20.71,20.71,0,0,1-1.7-5l-.31-3V7.4c-.06-.56.15-.85.75-.77a5.24,5.24,0,0,0,1,0c.62-.09.86.16.79.76V19.74a.11.11,0,0,0,.12.12h.62a3.46,3.46,0,0,0,1.16.08c.39.05.48-.13.49-.5a6.85,6.85,0,0,1,.09-2h.75c.35,0,.71.05,1.05,0s.58.1.57.55c0,1,0,2,0,3,0,.59-.27,1.38.12,1.72s1.19.06,1.81.11c.4,0,.52-.14.45-.51V14.87c0-.95,0-.95,1-1,.31,0,.62,0,.93,0s.58.11.57.56c0,1,0,2,0,2.93q0,6.22,0,12.46a18.81,18.81,0,0,0,0,2.49A11.7,11.7,0,0,0,42.66,37.3Z"/><path class="cls-4" d="M37.3,11.53c-.88,0-.88,0-.88-1,0-.22,0-.45,0-.67l0-.74.11-.06h.64c.23,0,.45,0,.68,0,.91,0,.91,0,1,.88,0,.47.11,1.08-.13,1.38S37.78,11.43,37.3,11.53Z"/><path class="cls-4" d="M39.79,8.52a1.15,1.15,0,0,0-.18,0c-.65.1-.9-.17-.8-.81a1.51,1.51,0,0,0,0-.3c0-.1,0-.21,0-.31,0-1,0-1,1-1.06l.12,0c1.32,0,1.32,0,1.39,1.35-.06,1.08-.06,1.08-1.14,1.1Z"/><path class="cls-1" d="M52.48,57.24A13.13,13.13,0,0,1,52,60.09a7.9,7.9,0,0,1-1.81,3,7.42,7.42,0,0,0,1.68.07c.37,0,.75,0,1.12,0,1,0,1.31.79,1.53,1.6,0,.32-.13.42-.44.42-.6,0-1.19,0-1.79,0a18.81,18.81,0,0,0-2.49,0,7.7,7.7,0,0,0-2.49.07l-2.5.24A13.26,13.26,0,0,1,42.28,65a7.1,7.1,0,0,1-3.2-2.93,15.17,15.17,0,0,1-.86-2.33A12.52,12.52,0,0,1,39,52.27l.86-1.34,1-1,1.5-.85a12.36,12.36,0,0,1,2.47-.53,18.91,18.91,0,0,1,2.49.24,6.57,6.57,0,0,1,4.07,3.33,14.42,14.42,0,0,1,.93,2.63Zm-10.27,5a3.68,3.68,0,0,0,2.56,1,4.25,4.25,0,0,0,4.79-3.59,6.6,6.6,0,0,0,.32-2.5,7.81,7.81,0,0,0-.22-2.5,4.59,4.59,0,0,0-4.9-4,4.36,4.36,0,0,0-4,4,7.28,7.28,0,0,0-.22,2.5,7,7,0,0,0,.29,2.49A4.61,4.61,0,0,0,42.21,62.29Z"/><path class="cls-1" d="M75.45,52.26V64.72c.07.6-.36.6-.77.63h-1.5l-.11,0L73,64.72v-2.5a20.52,20.52,0,0,0,0-2.48v-2.5a20.69,20.69,0,0,0,0-2.49V52.26l.09-2.48a2.22,2.22,0,0,1,1.59-1.15c.7,0,.7,0,.77,1.13Z"/><path class="cls-4" d="M34.8,15.14c-.27-.14-.69.2-.86-.27,0-.53.05-1.07,0-1.61s.22-.64.66-.58l.37.05c.46.07,1.19-.22,1.33.14a6.14,6.14,0,0,1,.09,2c0,.23-.19.22-.36.23Z"/><path class="cls-1" d="M32.33,62.23a11.61,11.61,0,0,0,0-2.5,20.52,20.52,0,0,0,0-2.48,11.61,11.61,0,0,0,0-2.5,20.69,20.69,0,0,0,0-2.49,7.22,7.22,0,0,0,.05-1.54,1.92,1.92,0,0,1,2.42-2.06l0,1.1v15l-.06.53a10.09,10.09,0,0,1-2.33.11l-.1-.65Z"/></g></g></svg>