<svg xmlns="http://www.w3.org/2000/svg" viewBox="0 0 93.37 99.89"><defs><style>.cls-1{fill:#e32126;}.cls-2{fill:#8b8b8a;}</style></defs><title>icoAsset 17</title><g id="Layer_2" data-name="Layer 2"><g id="Layer_1-2" data-name="Layer 1"><path class="cls-1" d="M80.89,55.18a6.71,6.71,0,0,0,3.57-1.53,17.47,17.47,0,0,0,3.62-3.91c.36-.5.49-1.14,1-1.58l.11-.09c.17.11.11.26.08.39-.58,2.57-.94,5.19-1.48,7.77-.45,2.16-.85,4.33-1.37,6.47-.35,1.42-.58,2.87-.94,4.29-.46,1.86-.85,3.73-1.37,5.57-.35,1.22-.61,2.47-.93,3.7-.11.43-.24.86-.37,1.3a.41.41,0,0,1-.45.28H81.5l-15.9.05c-4.3,0-8.6,0-12.9.1-5.19.09-10.38.07-15.57.1l-24.51.1-8.74.06c-.21,0-.42,0-.63,0S3,78.39,3,78.23a.31.31,0,0,1,.12-.38C5.13,76.37,7,74.68,9,73.12s3.61-2.93,5.42-4.4q3-2.43,5.94-4.83l4.37-3.55,5.61-4.56,9.41-7.67,7.4-6,.11,0,0-.12.11-.1A1.83,1.83,0,0,0,48.45,41l.13-.1s.08.05.11,0,.05-.06,0-.1c1.65-1.2,3.12-2.61,4.74-3.84a1.66,1.66,0,0,0,.26-.27,1,1,0,0,0,.8-.67,10.89,10.89,0,0,0,2-1.48c1.18-.94,2.34-1.9,3.5-2.85L62.07,30c.83-.68,1.64-1.39,2.49-2.06s1.58-1.25,2.37-1.89l2-1.65,2.61-2.14a4.37,4.37,0,0,0,1-.89c.36,0,.53-.18.66-.47a7.58,7.58,0,0,0,1.5-1.21C75.88,18.84,77,17.9,78.14,17c1.45-1.13,2.85-2.34,4.27-3.51A21.83,21.83,0,0,1,84.35,12a.94.94,0,0,0,.38-.41,1.19,1.19,0,0,0,.86-.66A7.9,7.9,0,0,0,87,9.71c.34-.31.7-.6,1-.91l.18.32-2.64,3.05s0,.12,0,.18c-.21.08-.42.17-.35.46-.8,1-1.7,1.86-2.44,2.87-1.18,1.61-2.48,3.12-3.73,4.67l-4.89,6q-3.23,3.93-6.43,7.87c-1.45,1.77-2.94,3.53-4.35,5.33-.74.94-1.47,1.87-2.21,2.79s-1.3,1.58-2,2.35c-1.55,1.82-3.06,3.66-4.58,5.5-1.26,1.53-2.46,3.1-3.78,4.56-.12.14-.28.31-.17.52s.25.12.39.12l9.18-.05,9.57,0h7c.24,0,.48,0,.72,0,0,.12.08.12.16.12h3C80.8,55.32,81,55.35,80.89,55.18Z"/><path class="cls-2" d="M43.76,0c8.65,0,17.31-.06,26,0,7.4.07,14.81,0,22.21.07a2.83,2.83,0,0,0,.87,0c.21-.07.46-.09.54.15a.53.53,0,0,1-.25.62c-.84.51-1.52,1.23-2.3,1.81-1.2.88-2.3,1.89-3.47,2.81C85.73,6.7,84.22,8,82.63,9.28c-1,.82-2,1.69-3.09,2.51s-2.12,1.71-3.16,2.59c-1.24,1.06-2.52,2.07-3.79,3.1l-5.07,4.13c-1.83,1.49-3.7,2.93-5.48,4.46-1.61,1.38-3.31,2.64-4.9,4C56,31.12,54.77,32,53.59,33l-4.5,3.68-5.53,4.48-5.33,4.42c-1.15.95-2.31,1.87-3.47,2.81l-5.13,4.18Q26.9,54.76,24.18,57c-1.8,1.48-3.58,3-5.38,4.44s-3.33,2.69-5,4c-1.27,1-2.52,2.08-3.78,3.13-.23.2-.44.41-.66.62s-.3.2-.43.07S8.88,69,9,68.85c.35-.41.69-.84,1.06-1.24,1.48-1.63,2.82-3.37,4.23-5l4.48-5.4q2.79-3.4,5.59-6.8c1.22-1.49,2.47-3,3.7-4.43,1.61-2,3.21-3.92,4.83-5.87,1.23-1.48,2.49-2.93,3.69-4.43,1-1.28,2.1-2.55,3.16-3.82s1.95-2.4,2.95-3.6c1.39-1.67,2.8-3.34,4.2-5,.07-.08.19-.15.12-.28s-.19-.1-.3-.09c-1.54.05-3.09-.08-4.63.07a15,15,0,0,1-1.64,0c-6.08,0-12.17,0-18.26.05H17.06a9,9,0,0,0-3.07.66,8.87,8.87,0,0,0-2.82,1.65A7.48,7.48,0,0,0,9.7,27a1.28,1.28,0,0,1-.26.34c-.08.06-.17.11-.27,0a.21.21,0,0,1-.07-.26c.21-.36.17-.81.4-1.18a5.33,5.33,0,0,0,.39-1.38c.18-.67.41-1.34.56-2s.41-1.4.61-2.11.31-1.27.5-1.89q.36-1.18.66-2.4c.17-.69.4-1.37.55-2.07s.32-1.27.51-1.9c.24-.79.42-1.61.67-2.39s.34-1.43.59-2.13A9.82,9.82,0,0,0,15,5.83,12.69,12.69,0,0,1,15.56,4a15.24,15.24,0,0,1,.61-2.17c.18-.36.16-.82.32-1.24A.75.75,0,0,1,17.32,0H43.76Z"/><path class="cls-2" d="M32.3,83.54h1.6a.56.56,0,0,1,.56.35c.6,1.09,1.17,2.19,1.81,3.26s1.12,2.08,1.72,3.09a16.24,16.24,0,0,1,1.33,2.59c.1.28.14.59.22.88a.94.94,0,0,0,.25.52c.08.07.16.17.29.12a.27.27,0,0,0,.14-.28c0-.21,0-.42,0-.63a28.8,28.8,0,0,1,.33-3.93c.17-1.48.45-3,.55-4.44.11-1.7.13-1.53,1.56-1.52h2c.35,0,.55.14.45.5-.26.95-.2,1.94-.37,2.91-.4,2.34-.61,4.7-.93,7-.23,1.7-.5,3.4-.62,5.11-.05.6-.15.67-.76.67H39.6a.55.55,0,0,1-.57-.31c-.79-1.33-1.53-2.69-2.28-4s-1.44-2.52-2.14-3.79a12.41,12.41,0,0,1-.88-2.36c0-.15-.06-.38-.25-.37s-.24.22-.24.41a47.86,47.86,0,0,1-.63,6.21c-.13,1.21-.38,2.41-.43,3.63,0,.42-.17.65-.65.63-.93,0-1.86,0-2.8,0-.42,0-.55-.18-.49-.56.28-1.77.5-3.56.71-5.34.18-1.54.39-3.08.57-4.63s.29-2.87.58-4.29a5.49,5.49,0,0,0,.07-.91c0-.36.17-.53.54-.52Z"/><path class="cls-2" d="M73.94,93.24H71.67c-.31,0-.46.09-.5.43-.19,1.61-.41,3.22-.62,4.82,0,.32-.09.64-.11,1a.39.39,0,0,1-.44.4c-1.17,0-2.35,0-3.52,0-.3,0-.41-.16-.37-.44.29-1.71.48-3.43.7-5.14s.4-3.12.56-4.69.39-2.92.59-4.38c.06-.41.13-.83.15-1.24a.54.54,0,0,1,.65-.59c1,.1,2.06,0,3.09,0,.5,0,.64.17.57.65-.26,1.76-.4,3.54-.72,5.29-.07.4.21.44.51.44,1.24,0,2.48,0,3.72,0s1.27.21,1.4-1.21.36-3.06.55-4.58c.07-.49.31-.61.78-.6a21.3,21.3,0,0,0,3,0c.46,0,.65.18.59.65-.2,1.66-.46,3.3-.63,5s-.44,3-.59,4.54-.47,3.07-.57,4.63c0,.45-.12.89-.19,1.33a.43.43,0,0,1-.49.37H76.29c-.38,0-.47-.18-.4-.53.37-1.85.48-3.75.78-5.62.06-.37-.17-.44-.46-.44Z"/><path class="cls-2" d="M20.58,99.84c-1.38,0-2.77,0-4.15,0-.43,0-.55-.13-.54-.55,0-.86.25-1.69.34-2.53.15-1.55.36-3.09.56-4.64.25-2,.5-4.07.78-6.1.1-.72.24-1.43.27-2.15a.52.52,0,0,1,.63-.51c1.53.12,3.06,0,4.58,0a32.26,32.26,0,0,0,3.81-.06.52.52,0,0,1,.59.67,14.73,14.73,0,0,0-.36,2.57c0,.47-.34.55-.7.53-1.43-.1-2.86,0-4.29,0a.37.37,0,0,0-.44.38c-.08.62-.17,1.25-.31,1.86-.09.42.08.51.44.51l3.87,0c.59,0,.74.15.65.72-.14.84-.29,1.67-.37,2.52,0,.39-.33.42-.64.42-1.27,0-2.55,0-3.82,0-.43,0-.62.14-.68.54s-.18,1.08-.25,1.62c-.05.33.08.51.45.5l4.2,0c.57,0,.72.19.59.75a12.3,12.3,0,0,0-.26,2.1c0,.81-.15.92-.94.91h-4Z"/><path class="cls-2" d="M6.58,99.78H.45c-.16,0-.35.06-.43-.13s.06-.31.16-.43c1.1-1.47,2.23-2.93,3.3-4.42C4.88,92.87,6.29,91,7.7,89c.39-.53.77-1.06,1.19-1.56A.4.4,0,0,0,9,87a.29.29,0,0,0-.32-.17c-1.28.16-2.57,0-3.85.07a8,8,0,0,0-1.3,0c-.35.06-.54-.12-.48-.47.15-.84.19-1.69.29-2.53,0-.41.35-.44.68-.44H15.52c.14,0,.3,0,.39.12s0,.28-.11.4c-.72,1-1.47,1.89-2.15,2.87-1.19,1.71-2.46,3.36-3.68,5-.91,1.25-1.78,2.54-2.79,3.72-.12.15-.28.3-.18.51s.36.19.56.18c1.88-.16,3.77,0,5.65-.07.27,0,.44.11.41.4a18.45,18.45,0,0,1-.38,2.77c-.07.3-.28.29-.52.29Z"/><path class="cls-2" d="M60.7,83.26h4.88c.58,0,.65.09.65.68,0,1.06-.34,2.09-.41,3.15a.46.46,0,0,1-.51.41c-.84,0-1.68,0-2.51,0-.38,0-.48.11-.53.43-.27,1.62-.42,3.24-.62,4.86s-.47,3.08-.56,4.64c-.05.71-.31,1.41-.3,2.14,0,.26-.19.34-.43.35H56.78c-.34,0-.44-.2-.4-.51.25-2.11.56-4.22.8-6.34.17-1.48.49-3,.53-4.44a1.59,1.59,0,0,1,.06-.38c.19-.73.19-.73-.59-.72s-1.45,0-2.17,0c-.35,0-.49-.15-.5-.49a16.46,16.46,0,0,1,.35-2.72c.15-1,.18-1,1.25-1Z"/><path class="cls-2" d="M48.67,99.84c-.55,0-1.09,0-1.64,0-.39,0-.54-.17-.47-.53.28-1.31.35-2.64.52-4,.2-1.51.4-3,.58-4.53s.29-2.91.58-4.34c.16-.8.12-1.63.26-2.44.09-.53.32-.68.84-.65a21.59,21.59,0,0,0,2.9,0c.56-.05.77.16.68.7-.3,1.85-.44,3.73-.72,5.58-.22,1.44-.34,2.9-.57,4.34s-.38,3.08-.57,4.63a1.21,1.21,0,0,1,0,.19c-.19.87,0,1.13-1.13,1H48.67Z"/><path class="cls-2" d="M80.89,55.18c.06.17-.09.14-.16.14h-3c-.08,0-.17,0-.16-.12A26.75,26.75,0,0,1,80.89,55.18Z"/><path class="cls-2" d="M48.45,41a1.83,1.83,0,0,1-1.12.88A5,5,0,0,1,48.45,41Z"/><path class="cls-2" d="M88.21,9.12,88,8.8c.11-.17.23-.35.47-.34s.13.08.12.17C88.62,8.91,88.42,9,88.21,9.12Z"/><path class="cls-2" d="M85.59,10.88a1.19,1.19,0,0,1-.86.66A2.21,2.21,0,0,1,85.59,10.88Z"/><path class="cls-2" d="M54.5,36.1a1,1,0,0,1-.8.67A2.45,2.45,0,0,1,54.5,36.1Z"/><path class="cls-2" d="M73.22,20.93c-.13.29-.3.51-.66.47C72.79,21.25,72.91,21,73.22,20.93Z"/><path class="cls-2" d="M85.17,12.81c-.07-.29.14-.38.35-.46C85.52,12.59,85.32,12.69,85.17,12.81Z"/><path class="cls-2" d="M48.7,40.88s0,.08,0,.1-.08,0-.11,0S48.62,40.83,48.7,40.88Z"/><path class="cls-2" d="M47.22,42l0,.12-.11,0A.08.08,0,0,1,47.22,42Z"/></g></g></svg>